{"glyphs":{"0":{"ha":919,"x_min":85,"x_max":835,"o":"m 85 457 q 108 618 85 536 q 177 767 131 700 q 294 876 224 833 q 464 918 365 918 q 632 874 561 918 q 748 762 703 829 q 814 612 793 694 q 833 451 835 529 q 803 267 833 351 q 722 120 772 182 q 602 24 671 58 q 456 -10 533 -10 q 312 26 379 -10 q 194 123 244 61 q 114 270 143 185 q 85 457 85 356 m 138 457 q 163 288 136 364 q 233 156 189 211 q 336 69 278 100 q 457 39 394 39 q 578 69 519 39 q 682 153 636 99 q 756 283 728 207 q 783 451 783 360 q 761 615 783 539 q 697 747 739 690 q 594 835 654 803 q 463 868 535 868 q 329 836 389 868 q 227 749 269 804 q 161 617 185 693 q 138 457 138 542 z "},"1":{"ha":401,"x_min":51,"x_max":240,"o":"m 51 857 l 51 907 l 240 907 l 240 0 l 189 0 l 189 857 l 51 857 z "},"2":{"ha":717,"x_min":81,"x_max":661,"o":"m 211 49 l 661 49 l 661 0 l 88 0 q 260 170 176 86 q 408 333 343 254 q 511 485 472 411 q 550 624 550 558 q 530 740 550 693 q 478 816 510 788 q 411 856 447 844 q 343 868 375 868 q 238 845 279 868 q 174 789 197 822 q 141 717 150 756 q 132 647 132 679 q 146 560 132 599 q 186 493 160 522 l 156 463 q 100 544 119 496 q 81 647 81 592 q 98 753 81 703 q 149 839 115 803 q 231 897 182 875 q 343 918 279 918 q 447 897 400 918 q 528 838 494 875 q 581 749 563 800 q 600 640 600 699 q 565 488 600 563 q 473 339 529 413 q 347 192 417 265 q 211 49 278 119 z "},"3":{"ha":663,"x_min":74,"x_max":578,"o":"m 197 488 q 331 672 264 581 q 465 857 399 764 l 100 857 l 100 907 l 556 907 q 427 734 492 819 q 300 561 363 649 q 409 535 358 558 q 497 475 460 513 q 556 388 535 438 q 578 278 578 338 q 555 166 578 218 q 492 74 532 114 q 400 12 453 35 q 288 -11 347 -11 q 168 15 222 -11 q 74 83 114 40 l 111 121 q 186 61 142 85 q 283 38 231 38 q 378 57 333 38 q 456 109 422 76 q 508 185 489 142 q 528 278 528 229 q 508 372 528 328 q 456 447 489 415 q 378 498 422 479 q 283 517 333 517 q 197 488 238 517 z "},"4":{"ha":731,"x_min":19,"x_max":674,"o":"m 488 778 q 304 538 399 660 q 119 299 210 415 l 488 299 l 488 778 m 19 249 q 278 583 147 415 q 539 918 410 751 l 539 299 l 674 299 l 674 249 l 539 249 l 539 0 l 488 0 l 488 249 l 19 249 z "},"5":{"ha":649,"x_min":79,"x_max":571,"o":"m 124 460 l 124 907 l 524 907 l 524 857 l 168 857 l 168 538 q 221 557 194 550 q 278 564 247 564 q 394 542 340 564 q 487 481 447 519 q 549 390 526 442 q 571 279 571 339 q 547 165 571 218 q 484 74 524 113 q 391 12 444 35 q 278 -11 338 -11 q 169 10 219 -11 q 79 69 118 32 l 117 104 q 188 55 147 72 q 276 38 229 38 q 371 57 326 38 q 449 109 415 76 q 501 185 482 142 q 521 278 521 229 q 501 369 521 326 q 449 444 482 413 q 371 495 415 476 q 276 514 326 514 q 191 500 232 514 q 124 460 150 486 z "},"6":{"ha":736,"x_min":79,"x_max":660,"o":"m 129 276 q 148 183 129 226 q 199 108 167 140 q 275 56 232 75 q 368 38 318 38 q 462 56 418 38 q 538 108 506 75 q 590 183 571 140 q 610 276 610 226 q 590 369 610 326 q 538 444 571 413 q 462 495 506 476 q 368 514 418 514 q 275 495 318 514 q 199 444 232 476 q 148 369 167 413 q 129 276 129 326 m 79 276 q 124 469 79 381 q 236 632 168 557 q 385 769 304 707 q 539 885 467 832 q 555 864 546 874 q 571 843 564 854 q 429 740 493 792 q 317 640 365 688 q 235 549 268 592 q 186 474 203 507 q 265 539 218 514 q 369 564 313 564 q 482 541 429 564 q 574 479 535 518 q 637 388 614 440 q 660 276 660 336 q 637 165 660 217 q 574 74 614 113 q 482 12 535 35 q 369 -11 429 -11 q 260 10 313 -11 q 168 69 208 31 q 103 160 128 107 q 79 276 79 213 z "},"7":{"ha":636,"x_min":50,"x_max":614,"o":"m 50 857 l 50 907 l 614 907 q 417 452 514 675 q 221 0 319 229 l 163 0 q 347 426 254 211 q 535 857 440 642 l 50 857 z "},"8":{"ha":738,"x_min":79,"x_max":660,"o":"m 207 707 q 219 650 207 676 q 254 605 232 624 q 306 576 276 586 q 368 565 335 565 q 479 605 435 565 q 524 707 524 644 q 512 768 524 739 q 479 819 500 797 q 430 855 458 842 q 368 868 401 868 q 305 855 335 868 q 253 819 275 842 q 219 768 232 797 q 207 707 207 739 m 131 278 q 149 185 131 229 q 199 109 167 142 q 274 57 231 76 q 365 38 317 38 q 460 57 415 38 q 538 109 504 76 q 590 185 571 142 q 610 278 610 229 q 590 369 610 326 q 538 444 571 413 q 461 495 506 476 q 367 514 417 514 q 275 496 318 514 q 200 446 232 478 q 149 371 168 414 q 131 278 131 328 m 79 276 q 94 369 79 326 q 135 447 110 413 q 197 506 161 482 q 274 543 232 531 q 189 610 221 565 q 157 711 157 656 q 173 792 157 754 q 217 858 189 829 q 283 902 246 886 q 364 918 321 918 q 445 901 407 918 q 511 857 483 885 q 556 790 539 829 q 572 708 572 751 q 542 610 572 654 q 460 543 513 567 q 538 506 501 531 q 602 448 575 482 q 644 370 629 414 q 660 276 660 326 q 638 165 660 218 q 576 74 615 113 q 483 12 536 35 q 367 -11 429 -11 q 253 12 306 -11 q 161 74 200 35 q 101 165 122 113 q 79 276 79 218 z "},"9":{"ha":736,"x_min":76,"x_max":657,"o":"m 657 597 q 612 405 657 493 q 499 242 567 317 q 350 104 431 167 q 197 -11 269 42 l 165 29 q 307 133 243 81 q 419 233 371 185 q 501 324 468 281 q 549 400 533 367 q 470 335 517 360 q 367 310 424 310 q 254 333 307 310 q 162 394 201 356 q 99 485 122 433 q 76 597 76 538 q 99 709 76 657 q 162 800 122 761 q 254 862 201 839 q 367 885 307 885 q 476 864 424 885 q 568 805 528 843 q 633 714 608 767 q 657 597 657 661 m 607 597 q 588 690 607 647 q 537 765 569 733 q 461 816 504 797 q 368 835 418 835 q 274 816 318 835 q 197 765 231 797 q 145 690 164 733 q 126 597 126 647 q 146 504 126 547 q 198 428 165 461 q 274 377 231 396 q 368 358 318 358 q 461 377 418 358 q 537 428 504 396 q 588 504 569 461 q 607 597 607 547 z "},"\u0000":{"ha":0,"x_min":0,"x_max":0,"o":""},"\r":{"ha":417,"x_min":0,"x_max":0,"o":""}," ":{"ha":350,"x_min":0,"x_max":0,"o":""},"t":{"ha":372,"x_min":21,"x_max":357,"o":"m 139 774 l 188 774 l 188 529 l 357 529 l 357 486 l 188 486 l 188 0 l 139 0 l 139 486 l 21 486 l 21 529 l 139 529 l 139 774 z "},"b":{"ha":717,"x_min":97,"x_max":661,"o":"m 661 269 q 640 160 661 211 q 581 71 618 108 q 492 12 543 33 q 381 -10 440 -10 q 235 33 299 -10 q 144 138 171 75 q 145 102 144 119 q 146 67 146 85 l 146 0 l 97 0 l 97 1053 l 146 1053 l 146 400 q 183 458 160 431 q 236 506 206 486 q 304 538 267 526 q 383 550 342 550 q 492 528 442 550 q 581 469 543 507 q 640 381 618 432 q 661 269 661 329 m 610 269 q 592 361 610 318 q 544 435 575 404 q 471 485 513 467 q 379 503 429 503 q 288 485 331 503 q 213 435 244 467 q 164 361 182 404 q 146 269 146 318 q 164 178 146 221 q 213 105 182 136 q 288 56 244 74 q 379 38 331 38 q 471 56 429 38 q 544 105 513 74 q 592 178 575 136 q 610 269 610 221 z "},"l":{"ha":254,"x_min":103,"x_max":151,"o":"m 151 0 l 103 0 l 103 1053 l 151 1053 l 151 0 z "},"m":{"ha":1026,"x_min":97,"x_max":935,"o":"m 97 538 l 136 538 q 137 511 136 532 q 138 467 138 490 q 140 423 139 443 q 140 399 140 403 q 228 507 169 465 q 368 549 286 549 q 485 509 440 549 q 538 406 531 469 q 626 509 569 469 q 763 549 683 549 q 887 504 842 549 q 935 389 932 460 l 935 0 l 886 0 l 886 381 q 851 464 883 429 q 758 501 819 499 q 675 487 714 501 q 606 447 636 472 q 558 385 576 421 q 539 307 540 350 l 539 0 l 492 0 l 492 381 q 456 464 489 429 q 364 501 424 499 q 278 486 318 501 q 209 444 239 471 q 162 381 179 418 q 144 300 144 343 l 144 0 l 97 0 l 97 538 z "},"i":{"ha":242,"x_min":81,"x_max":163,"o":"m 81 725 q 93 756 81 743 q 122 768 106 768 q 150 756 138 768 q 163 725 163 743 q 150 695 163 707 q 122 683 138 683 q 93 695 106 683 q 81 725 81 707 m 144 0 l 97 0 l 97 538 l 144 538 l 144 0 z "},"h":{"ha":635,"x_min":97,"x_max":543,"o":"m 97 1053 l 144 1053 l 144 407 q 231 509 172 469 q 371 549 290 549 q 494 505 449 550 q 543 389 540 460 l 543 0 l 494 0 l 494 381 q 460 464 492 429 q 367 501 428 499 q 281 486 321 501 q 210 444 240 471 q 163 381 181 418 q 144 300 144 343 l 144 0 l 97 0 l 97 1053 z "},"c":{"ha":557,"x_min":54,"x_max":513,"o":"m 481 88 q 497 70 489 79 q 511 51 504 61 q 431 7 475 24 q 335 -10 386 -10 q 225 13 276 -10 q 135 72 174 35 q 76 160 97 110 q 54 269 54 211 q 76 379 54 328 q 135 468 97 431 q 225 528 174 506 q 335 550 276 550 q 431 533 386 550 q 513 489 476 517 q 497 471 506 479 q 481 451 489 463 q 414 489 451 475 q 335 503 376 503 q 242 485 285 503 q 169 435 200 467 q 119 361 138 404 q 101 269 101 318 q 119 178 101 221 q 169 105 138 136 q 242 56 200 74 q 335 38 285 38 q 414 51 376 38 q 481 88 451 64 z "},"q":{"ha":717,"x_min":56,"x_max":619,"o":"m 104 269 q 122 178 104 221 q 172 105 140 136 q 246 56 203 74 q 338 38 289 38 q 429 56 386 38 q 503 105 472 74 q 553 178 535 136 q 571 269 571 221 q 553 361 571 318 q 503 435 535 404 q 429 485 472 467 q 338 503 386 503 q 246 485 289 503 q 172 435 203 467 q 122 361 140 404 q 104 269 104 318 m 56 269 q 77 381 56 329 q 137 469 99 432 q 226 528 175 507 q 335 550 276 550 q 415 538 378 550 q 483 506 453 526 q 535 458 513 485 q 571 400 558 431 q 571 440 571 417 q 572 483 571 463 q 572 519 572 504 q 572 538 572 535 l 619 538 l 619 -258 l 571 -258 l 571 65 q 572 103 571 85 q 574 139 574 121 q 482 33 544 76 q 333 -10 419 -10 q 223 13 274 -10 q 135 72 172 35 q 76 160 97 110 q 56 269 56 211 z "},"u":{"ha":635,"x_min":92,"x_max":538,"o":"m 538 -4 l 499 -4 l 494 140 q 404 31 465 72 q 263 -11 343 -11 q 140 34 185 -11 q 92 150 94 79 l 92 538 l 139 538 l 139 158 q 174 75 142 110 q 268 36 207 40 q 353 51 314 36 q 424 93 393 67 q 472 156 454 119 q 489 238 489 193 l 489 538 l 538 538 l 538 -4 z "},"r":{"ha":376,"x_min":97,"x_max":372,"o":"m 364 492 q 281 476 321 490 q 211 437 242 463 q 163 376 181 411 q 144 297 144 340 l 144 0 l 97 0 l 97 538 l 138 538 q 138 511 138 532 q 139 467 139 490 q 140 423 139 443 q 140 399 140 403 q 237 508 172 468 q 372 549 301 547 l 364 492 z "},"e":{"ha":611,"x_min":54,"x_max":579,"o":"m 531 65 q 442 10 493 31 q 335 -10 392 -10 q 225 13 276 -10 q 135 72 174 35 q 76 160 97 110 q 54 269 54 211 q 76 379 54 328 q 136 469 99 431 q 224 529 174 507 q 333 551 275 551 q 485 499 422 551 q 579 367 549 447 q 471 324 529 347 q 351 275 413 300 q 231 226 290 250 q 118 181 171 201 q 202 77 144 117 q 333 38 260 38 q 422 54 381 38 q 494 100 464 71 l 531 65 m 518 381 q 445 469 493 436 q 333 503 397 503 q 242 484 285 503 q 169 434 200 465 q 119 360 138 403 q 101 271 101 318 q 103 242 101 256 q 108 214 106 228 q 208 255 156 233 q 315 298 261 276 q 420 340 368 319 q 518 381 472 361 z "},"p":{"ha":717,"x_min":97,"x_max":661,"o":"m 610 269 q 592 361 610 318 q 544 435 575 404 q 471 485 513 467 q 379 503 429 503 q 288 485 331 503 q 213 435 244 467 q 164 361 182 404 q 146 269 146 318 q 164 178 146 221 q 213 105 182 136 q 288 56 244 74 q 379 38 331 38 q 471 56 429 38 q 544 105 513 74 q 592 178 575 136 q 610 269 610 221 m 661 269 q 640 160 661 211 q 581 71 618 108 q 492 12 543 33 q 381 -10 440 -10 q 235 33 299 -10 q 144 138 171 75 q 145 102 144 119 q 146 67 146 85 l 146 -258 l 97 -258 l 97 538 l 144 538 q 144 519 144 535 q 145 483 144 504 q 146 440 146 463 q 146 400 146 417 q 183 458 160 431 q 236 506 206 486 q 304 538 267 526 q 383 550 342 550 q 492 528 442 550 q 581 469 543 507 q 640 381 618 432 q 661 269 661 329 z "},"á":{"ha":714,"x_min":54,"x_max":617,"o":"m 54 268 q 76 378 54 326 q 136 467 99 429 q 224 528 174 506 q 333 550 275 550 q 413 538 375 550 q 481 506 450 526 q 534 458 511 485 q 569 400 557 431 q 571 469 569 435 q 575 538 572 504 l 617 538 l 617 0 l 569 0 l 569 138 q 483 33 546 76 q 333 -10 421 -10 q 223 13 274 -10 q 135 72 172 35 q 76 160 97 110 q 54 268 54 211 m 101 269 q 119 178 101 221 q 169 105 138 136 q 243 56 200 74 q 335 38 286 38 q 426 56 383 38 q 501 105 469 74 q 551 178 533 136 q 569 269 569 221 q 551 361 569 318 q 501 435 533 404 q 426 485 469 467 q 335 503 383 503 q 243 485 286 503 q 169 435 200 467 q 119 361 138 404 q 101 269 101 318 m 326 668 q 390 760 358 714 q 453 853 421 807 l 506 853 l 368 668 l 326 668 z "},"é":{"ha":611,"x_min":54,"x_max":579,"o":"m 531 65 q 442 10 493 31 q 335 -10 392 -10 q 225 13 276 -10 q 135 72 174 35 q 76 160 97 110 q 54 269 54 211 q 76 379 54 328 q 136 469 99 431 q 224 529 174 507 q 333 551 275 551 q 485 499 422 551 q 579 367 549 447 q 471 324 529 347 q 351 275 413 300 q 231 226 290 250 q 118 181 171 201 q 202 77 144 117 q 333 38 260 38 q 422 54 381 38 q 494 100 464 71 l 531 65 m 518 381 q 445 469 493 436 q 333 503 397 503 q 242 484 285 503 q 169 434 200 465 q 119 360 138 403 q 101 271 101 318 q 103 242 101 256 q 108 214 106 228 q 208 255 156 233 q 315 298 261 276 q 420 340 368 319 q 518 381 472 361 m 311 668 q 374 760 343 714 q 438 853 406 807 l 490 853 l 353 668 l 311 668 z "},"í":{"ha":242,"x_min":97,"x_max":276,"o":"m 144 0 l 97 0 l 97 538 l 144 538 l 144 0 m 97 668 q 160 760 129 714 q 224 853 192 807 l 276 853 l 139 668 l 97 668 z "},"ó":{"ha":674,"x_min":56,"x_max":619,"o":"m 56 269 q 78 379 56 328 q 138 469 100 431 q 228 529 176 507 q 338 551 279 551 q 447 529 396 551 q 537 469 499 507 q 597 379 575 431 q 619 269 619 328 q 597 160 619 211 q 537 72 575 110 q 447 13 499 35 q 336 -10 396 -10 q 226 12 278 -10 q 138 71 175 33 q 78 159 100 108 q 56 269 56 210 m 104 269 q 122 178 104 221 q 172 105 140 136 q 245 56 203 74 q 336 38 288 38 q 427 56 385 38 q 501 105 469 74 q 551 178 533 136 q 569 269 569 221 q 551 360 569 318 q 501 435 533 403 q 427 485 469 467 q 336 503 385 503 q 245 485 288 503 q 172 435 203 467 q 122 360 140 403 q 104 269 104 318 m 336 668 q 399 760 368 714 q 463 853 431 807 l 515 853 l 378 668 l 336 668 z "},"ú":{"ha":635,"x_min":92,"x_max":538,"o":"m 538 -4 l 499 -4 l 494 140 q 404 31 465 72 q 263 -11 343 -11 q 140 34 185 -11 q 92 150 94 79 l 92 538 l 139 538 l 139 158 q 174 75 142 110 q 268 36 207 40 q 353 51 314 36 q 424 93 393 67 q 472 156 454 119 q 489 238 489 193 l 489 538 l 538 538 l 538 -4 m 318 668 q 381 760 350 714 q 444 853 413 807 l 497 853 l 360 668 l 318 668 z "},"ä":{"ha":714,"x_min":54,"x_max":617,"o":"m 54 268 q 76 378 54 326 q 136 467 99 429 q 224 528 174 506 q 333 550 275 550 q 413 538 375 550 q 481 506 450 526 q 534 458 511 485 q 569 400 557 431 q 571 469 569 435 q 575 538 572 504 l 617 538 l 617 0 l 569 0 l 569 138 q 483 33 546 76 q 333 -10 421 -10 q 223 13 274 -10 q 135 72 172 35 q 76 160 97 110 q 54 268 54 211 m 101 269 q 119 178 101 221 q 169 105 138 136 q 243 56 200 74 q 335 38 286 38 q 426 56 383 38 q 501 105 469 74 q 551 178 533 136 q 569 269 569 221 q 551 361 569 318 q 501 435 533 404 q 426 485 469 467 q 335 503 383 503 q 243 485 286 503 q 169 435 200 467 q 119 361 138 404 q 101 269 101 318 m 453 706 q 465 737 453 725 q 494 749 478 749 q 524 737 511 749 q 536 706 536 725 q 524 676 536 688 q 494 664 511 664 q 465 676 478 664 q 453 706 453 688 m 214 706 q 226 737 214 725 q 256 749 239 749 q 285 737 272 749 q 297 706 297 725 q 285 676 297 688 q 256 664 272 664 q 226 676 239 664 q 214 706 214 688 z "},"ë":{"ha":611,"x_min":54,"x_max":579,"o":"m 531 65 q 442 10 493 31 q 335 -10 392 -10 q 225 13 276 -10 q 135 72 174 35 q 76 160 97 110 q 54 269 54 211 q 76 379 54 328 q 136 469 99 431 q 224 529 174 507 q 333 551 275 551 q 485 499 422 551 q 579 367 549 447 q 471 324 529 347 q 351 275 413 300 q 231 226 290 250 q 118 181 171 201 q 202 77 144 117 q 333 38 260 38 q 422 54 381 38 q 494 100 464 71 l 531 65 m 518 381 q 445 469 493 436 q 333 503 397 503 q 242 484 285 503 q 169 434 200 465 q 119 360 138 403 q 101 271 101 318 q 103 242 101 256 q 108 214 106 228 q 208 255 156 233 q 315 298 261 276 q 420 340 368 319 q 518 381 472 361 m 403 706 q 415 737 403 725 q 444 749 428 749 q 474 737 461 749 q 486 706 486 725 q 474 676 486 688 q 444 664 461 664 q 415 676 428 664 q 403 706 403 688 m 164 706 q 176 737 164 725 q 206 749 189 749 q 235 737 222 749 q 247 706 247 725 q 235 676 247 688 q 206 664 222 664 q 176 676 189 664 q 164 706 164 688 z "},"ö":{"ha":674,"x_min":56,"x_max":619,"o":"m 56 269 q 78 379 56 328 q 138 469 100 431 q 228 529 176 507 q 338 551 279 551 q 447 529 396 551 q 537 469 499 507 q 597 379 575 431 q 619 269 619 328 q 597 160 619 211 q 537 72 575 110 q 447 13 499 35 q 336 -10 396 -10 q 226 12 278 -10 q 138 71 175 33 q 78 159 100 108 q 56 269 56 210 m 104 269 q 122 178 104 221 q 172 105 140 136 q 245 56 203 74 q 336 38 288 38 q 427 56 385 38 q 501 105 469 74 q 551 178 533 136 q 569 269 569 221 q 551 360 569 318 q 501 435 533 403 q 427 485 469 467 q 336 503 385 503 q 245 485 288 503 q 172 435 203 467 q 122 360 140 403 q 104 269 104 318 m 424 706 q 436 737 424 725 q 465 749 449 749 q 494 737 482 749 q 507 706 507 725 q 494 676 507 688 q 465 664 482 664 q 436 676 449 664 q 424 706 424 688 m 185 706 q 197 737 185 725 q 226 749 210 749 q 256 737 243 749 q 268 706 268 725 q 256 676 268 688 q 226 664 243 664 q 197 676 210 664 q 185 706 185 688 z "},"ü":{"ha":635,"x_min":92,"x_max":538,"o":"m 538 -4 l 499 -4 l 494 140 q 404 31 465 72 q 263 -11 343 -11 q 140 34 185 -11 q 92 150 94 79 l 92 538 l 139 538 l 139 158 q 174 75 142 110 q 268 36 207 40 q 353 51 314 36 q 424 93 393 67 q 472 156 454 119 q 489 238 489 193 l 489 538 l 538 538 l 538 -4 m 440 706 q 453 737 440 725 q 482 749 465 749 q 511 737 499 749 q 524 706 524 725 q 511 676 524 688 q 482 664 499 664 q 453 676 465 664 q 440 706 440 688 m 201 706 q 214 737 201 725 q 243 749 226 749 q 272 737 260 749 q 285 706 285 725 q 272 676 285 688 q 243 664 260 664 q 214 676 226 664 q 201 706 201 688 z "},"à":{"ha":714,"x_min":54,"x_max":617,"o":"m 54 268 q 76 378 54 326 q 136 467 99 429 q 224 528 174 506 q 333 550 275 550 q 413 538 375 550 q 481 506 450 526 q 534 458 511 485 q 569 400 557 431 q 571 469 569 435 q 575 538 572 504 l 617 538 l 617 0 l 569 0 l 569 138 q 483 33 546 76 q 333 -10 421 -10 q 223 13 274 -10 q 135 72 172 35 q 76 160 97 110 q 54 268 54 211 m 101 269 q 119 178 101 221 q 169 105 138 136 q 243 56 200 74 q 335 38 286 38 q 426 56 383 38 q 501 105 469 74 q 551 178 533 136 q 569 269 569 221 q 551 361 569 318 q 501 435 533 404 q 426 485 469 467 q 335 503 383 503 q 243 485 286 503 q 169 435 200 467 q 119 361 138 404 q 101 269 101 318 m 254 853 l 379 668 l 339 668 l 201 853 l 254 853 z "},"è":{"ha":611,"x_min":54,"x_max":579,"o":"m 531 65 q 442 10 493 31 q 335 -10 392 -10 q 225 13 276 -10 q 135 72 174 35 q 76 160 97 110 q 54 269 54 211 q 76 379 54 328 q 136 469 99 431 q 224 529 174 507 q 333 551 275 551 q 485 499 422 551 q 579 367 549 447 q 471 324 529 347 q 351 275 413 300 q 231 226 290 250 q 118 181 171 201 q 202 77 144 117 q 333 38 260 38 q 422 54 381 38 q 494 100 464 71 l 531 65 m 518 381 q 445 469 493 436 q 333 503 397 503 q 242 484 285 503 q 169 434 200 465 q 119 360 138 403 q 101 271 101 318 q 103 242 101 256 q 108 214 106 228 q 208 255 156 233 q 315 298 261 276 q 420 340 368 319 q 518 381 472 361 m 213 853 l 338 668 l 297 668 l 160 853 l 213 853 z "},"ì":{"ha":242,"x_min":-22,"x_max":156,"o":"m 144 0 l 97 0 l 97 538 l 144 538 l 144 0 m 31 853 l 156 668 l 115 668 l -22 853 l 31 853 z "},"ò":{"ha":674,"x_min":56,"x_max":619,"o":"m 56 269 q 78 379 56 328 q 138 469 100 431 q 228 529 176 507 q 338 551 279 551 q 447 529 396 551 q 537 469 499 507 q 597 379 575 431 q 619 269 619 328 q 597 160 619 211 q 537 72 575 110 q 447 13 499 35 q 336 -10 396 -10 q 226 12 278 -10 q 138 71 175 33 q 78 159 100 108 q 56 269 56 210 m 104 269 q 122 178 104 221 q 172 105 140 136 q 245 56 203 74 q 336 38 288 38 q 427 56 385 38 q 501 105 469 74 q 551 178 533 136 q 569 269 569 221 q 551 360 569 318 q 501 435 533 403 q 427 485 469 467 q 336 503 385 503 q 245 485 288 503 q 172 435 203 467 q 122 360 140 403 q 104 269 104 318 m 218 853 l 343 668 l 303 668 l 165 853 l 218 853 z "},"ù":{"ha":635,"x_min":92,"x_max":538,"o":"m 538 -4 l 499 -4 l 494 140 q 404 31 465 72 q 263 -11 343 -11 q 140 34 185 -11 q 92 150 94 79 l 92 538 l 139 538 l 139 158 q 174 75 142 110 q 268 36 207 40 q 353 51 314 36 q 424 93 393 67 q 472 156 454 119 q 489 238 489 193 l 489 538 l 538 538 l 538 -4 m 278 853 l 403 668 l 363 668 l 225 853 l 278 853 z "},",":{"ha":313,"x_min":38,"x_max":204,"o":"m 204 119 l 85 -167 l 38 -167 q 92 -24 65 -94 q 146 119 118 47 l 204 119 z "},".":{"ha":267,"x_min":92,"x_max":175,"o":"m 92 42 q 104 72 92 60 q 133 85 117 85 q 163 72 150 85 q 175 42 175 60 q 163 12 175 24 q 133 0 150 0 q 104 12 117 0 q 92 42 92 24 z "},"f":{"ha":367,"x_min":36,"x_max":406,"o":"m 36 488 l 36 535 l 128 535 l 128 718 q 149 860 128 799 q 207 965 169 922 q 295 1028 244 1007 q 406 1053 346 1050 l 406 1006 q 314 985 356 1006 q 242 928 272 965 q 194 840 211 892 q 176 722 176 788 l 176 535 l 357 535 l 357 488 l 176 488 l 176 0 l 128 0 l 128 488 l 36 488 z "},"å":{"ha":714,"x_min":54,"x_max":617,"o":"m 54 268 q 76 378 54 326 q 136 467 99 429 q 224 528 174 506 q 333 550 275 550 q 413 538 375 550 q 481 506 450 526 q 534 458 511 485 q 569 400 557 431 q 571 469 569 435 q 575 538 572 504 l 617 538 l 617 0 l 569 0 l 569 138 q 483 33 546 76 q 333 -10 421 -10 q 223 13 274 -10 q 135 72 172 35 q 76 160 97 110 q 54 268 54 211 m 101 269 q 119 178 101 221 q 169 105 138 136 q 243 56 200 74 q 335 38 286 38 q 426 56 383 38 q 501 105 469 74 q 551 178 533 136 q 569 269 569 221 q 551 361 569 318 q 501 435 533 404 q 426 485 469 467 q 335 503 383 503 q 243 485 286 503 q 169 435 200 467 q 119 361 138 404 q 101 269 101 318 m 247 681 q 276 749 247 721 q 344 778 304 778 q 413 749 385 778 q 440 681 440 721 q 413 613 440 640 q 344 585 385 585 q 276 613 304 585 q 247 681 247 640 m 282 681 q 300 637 282 656 q 344 618 318 618 q 388 637 369 618 q 407 681 407 656 q 388 724 407 706 q 344 743 369 743 q 300 724 318 743 q 282 681 282 706 z "},"v":{"ha":567,"x_min":19,"x_max":547,"o":"m 283 -33 q 215 110 247 39 q 151 253 182 182 q 88 395 119 324 q 19 538 56 467 l 71 538 q 136 401 108 464 q 188 281 164 338 q 235 169 213 224 q 283 61 258 115 q 331 169 308 115 q 377 280 353 222 q 429 401 401 338 q 494 538 457 464 l 547 538 q 415 253 475 394 q 283 -33 356 111 z "},"j":{"ha":242,"x_min":18,"x_max":164,"o":"m 54 -258 l 18 -225 q 76 -134 54 -187 q 97 -10 97 -81 l 97 538 l 144 538 l 144 -7 q 120 -153 144 -90 q 54 -258 96 -217 m 81 725 q 93 756 81 743 q 122 768 106 768 q 151 756 139 768 q 164 725 164 743 q 151 695 164 707 q 122 683 139 683 q 93 695 106 683 q 81 725 81 707 z "},"s":{"ha":442,"x_min":50,"x_max":389,"o":"m 368 485 l 340 451 q 289 485 324 472 q 224 499 254 499 q 188 494 207 499 q 154 478 169 489 q 128 449 139 467 q 118 407 118 432 q 138 351 118 372 q 188 316 158 331 q 253 290 218 301 q 319 261 289 278 q 369 217 349 244 q 389 147 389 190 q 378 87 389 115 q 344 36 367 58 q 291 1 322 14 q 218 -11 260 -11 q 128 4 175 -11 q 50 56 81 19 q 69 76 58 64 q 82 90 79 88 q 104 71 89 81 q 140 53 119 61 q 181 41 160 46 q 219 36 201 36 q 257 42 236 36 q 297 60 278 47 q 328 93 315 72 q 342 143 342 114 q 322 201 342 179 q 271 236 301 222 q 206 261 240 250 q 140 290 171 272 q 90 334 110 307 q 69 406 69 361 q 83 468 69 442 q 119 512 97 494 q 167 538 140 529 q 222 546 194 546 q 297 532 256 546 q 368 485 338 518 z "},"k":{"ha":533,"x_min":97,"x_max":517,"o":"m 450 551 l 479 521 l 276 329 q 397 165 338 246 q 517 0 457 83 l 460 0 q 351 149 406 75 q 242 297 296 222 l 144 206 l 144 0 l 97 0 l 97 1053 l 144 1053 l 144 267 q 297 409 224 340 q 450 551 371 478 z "},"y":{"ha":582,"x_min":21,"x_max":560,"o":"m 201 -258 l 149 -258 q 178 -194 165 -224 q 202 -133 190 -164 q 228 -69 214 -103 q 261 11 242 -35 q 142 274 197 140 q 21 538 86 407 l 72 538 q 139 399 110 464 q 193 275 168 335 q 242 160 218 215 q 290 50 265 104 q 339 160 315 104 q 388 274 363 215 q 441 399 413 333 q 507 538 469 464 l 560 538 l 201 -258 z "},"ø":{"ha":672,"x_min":51,"x_max":615,"o":"m 51 269 q 74 379 51 328 q 134 469 96 431 q 224 529 172 507 q 333 551 275 551 q 493 501 424 551 l 533 549 l 560 525 l 521 479 q 590 386 565 440 q 615 269 615 332 q 593 160 615 211 q 533 72 571 110 q 443 13 494 35 q 332 -10 392 -10 q 237 6 282 -10 q 156 50 192 22 l 104 -10 l 81 15 l 131 74 q 72 161 93 111 q 51 269 51 211 m 188 88 q 332 38 249 38 q 423 56 381 38 q 497 105 465 74 q 547 178 529 136 q 565 269 565 221 q 545 365 565 321 q 489 442 525 410 q 418 358 457 403 q 340 265 379 313 q 260 172 300 218 q 188 88 221 126 m 100 269 q 116 183 100 224 q 161 111 132 142 q 233 196 194 150 q 312 288 272 242 q 390 380 351 335 q 461 464 429 425 q 332 503 406 503 q 241 485 283 503 q 167 435 199 467 q 118 360 136 403 q 100 269 100 318 z "},"w":{"ha":879,"x_min":22,"x_max":860,"o":"m 411 403 l 351 538 l 394 538 q 509 281 458 396 q 604 61 560 165 q 651 174 626 118 q 700 287 675 229 q 753 406 725 344 q 811 538 781 468 l 860 538 q 731 251 794 394 q 604 -33 667 107 q 519 161 560 65 q 435 356 479 257 l 274 -33 l 22 538 l 71 538 q 128 406 101 468 q 180 287 156 344 q 227 174 204 229 q 274 61 250 118 q 335 215 303 135 q 411 403 367 296 z "},"x":{"ha":514,"x_min":33,"x_max":483,"o":"m 226 274 q 129 406 178 340 q 33 538 81 471 l 92 538 q 175 424 135 478 q 257 310 215 369 q 339 424 299 369 q 421 538 379 478 l 475 538 q 380 404 426 467 q 285 271 333 342 q 385 135 333 204 q 483 0 436 67 l 425 0 q 340 115 382 58 q 253 231 297 172 q 172 115 213 172 q 89 0 131 58 l 33 0 l 226 274 z "},"z":{"ha":517,"x_min":39,"x_max":478,"o":"m 472 0 l 39 0 l 392 494 l 131 494 q 63 510 86 494 q 39 568 39 526 l 39 589 l 83 589 l 83 571 q 129 538 83 538 l 478 538 l 128 47 l 472 47 l 472 0 z "},"o":{"ha":674,"x_min":56,"x_max":619,"o":"m 56 269 q 78 379 56 328 q 138 469 100 431 q 228 529 176 507 q 338 551 279 551 q 447 529 396 551 q 537 469 499 507 q 597 379 575 431 q 619 269 619 328 q 597 160 619 211 q 537 72 575 110 q 447 13 499 35 q 336 -10 396 -10 q 226 12 278 -10 q 138 71 175 33 q 78 159 100 108 q 56 269 56 210 m 104 269 q 122 178 104 221 q 172 105 140 136 q 245 56 203 74 q 336 38 288 38 q 427 56 385 38 q 501 105 469 74 q 551 178 533 136 q 569 269 569 221 q 551 360 569 318 q 501 435 533 403 q 427 485 469 467 q 336 503 385 503 q 245 485 288 503 q 172 435 203 467 q 122 360 140 403 q 104 269 104 318 z "},"æ":{"ha":889,"x_min":51,"x_max":856,"o":"m 474 119 q 468 103 471 111 q 463 89 465 96 q 531 51 493 65 q 610 38 568 38 q 699 54 657 38 q 771 100 740 71 l 807 65 q 719 10 769 31 q 611 -10 668 -10 q 515 6 560 -10 q 435 51 471 22 q 355 4 403 19 q 250 -11 307 -11 q 165 2 201 -11 q 103 38 128 15 q 65 88 78 60 q 51 149 51 117 q 67 209 51 183 q 108 252 83 235 q 164 278 133 269 q 224 286 194 286 l 331 286 q 352 379 333 335 q 403 458 371 424 q 349 490 383 479 q 263 501 315 501 q 160 488 199 501 q 93 454 122 474 l 71 494 q 155 534 104 518 q 272 550 206 550 q 374 535 333 550 q 439 492 415 519 q 518 535 475 519 q 610 551 561 551 q 762 499 699 551 q 856 367 825 447 q 747 324 806 347 q 628 275 689 300 q 507 226 567 250 q 394 181 447 201 q 428 124 407 149 q 433 144 431 131 l 474 119 m 794 381 q 722 469 769 436 q 610 503 674 503 q 519 484 561 503 q 445 434 476 465 q 396 360 414 403 q 378 271 378 318 q 380 242 378 256 q 385 214 382 228 q 485 255 432 233 q 591 298 538 276 q 697 340 644 319 q 794 381 749 361 m 100 153 q 114 98 100 119 q 151 63 128 76 q 202 43 174 49 q 260 38 231 38 q 342 50 307 38 q 400 83 378 63 q 353 156 371 115 q 331 244 335 197 l 260 244 q 181 236 213 244 q 132 215 150 228 q 107 185 114 201 q 100 153 100 169 z "},"A":{"ha":889,"x_min":29,"x_max":861,"o":"m 803 0 q 726 189 767 88 q 643 399 685 290 l 246 399 q 164 189 204 290 q 88 0 124 88 l 29 0 q 92 151 58 68 q 163 326 126 235 q 238 513 200 418 q 312 700 275 608 q 383 876 349 792 q 446 1028 417 960 q 508 876 474 960 q 578 700 542 792 q 653 513 615 608 q 727 326 690 418 q 798 151 764 235 q 861 0 832 68 l 803 0 m 432 865 q 351 667 393 774 q 265 449 310 561 l 624 449 q 538 667 581 561 q 458 865 496 774 l 446 906 q 439 883 443 894 q 432 865 435 872 z "},"ï":{"ha":242,"x_min":-37,"x_max":285,"o":"m 144 0 l 97 0 l 97 538 l 144 538 l 144 0 m 201 706 q 214 737 201 725 q 243 749 226 749 q 272 737 260 749 q 285 706 285 725 q 272 676 285 688 q 243 664 260 664 q 214 676 226 664 q 201 706 201 688 m -37 706 q -25 737 -37 725 q 4 749 -12 749 q 33 737 21 749 q 46 706 46 725 q 33 676 46 688 q 4 664 21 664 q -25 676 -12 664 q -37 706 -37 688 z "},"ý":{"ha":582,"x_min":21,"x_max":560,"o":"m 201 -258 l 149 -258 q 178 -194 165 -224 q 202 -133 190 -164 q 228 -69 214 -103 q 261 11 242 -35 q 142 274 197 140 q 21 538 86 407 l 72 538 q 139 399 110 464 q 193 275 168 335 q 242 160 218 215 q 290 50 265 104 q 339 160 315 104 q 388 274 363 215 q 441 399 413 333 q 507 538 469 464 l 560 538 l 201 -258 m 289 668 q 352 760 321 714 q 415 853 383 807 l 468 853 l 331 668 l 289 668 z "},"ÿ":{"ha":583,"x_min":21,"x_max":560,"o":"m 201 -258 l 149 -258 q 178 -194 165 -224 q 202 -133 190 -164 q 228 -69 214 -103 q 261 11 242 -35 q 142 274 197 140 q 21 538 86 407 l 72 538 q 139 399 110 464 q 193 275 168 335 q 242 160 218 215 q 290 50 265 104 q 339 160 315 104 q 388 274 363 215 q 441 399 413 333 q 507 538 469 464 l 560 538 l 201 -258 m 392 706 q 404 737 392 725 q 433 749 417 749 q 463 737 450 749 q 475 706 475 725 q 463 676 475 688 q 433 664 450 664 q 404 676 417 664 q 392 706 392 688 m 153 706 q 165 737 153 725 q 194 749 178 749 q 224 737 211 749 q 236 706 236 725 q 224 676 236 688 q 194 664 211 664 q 165 676 178 664 q 153 706 153 688 z "},"B":{"ha":796,"x_min":154,"x_max":708,"o":"m 213 929 l 213 518 l 397 518 q 549 578 497 518 q 601 731 601 638 q 585 821 601 783 q 539 883 568 858 q 469 918 510 907 q 379 929 428 929 l 213 929 m 213 468 l 213 53 l 400 53 q 497 65 451 53 q 578 103 543 78 q 633 168 613 129 q 653 258 653 207 q 629 353 653 314 q 567 419 606 393 q 478 456 528 444 q 375 468 428 468 l 213 468 m 154 0 l 154 982 l 365 982 q 485 968 431 982 q 577 924 539 954 q 637 847 615 894 q 658 731 658 799 q 650 653 658 690 q 623 585 642 617 q 574 531 604 554 q 500 494 543 507 q 578 467 540 486 q 644 419 615 449 q 691 349 674 390 q 708 256 708 308 q 683 144 708 192 q 615 64 657 96 q 517 16 572 32 q 404 0 463 0 l 154 0 z "},"D":{"ha":988,"x_min":154,"x_max":910,"o":"m 154 982 l 368 982 q 619 937 517 982 q 787 820 722 892 q 881 660 851 749 q 910 488 910 572 q 870 285 910 375 q 763 132 831 196 q 606 34 696 68 q 415 0 515 0 l 154 0 l 154 982 m 415 56 q 585 85 506 56 q 724 172 665 115 q 818 308 783 228 q 853 490 853 389 q 824 651 853 572 q 738 790 796 729 q 593 888 681 851 q 389 925 506 925 l 211 925 l 211 56 l 415 56 z "},"E":{"ha":849,"x_min":154,"x_max":775,"o":"m 154 0 l 154 982 l 756 982 l 756 929 l 213 929 l 213 521 l 700 521 l 700 468 l 213 468 l 213 54 l 775 54 l 775 0 l 154 0 z "},"H":{"ha":1028,"x_min":154,"x_max":876,"o":"m 154 0 l 154 982 l 211 982 l 211 522 l 815 522 l 815 982 l 876 982 l 872 0 l 815 0 l 815 468 l 211 468 l 211 0 l 154 0 z "},"I":{"ha":365,"x_min":154,"x_max":211,"o":"m 154 982 l 211 982 l 211 0 l 154 0 l 154 982 z "},"J":{"ha":374,"x_min":-68,"x_max":222,"o":"m -68 -200 l -68 -146 q 25 -123 -18 -143 q 99 -65 68 -103 q 148 25 131 -28 q 165 147 165 78 l 165 982 l 222 982 l 222 143 q 200 -2 222 61 q 138 -108 178 -65 q 46 -175 99 -151 q -68 -200 -7 -199 z "},"K":{"ha":840,"x_min":154,"x_max":838,"o":"m 765 0 q 551 272 656 139 q 339 544 447 406 l 215 428 q 216 214 215 319 q 217 0 217 108 l 154 0 l 154 982 l 217 982 l 217 538 q 215 516 217 526 q 214 494 214 506 l 239 525 q 475 753 358 638 q 711 982 592 869 l 788 982 l 382 583 q 610 292 500 436 q 838 0 721 149 l 765 0 z "},"M":{"ha":1243,"x_min":154,"x_max":1089,"o":"m 154 1026 q 268 859 206 949 q 393 680 331 769 q 515 506 456 590 q 621 356 574 422 q 668 424 638 379 q 738 526 699 468 q 824 649 778 583 q 916 782 869 715 q 1007 912 963 849 q 1089 1026 1051 975 l 1089 0 l 1029 0 l 1029 801 q 1030 830 1029 815 q 1031 857 1031 844 q 927 710 982 790 q 817 549 872 631 q 712 392 763 468 q 621 256 661 315 q 559 340 596 289 q 481 451 522 392 q 397 574 440 511 q 317 693 354 638 q 251 792 279 749 q 208 857 222 836 q 210 830 208 844 q 211 801 211 815 l 211 0 l 154 0 l 154 1026 z "},"N":{"ha":1128,"x_min":154,"x_max":974,"o":"m 974 982 l 974 -44 q 796 171 894 54 q 597 408 697 288 q 401 645 496 529 q 235 857 307 761 l 208 893 l 213 849 l 213 0 l 154 0 l 154 1028 q 331 810 235 926 q 528 574 428 693 q 723 339 628 454 q 894 126 818 224 l 921 90 l 917 135 l 917 982 l 974 982 z "},"P":{"ha":739,"x_min":154,"x_max":674,"o":"m 213 476 l 365 476 q 488 500 439 476 q 565 559 536 524 q 604 635 593 594 q 615 710 615 676 q 598 795 615 756 q 548 865 581 835 q 469 911 515 894 q 367 928 424 928 l 213 928 l 213 476 m 154 0 l 154 982 l 372 982 q 477 967 424 982 q 574 919 531 951 q 646 834 618 886 q 674 708 674 782 q 656 603 674 654 q 601 510 639 551 q 505 445 564 469 q 364 421 446 421 l 213 421 l 213 0 l 154 0 z "},"R":{"ha":813,"x_min":154,"x_max":775,"o":"m 154 0 l 154 982 l 372 982 q 477 967 424 982 q 574 919 531 951 q 646 834 618 886 q 674 708 674 782 q 633 553 674 626 q 504 444 593 481 q 536 392 514 429 q 586 310 558 356 q 644 213 614 264 q 702 118 675 163 q 749 42 729 74 q 775 0 768 10 l 706 0 q 683 38 700 8 q 641 107 665 67 q 588 194 617 147 q 533 285 560 240 q 483 367 506 329 q 446 428 460 406 q 406 423 426 425 q 364 421 386 421 l 213 421 l 213 0 l 154 0 m 213 476 l 365 476 q 488 501 439 476 q 565 561 536 525 q 604 638 593 597 q 615 713 615 679 q 598 796 615 757 q 548 864 581 835 q 469 910 515 893 q 367 928 424 928 l 213 928 l 213 476 z "},"U":{"ha":947,"x_min":140,"x_max":807,"o":"m 474 -11 q 342 11 403 -11 q 236 76 281 33 q 166 183 192 119 q 140 326 140 246 l 140 982 l 199 982 l 199 331 q 219 210 199 264 q 276 119 240 157 q 363 63 313 82 q 474 43 414 43 q 583 63 532 43 q 670 119 633 82 q 728 210 707 157 q 749 331 749 264 l 749 982 l 807 982 l 807 326 q 781 183 807 246 q 710 76 756 119 q 605 11 665 33 q 474 -11 544 -11 z "},"Y":{"ha":850,"x_min":29,"x_max":819,"o":"m 454 354 l 454 0 l 396 0 l 396 354 q 311 498 360 415 q 213 668 263 581 q 114 838 163 756 q 29 982 65 921 l 94 982 q 167 860 128 926 q 248 722 207 793 q 330 580 289 651 q 408 443 371 508 l 426 404 l 442 443 q 521 580 479 508 q 603 722 563 651 q 682 860 643 793 q 754 982 721 926 l 819 982 l 454 354 z "},"~":{"ha":650,"x_min":121,"x_max":532,"o":"m 314 686 q 275 718 292 710 q 239 726 258 726 q 215 724 228 726 q 188 713 201 721 q 165 690 175 704 q 153 653 156 675 l 121 657 q 133 703 122 683 q 161 735 144 722 q 199 753 178 747 q 239 760 219 760 q 292 746 268 760 q 339 708 317 732 q 378 676 361 685 q 414 668 394 668 q 438 671 424 668 q 465 682 451 674 q 488 705 478 690 q 500 742 497 719 l 532 738 q 519 692 531 711 q 492 661 508 674 q 454 642 475 649 q 414 636 433 636 q 360 649 385 636 q 314 686 336 663 z "},"ñ":{"ha":635,"x_min":97,"x_max":543,"o":"m 97 538 l 138 538 q 138 511 138 532 q 139 467 139 490 q 140 423 139 443 q 140 399 140 403 q 231 507 169 465 q 372 549 292 549 q 495 504 450 549 q 543 389 540 460 l 543 0 l 494 0 l 494 381 q 460 464 492 429 q 367 501 428 499 q 281 486 321 501 q 210 444 240 471 q 163 381 181 418 q 144 300 144 343 l 144 0 l 97 0 l 97 538 m 321 683 q 282 715 299 707 q 246 724 265 724 q 222 721 235 724 q 195 710 208 718 q 172 687 182 701 q 160 650 163 672 l 128 654 q 140 700 129 681 q 168 732 151 719 q 206 751 185 744 q 246 757 226 757 q 299 743 275 757 q 346 706 324 729 q 385 674 368 682 q 421 665 401 665 q 444 668 431 665 q 472 679 458 671 q 494 702 485 688 q 507 739 504 717 l 539 735 q 526 690 538 708 q 499 658 515 671 q 461 640 482 646 q 421 633 440 633 q 367 647 392 633 q 321 683 343 660 z "},"F":{"ha":758,"x_min":154,"x_max":699,"o":"m 154 0 l 154 982 l 699 982 l 699 928 l 213 928 l 213 508 l 644 508 l 644 454 l 213 454 l 213 0 l 154 0 z "},"L":{"ha":772,"x_min":154,"x_max":757,"o":"m 154 0 l 154 982 l 213 982 l 213 56 l 757 56 l 757 0 l 154 0 z "},"C":{"ha":894,"x_min":76,"x_max":844,"o":"m 844 63 q 727 10 796 32 q 572 -11 658 -11 q 368 28 460 -11 q 212 136 276 68 q 112 294 147 204 q 76 485 76 385 q 116 685 76 593 q 224 847 156 778 q 384 954 293 915 q 579 993 475 993 q 722 974 654 993 q 839 924 790 956 q 826 903 831 911 q 811 878 822 896 q 702 924 763 908 q 582 939 642 939 q 407 903 489 939 q 265 806 325 868 q 169 663 204 744 q 133 488 133 581 q 165 320 133 400 q 253 180 196 240 q 392 83 311 119 q 572 47 474 47 q 713 67 649 47 q 818 114 776 88 l 844 63 z "},"Q":{"ha":1161,"x_min":75,"x_max":1111,"o":"m 75 490 q 115 685 75 594 q 222 845 154 776 q 381 953 290 914 q 576 993 472 993 q 772 953 681 993 q 933 845 864 914 q 1041 685 1001 776 q 1081 490 1081 594 q 1060 351 1081 418 q 1004 228 1040 285 q 917 126 968 171 q 807 51 867 81 l 1111 56 l 1111 0 l 681 0 q 576 -11 625 -11 q 381 28 472 -11 q 222 136 290 68 q 115 295 154 204 q 75 490 75 386 m 133 489 q 168 316 133 397 q 263 174 203 235 q 403 78 322 114 q 575 43 483 43 q 748 78 667 43 q 891 174 829 114 q 988 316 953 235 q 1024 490 1024 397 q 988 664 1024 582 q 892 806 953 746 q 749 902 831 867 q 576 938 668 938 q 404 902 485 938 q 263 806 324 867 q 168 663 203 744 q 133 489 133 582 z "},"T":{"ha":713,"x_min":57,"x_max":656,"o":"m 656 982 l 656 926 l 383 926 l 383 0 l 326 0 l 326 926 l 57 926 l 57 982 l 656 982 z "},"‹":{"ha":394,"x_min":67,"x_max":306,"o":"m 306 96 l 67 333 q 122 387 90 356 q 186 451 153 418 q 251 515 219 483 q 306 569 282 546 l 306 511 q 221 422 265 471 q 136 333 176 374 q 221 244 176 293 q 306 154 265 194 l 306 96 z "},">":{"ha":775,"x_min":115,"x_max":725,"o":"m 115 -21 l 115 44 l 614 332 l 115 619 l 115 685 l 725 332 l 115 -21 z "},"<":{"ha":775,"x_min":50,"x_max":660,"o":"m 660 44 l 660 -21 l 50 332 l 660 685 l 660 619 l 161 332 l 660 44 z "},"=":{"ha":914,"x_min":104,"x_max":810,"o":"m 810 242 l 810 192 l 104 192 l 104 242 l 810 242 m 810 513 l 810 463 l 104 463 l 104 513 l 810 513 z "},"@":{"ha":1286,"x_min":71,"x_max":1196,"o":"m 333 268 q 356 378 333 326 q 415 467 378 429 q 503 528 453 506 q 613 550 554 550 q 692 538 654 550 q 760 506 729 526 q 813 458 790 485 q 849 400 836 431 q 850 469 849 435 q 854 538 851 504 l 896 538 l 896 44 l 994 44 q 1054 58 1026 44 q 1103 101 1082 72 q 1136 176 1124 131 q 1149 283 1149 221 q 1110 476 1149 385 q 1005 636 1072 568 q 844 744 938 704 q 639 785 750 785 q 428 742 524 785 q 263 628 332 700 q 156 462 194 556 q 118 267 118 368 q 158 67 118 160 q 269 -97 199 -26 q 433 -207 339 -167 q 633 -247 526 -247 q 794 -222 718 -247 q 935 -151 871 -196 l 964 -185 q 808 -265 893 -237 q 632 -293 724 -293 q 415 -249 517 -293 q 236 -128 313 -204 q 115 50 160 -53 q 71 269 71 153 q 113 483 71 382 q 231 662 156 585 q 412 785 307 739 q 640 831 517 831 q 863 787 761 831 q 1040 668 965 743 q 1155 494 1114 593 q 1196 285 1196 394 q 1178 148 1196 203 q 1132 60 1161 93 q 1065 14 1103 28 q 988 0 1028 0 l 849 0 l 849 138 q 763 33 825 76 q 613 -10 700 -10 q 502 13 553 -10 q 414 72 451 35 q 355 160 376 110 q 333 268 333 211 m 381 269 q 399 178 381 221 q 448 105 417 136 q 522 56 479 74 q 614 38 565 38 q 706 56 663 38 q 781 105 749 74 q 831 178 813 136 q 849 269 849 221 q 831 361 849 318 q 781 435 813 404 q 706 485 749 467 q 614 503 663 503 q 522 485 565 503 q 448 435 479 467 q 399 361 417 404 q 381 269 381 318 z "},"?":{"ha":664,"x_min":51,"x_max":590,"o":"m 97 811 l 51 826 q 87 899 64 864 q 143 960 110 933 q 220 1004 176 988 q 317 1021 264 1021 q 424 999 374 1021 q 510 941 474 978 q 569 854 547 904 q 590 749 590 804 q 553 616 590 674 q 453 514 517 558 q 405 482 428 496 q 365 451 382 468 q 336 407 347 433 q 325 338 325 381 l 325 229 l 275 229 l 275 364 q 290 434 275 407 q 330 481 306 461 q 386 521 354 501 q 451 569 418 540 q 539 749 539 643 q 522 837 539 796 q 476 908 506 878 q 405 954 446 938 q 317 971 364 971 q 178 928 235 971 q 97 811 121 886 m 299 24 q 271 35 283 24 q 258 65 258 47 q 271 97 258 85 q 299 108 283 108 q 327 97 314 108 q 340 65 340 85 q 327 35 340 47 q 299 24 314 24 z "},"!":{"ha":328,"x_min":124,"x_max":206,"o":"m 139 1046 l 189 1046 l 189 232 l 139 232 l 139 1046 m 164 35 q 136 47 149 35 q 124 76 124 58 q 136 108 124 96 q 164 119 149 119 q 193 108 181 119 q 206 76 206 96 q 193 47 206 58 q 164 35 181 35 z "},":":{"ha":268,"x_min":92,"x_max":175,"o":"m 92 399 q 104 429 92 417 q 133 442 117 442 q 163 429 150 442 q 175 399 175 417 q 163 369 175 381 q 133 357 150 357 q 104 369 117 357 q 92 399 92 381 m 92 42 q 104 72 92 60 q 133 85 117 85 q 163 72 150 85 q 175 42 175 60 q 163 12 175 24 q 133 0 150 0 q 104 12 117 0 q 92 42 92 24 z "},";":{"ha":339,"x_min":36,"x_max":226,"o":"m 203 119 l 83 -167 l 36 -167 q 90 -24 64 -94 q 144 119 117 47 l 203 119 m 143 390 q 156 421 143 408 q 185 433 168 433 q 214 421 201 433 q 226 390 226 408 q 214 360 226 372 q 185 349 201 349 q 156 360 168 349 q 143 390 143 372 z "},"\"":{"ha":447,"x_min":106,"x_max":346,"o":"m 292 658 l 292 1004 l 346 1004 l 340 658 l 292 658 m 106 658 l 106 1004 l 160 1004 l 154 658 l 106 658 z "},"#":{"ha":790,"x_min":60,"x_max":729,"o":"m 433 0 q 451 149 443 75 q 468 297 460 222 l 263 297 q 244 149 253 222 q 228 0 236 75 l 176 0 q 194 149 186 75 q 211 297 203 222 l 60 297 l 65 347 l 218 347 l 242 551 l 92 551 l 96 601 l 249 601 q 266 749 257 676 q 285 897 275 822 l 335 897 l 299 601 l 504 601 q 523 749 514 676 q 540 897 532 822 l 592 897 l 556 601 l 729 601 q 728 576 729 589 q 725 551 726 564 l 550 551 q 538 449 543 500 q 525 347 532 399 l 699 347 l 693 297 l 518 297 l 485 0 l 433 0 m 293 551 l 268 347 l 475 347 l 499 551 l 293 551 z "},"%":{"ha":897,"x_min":65,"x_max":839,"o":"m 567 156 q 599 78 567 110 q 678 46 631 46 q 757 78 725 46 q 789 156 789 110 q 757 234 789 201 q 678 267 725 267 q 599 234 631 267 q 567 156 567 201 m 678 -3 q 615 10 644 -3 q 565 44 586 22 q 530 94 543 65 q 517 157 517 124 q 530 219 517 190 q 565 269 543 247 q 615 303 586 290 q 678 315 644 315 q 739 303 710 315 q 790 269 768 290 q 826 219 813 247 q 839 157 839 190 q 826 94 839 124 q 790 44 813 65 q 739 10 768 22 q 678 -3 710 -3 m 115 542 q 147 464 115 496 q 226 432 179 432 q 306 464 274 432 q 338 542 338 496 q 306 619 338 588 q 226 651 274 651 q 147 619 179 651 q 115 542 115 588 m 226 382 q 164 394 193 382 q 113 428 135 407 q 78 480 90 450 q 65 543 65 510 q 78 605 65 576 q 113 655 90 633 q 164 689 135 676 q 226 701 193 701 q 288 689 258 701 q 339 655 317 676 q 374 605 361 633 q 388 543 388 576 q 374 480 388 510 q 339 428 361 450 q 288 394 317 407 q 226 382 258 382 m 211 0 q 419 349 315 176 q 626 697 522 521 l 682 697 q 474 349 578 521 q 267 0 371 176 l 211 0 z "},"’":{"ha":253,"x_min":81,"x_max":178,"o":"m 104 794 l 81 822 q 123 892 110 850 q 126 982 136 933 l 167 992 q 161 883 178 935 q 104 794 144 832 z "},"(":{"ha":364,"x_min":65,"x_max":331,"o":"m 65 407 q 85 606 65 511 q 137 783 104 701 q 210 929 169 864 q 296 1042 251 994 l 331 1010 q 252 901 290 964 q 183 761 214 838 q 135 596 153 685 q 117 407 117 507 q 135 218 117 307 q 183 52 153 129 q 252 -87 214 -25 q 331 -196 290 -150 l 296 -228 q 210 -116 251 -182 q 137 31 169 -50 q 85 208 104 113 q 65 407 65 303 z "},")":{"ha":364,"x_min":33,"x_max":299,"o":"m 299 406 q 279 206 299 301 q 227 30 260 111 q 153 -117 194 -51 q 68 -229 111 -183 l 33 -197 q 112 -89 74 -151 q 181 50 150 -26 q 229 215 211 126 q 247 404 247 304 q 229 593 247 504 q 181 759 211 682 q 112 899 150 836 q 33 1007 74 961 l 68 1040 q 153 928 111 993 q 227 781 194 863 q 279 605 260 700 q 299 406 299 510 z "},"*":{"ha":551,"x_min":93,"x_max":458,"o":"m 315 799 l 457 718 l 435 681 l 294 764 l 292 603 l 254 603 l 254 764 l 115 683 l 93 721 l 233 800 l 93 883 q 103 900 99 892 q 113 917 108 908 l 254 833 l 254 1000 l 297 1000 l 294 833 q 367 874 331 853 q 439 915 403 894 q 449 899 444 907 q 458 882 454 890 l 315 799 z "},"+":{"ha":647,"x_min":72,"x_max":575,"o":"m 299 71 l 299 299 l 72 299 l 72 347 l 299 347 l 299 574 l 349 574 l 349 347 l 575 347 l 575 299 l 349 299 l 349 71 l 299 71 z "},"|":{"ha":319,"x_min":135,"x_max":185,"o":"m 135 -324 l 135 976 l 185 976 l 185 -324 l 135 -324 z "},"{":{"ha":397,"x_min":46,"x_max":354,"o":"m 46 386 l 46 446 q 101 466 79 447 q 135 513 122 485 q 152 573 147 540 q 157 633 157 606 l 157 876 q 168 974 157 940 q 198 1022 179 1007 q 240 1038 217 1036 q 290 1040 264 1040 l 354 1040 l 354 990 l 281 990 q 222 958 236 990 q 207 839 207 925 l 207 639 q 199 542 207 581 q 178 479 192 504 q 149 440 165 454 q 115 417 132 426 q 149 392 132 407 q 178 353 165 378 q 199 290 192 328 q 207 194 207 251 l 207 -6 q 222 -124 207 -92 q 281 -157 236 -157 l 354 -157 l 354 -207 l 290 -207 q 237 -205 261 -207 q 194 -185 213 -203 q 167 -126 176 -167 q 157 -8 157 -86 l 157 199 q 152 259 157 226 q 135 319 147 292 q 101 366 122 347 q 46 386 79 385 z "},"}":{"ha":397,"x_min":43,"x_max":350,"o":"m 350 446 l 350 386 q 288 359 310 385 q 255 299 265 333 q 242 226 244 264 q 240 164 240 189 l 240 -42 q 229 -140 240 -107 q 199 -189 218 -174 q 156 -206 181 -204 q 106 -207 132 -207 l 43 -207 l 43 -157 l 117 -157 q 174 -124 160 -157 q 189 -6 189 -92 l 189 229 q 199 307 189 275 q 222 361 208 339 q 252 396 236 383 q 281 417 268 408 q 247 440 264 426 q 218 479 231 454 q 197 542 206 504 q 189 639 189 581 l 189 839 q 174 958 189 925 q 117 990 160 990 l 43 990 l 43 1040 l 106 1040 q 156 1039 132 1040 q 199 1023 181 1038 q 229 974 218 1008 q 240 876 240 940 l 240 668 q 242 606 240 643 q 255 533 244 568 q 288 473 265 499 q 350 446 310 447 z "},"-":{"ha":443,"x_min":93,"x_max":350,"o":"m 93 251 l 93 300 l 350 300 l 350 251 l 93 251 z "},"/":{"ha":556,"x_min":58,"x_max":497,"o":"m 58 -26 l 446 1026 l 497 1026 q 303 500 399 761 q 108 -26 207 239 l 58 -26 z "},"\\":{"ha":558,"x_min":58,"x_max":500,"o":"m 113 1026 q 307 500 211 761 q 500 -26 403 239 l 446 -26 q 251 500 347 239 q 58 1026 156 761 l 113 1026 z "},"G":{"ha":944,"x_min":76,"x_max":846,"o":"m 846 435 l 846 58 q 722 8 790 26 q 579 -11 654 -11 q 372 28 464 -11 q 213 133 279 67 q 112 290 147 200 q 76 485 76 381 q 117 685 76 592 q 226 847 157 778 q 386 954 294 915 q 582 993 478 993 q 721 975 653 993 q 846 924 789 957 l 817 876 q 705 922 767 906 q 581 939 643 939 q 408 903 489 939 q 267 806 328 868 q 170 662 206 744 q 135 486 135 579 q 166 314 135 394 q 256 173 197 233 q 395 78 314 113 q 576 43 476 43 q 688 56 632 43 q 792 96 743 69 l 792 385 l 565 385 l 565 435 l 846 435 z "},"V":{"ha":890,"x_min":29,"x_max":861,"o":"m 88 982 q 171 776 126 888 q 260 549 215 665 q 348 322 304 433 q 432 117 392 210 l 446 78 l 458 117 q 542 322 497 210 q 631 549 586 433 q 719 776 675 665 q 803 982 763 888 l 861 982 q 798 831 832 914 q 727 656 764 747 q 653 469 690 564 q 578 282 615 374 q 508 107 542 190 q 446 -44 474 24 q 383 107 417 24 q 312 282 349 190 q 238 469 275 374 q 163 656 200 564 q 92 831 126 747 q 29 982 58 914 l 88 982 z "},"S":{"ha":751,"x_min":58,"x_max":682,"o":"m 635 933 l 614 888 q 510 920 571 906 q 392 935 450 935 q 296 920 339 935 q 223 881 253 906 q 177 824 193 857 q 161 754 161 792 q 183 679 161 710 q 242 626 206 649 q 326 587 279 604 q 422 551 372 569 q 517 510 471 533 q 601 455 564 488 q 660 377 638 422 q 682 267 682 332 q 659 151 682 203 q 593 64 636 100 q 490 8 550 28 q 357 -11 431 -11 q 251 0 299 -11 q 165 27 203 11 q 101 59 128 43 q 58 83 74 75 l 86 135 q 140 103 108 119 q 206 74 171 88 q 281 53 242 61 q 358 44 319 44 q 450 58 403 44 q 536 98 497 71 q 600 167 575 125 q 625 268 625 210 q 603 363 625 324 q 544 428 581 401 q 460 476 507 456 q 365 514 414 496 q 269 551 315 532 q 185 597 222 571 q 126 660 149 624 q 104 749 104 696 q 124 841 104 797 q 181 917 144 885 q 269 969 218 950 q 383 988 321 988 q 451 983 415 988 q 521 970 486 978 q 585 953 556 963 q 635 933 615 943 z "},"Z":{"ha":872,"x_min":24,"x_max":838,"o":"m 160 982 l 801 982 l 124 56 l 838 56 l 838 0 l 24 0 q 183 222 94 99 q 363 473 271 346 q 542 721 454 600 q 701 935 631 842 l 157 935 q 88 949 113 935 q 63 1004 63 964 l 63 1032 l 118 1032 l 118 1014 q 127 990 118 999 q 160 982 136 982 z "},"W":{"ha":1300,"x_min":33,"x_max":1269,"o":"m 1269 981 q 1193 790 1235 894 q 1108 578 1151 686 q 1025 367 1065 471 q 951 177 985 263 q 895 33 918 92 q 867 -44 872 -26 l 656 513 l 644 542 q 640 525 643 539 q 636 513 639 519 q 561 303 597 406 q 529 212 546 258 q 496 119 513 165 q 464 32 479 74 q 436 -44 449 -10 q 235 468 331 214 q 33 981 139 722 l 97 981 q 162 818 126 907 q 233 638 197 729 q 303 458 269 546 q 364 300 338 371 q 408 183 390 229 q 428 126 425 136 q 429 119 428 125 q 433 106 431 113 q 437 94 435 100 q 439 88 439 89 l 451 125 q 459 149 451 126 q 478 205 467 171 q 506 283 490 239 q 536 371 521 326 q 618 610 572 476 q 553 789 582 710 q 528 856 540 822 q 506 915 515 889 q 490 960 496 942 q 483 981 483 978 l 540 981 q 667 644 607 806 q 719 503 692 575 q 771 362 746 431 q 817 233 796 293 q 854 126 839 172 l 867 88 l 878 126 q 898 183 881 136 q 942 301 915 231 q 1002 460 968 372 q 1072 640 1036 549 q 1144 819 1108 731 q 1210 981 1179 908 l 1269 981 z "},"X":{"ha":786,"x_min":32,"x_max":756,"o":"m 354 504 q 283 615 324 551 q 201 744 243 678 q 117 872 158 810 q 46 982 76 935 l 115 982 l 382 568 q 389 557 385 565 q 396 542 393 549 q 403 557 399 549 q 410 568 407 565 q 472 666 439 613 q 540 775 506 719 q 608 884 575 831 q 671 982 642 938 l 736 982 l 429 501 l 756 0 l 685 0 l 444 371 q 417 417 432 390 q 388 461 401 443 q 381 447 385 454 q 374 438 376 440 l 99 0 l 32 0 q 106 116 64 50 q 193 252 149 182 q 280 388 238 322 q 354 504 322 454 z "},"Æ":{"ha":908,"x_min":31,"x_max":846,"o":"m 428 0 l 428 399 l 247 399 q 165 189 206 290 q 89 0 125 88 l 31 0 q 125 229 74 101 q 230 490 176 357 q 334 752 283 624 q 428 982 385 881 l 826 982 l 826 929 l 482 929 l 482 521 l 771 521 l 771 468 l 482 468 l 482 54 l 846 54 l 846 0 l 428 0 m 428 851 q 349 658 390 763 q 267 446 308 554 l 428 446 l 428 851 z "},"Ñ":{"ha":1126,"x_min":153,"x_max":972,"o":"m 972 982 l 972 -44 q 794 171 893 54 q 595 408 696 288 q 400 645 494 529 q 233 857 306 761 l 207 893 l 211 849 l 211 0 l 153 0 l 153 1028 q 330 810 233 926 q 526 574 426 693 q 722 339 626 454 q 893 126 817 224 l 919 90 l 915 135 l 915 982 l 972 982 m 565 1097 q 526 1129 543 1121 q 490 1138 510 1138 q 466 1135 479 1138 q 440 1124 453 1132 q 417 1101 426 1115 q 404 1064 407 1086 l 372 1068 q 385 1114 374 1094 q 413 1146 396 1133 q 450 1165 429 1158 q 490 1171 471 1171 q 544 1157 519 1171 q 590 1119 568 1143 q 629 1088 613 1096 q 665 1079 646 1079 q 689 1082 675 1079 q 716 1093 703 1085 q 739 1116 729 1101 q 751 1153 749 1131 l 783 1149 q 771 1103 782 1122 q 743 1072 760 1085 q 706 1053 726 1060 q 665 1047 685 1047 q 612 1060 636 1047 q 565 1097 588 1074 z "},"Å":{"ha":889,"x_min":29,"x_max":861,"o":"m 803 0 q 726 189 767 88 q 643 399 685 290 l 246 399 q 164 189 204 290 q 88 0 124 88 l 29 0 q 92 151 58 68 q 163 326 126 235 q 238 513 200 418 q 312 700 275 608 q 383 876 349 792 q 446 1028 417 960 q 508 876 474 960 q 578 700 542 792 q 653 513 615 608 q 727 326 690 418 q 798 151 764 235 q 861 0 832 68 l 803 0 m 432 865 q 351 667 393 774 q 265 449 310 561 l 624 449 q 538 667 581 561 q 458 865 496 774 l 446 906 q 439 883 443 894 q 432 865 435 872 m 350 1164 q 378 1233 350 1204 q 447 1261 407 1261 q 515 1233 488 1261 q 543 1164 543 1204 q 515 1096 543 1124 q 447 1068 488 1068 q 378 1096 407 1068 q 350 1164 350 1124 m 385 1164 q 403 1120 385 1139 q 447 1101 421 1101 q 491 1120 472 1101 q 510 1164 510 1139 q 491 1208 510 1189 q 447 1226 472 1226 q 403 1208 421 1226 q 385 1164 385 1189 z "},"Á":{"ha":889,"x_min":29,"x_max":861,"o":"m 861 0 q 798 151 832 68 q 727 326 764 235 q 653 513 690 418 q 578 700 615 608 q 508 876 542 792 q 446 1028 474 960 q 383 876 417 960 q 312 700 349 792 q 238 513 275 608 q 163 326 200 418 q 92 151 126 235 q 29 0 58 68 l 88 0 q 164 189 124 88 q 246 399 204 290 l 643 399 q 726 189 685 290 q 803 0 767 88 l 861 0 m 432 865 q 439 883 435 872 q 446 906 443 894 l 458 865 q 538 667 496 774 q 624 449 581 561 l 265 449 q 351 667 310 561 q 432 865 393 774 m 418 1049 q 481 1141 450 1094 q 544 1233 513 1188 l 597 1233 l 460 1049 l 418 1049 z "},"É":{"ha":849,"x_min":154,"x_max":775,"o":"m 154 0 l 154 982 l 756 982 l 756 929 l 213 929 l 213 521 l 700 521 l 700 468 l 213 468 l 213 54 l 775 54 l 775 0 l 154 0 m 424 1049 q 487 1141 456 1094 q 550 1233 518 1188 l 603 1233 l 465 1049 l 424 1049 z "},"Í":{"ha":365,"x_min":140,"x_max":319,"o":"m 154 982 l 211 982 l 211 0 l 154 0 l 154 982 m 140 1049 q 203 1141 172 1094 q 267 1233 235 1188 l 319 1233 l 182 1049 l 140 1049 z "},"Ó":{"ha":1154,"x_min":75,"x_max":1079,"o":"m 75 490 q 115 685 75 594 q 222 845 154 776 q 380 953 289 914 q 575 993 471 993 q 771 953 679 993 q 931 845 863 914 q 1040 685 1000 776 q 1079 490 1079 594 q 1040 295 1079 386 q 931 136 1000 204 q 771 28 863 68 q 575 -11 679 -11 q 380 28 471 -11 q 222 136 289 68 q 115 295 154 204 q 75 490 75 386 m 132 489 q 167 316 132 397 q 262 174 201 235 q 402 78 322 114 q 574 43 482 43 q 747 78 665 43 q 890 174 829 114 q 987 316 951 235 q 1022 490 1022 397 q 987 664 1022 582 q 891 806 951 746 q 749 902 831 867 q 576 938 668 938 q 403 902 485 938 q 262 806 322 867 q 167 663 201 744 q 132 489 132 582 m 526 1049 q 590 1141 558 1094 q 653 1233 621 1188 l 706 1233 l 568 1049 l 526 1049 z "},"Ú":{"ha":950,"x_min":142,"x_max":808,"o":"m 475 -11 q 343 11 404 -11 q 238 76 282 33 q 167 183 193 119 q 142 326 142 246 l 142 982 l 200 982 l 200 331 q 221 210 200 264 q 278 119 242 157 q 365 63 314 82 q 475 43 415 43 q 584 63 533 43 q 672 119 635 82 q 729 210 708 157 q 750 331 750 264 l 750 982 l 808 982 l 808 326 q 783 183 808 246 q 712 76 757 119 q 606 11 667 33 q 475 -11 546 -11 m 438 1049 q 501 1141 469 1094 q 564 1233 532 1188 l 617 1233 l 479 1049 l 438 1049 z "},"Ä":{"ha":889,"x_min":29,"x_max":861,"o":"m 861 0 q 798 151 832 68 q 727 326 764 235 q 653 513 690 418 q 578 700 615 608 q 508 876 542 792 q 446 1028 474 960 q 383 876 417 960 q 312 700 349 792 q 238 513 275 608 q 163 326 200 418 q 92 151 126 235 q 29 0 58 68 l 88 0 q 164 189 124 88 q 246 399 204 290 l 643 399 q 726 189 685 290 q 803 0 767 88 l 861 0 m 432 865 q 439 883 435 872 q 446 906 443 894 l 458 865 q 538 667 496 774 q 624 449 581 561 l 265 449 q 351 667 310 561 q 432 865 393 774 m 524 1113 q 536 1144 524 1132 q 565 1156 549 1156 q 594 1144 582 1156 q 607 1113 607 1132 q 594 1083 607 1094 q 565 1071 582 1071 q 536 1083 549 1071 q 524 1113 524 1094 m 285 1113 q 297 1144 285 1132 q 326 1156 310 1156 q 356 1144 343 1156 q 368 1113 368 1132 q 356 1083 368 1094 q 326 1071 343 1071 q 297 1083 310 1071 q 285 1113 285 1094 z "},"Ë":{"ha":849,"x_min":154,"x_max":775,"o":"m 154 0 l 154 982 l 756 982 l 756 929 l 213 929 l 213 521 l 700 521 l 700 468 l 213 468 l 213 54 l 775 54 l 775 0 l 154 0 m 547 1113 q 560 1144 547 1132 q 589 1156 572 1156 q 618 1144 606 1156 q 631 1113 631 1132 q 618 1083 631 1094 q 589 1071 606 1071 q 560 1083 572 1071 q 547 1113 547 1094 m 308 1113 q 321 1144 308 1132 q 350 1156 333 1156 q 379 1144 367 1156 q 392 1113 392 1132 q 379 1083 392 1094 q 350 1071 367 1071 q 321 1083 333 1071 q 308 1113 308 1094 z "},"Ï":{"ha":365,"x_min":22,"x_max":344,"o":"m 154 982 l 211 982 l 211 0 l 154 0 l 154 982 m 261 1113 q 274 1144 261 1132 q 303 1156 286 1156 q 332 1144 319 1156 q 344 1113 344 1132 q 332 1083 344 1094 q 303 1071 319 1071 q 274 1083 286 1071 q 261 1113 261 1094 m 22 1113 q 35 1144 22 1132 q 64 1156 47 1156 q 93 1144 81 1156 q 106 1113 106 1132 q 93 1083 106 1094 q 64 1071 81 1071 q 35 1083 47 1071 q 22 1113 22 1094 z "},"Ö":{"ha":1154,"x_min":75,"x_max":1079,"o":"m 75 490 q 115 685 75 594 q 222 845 154 776 q 380 953 289 914 q 575 993 471 993 q 771 953 679 993 q 931 845 863 914 q 1040 685 1000 776 q 1079 490 1079 594 q 1040 295 1079 386 q 931 136 1000 204 q 771 28 863 68 q 575 -11 679 -11 q 380 28 471 -11 q 222 136 289 68 q 115 295 154 204 q 75 490 75 386 m 132 489 q 167 316 132 397 q 262 174 201 235 q 402 78 322 114 q 574 43 482 43 q 747 78 665 43 q 890 174 829 114 q 987 316 951 235 q 1022 490 1022 397 q 987 664 1022 582 q 891 806 951 746 q 749 902 831 867 q 576 938 668 938 q 403 902 485 938 q 262 806 322 867 q 167 663 201 744 q 132 489 132 582 m 647 1113 q 660 1144 647 1132 q 689 1156 672 1156 q 718 1144 706 1156 q 731 1113 731 1132 q 718 1083 731 1094 q 689 1071 706 1071 q 660 1083 672 1071 q 647 1113 647 1094 m 408 1113 q 421 1144 408 1132 q 450 1156 433 1156 q 479 1144 467 1156 q 492 1113 492 1132 q 479 1083 492 1094 q 450 1071 467 1071 q 421 1083 433 1071 q 408 1113 408 1094 z "},"Ü":{"ha":950,"x_min":142,"x_max":808,"o":"m 475 -11 q 343 11 404 -11 q 238 76 282 33 q 167 183 193 119 q 142 326 142 246 l 142 982 l 200 982 l 200 331 q 221 210 200 264 q 278 119 242 157 q 365 63 314 82 q 475 43 415 43 q 584 63 533 43 q 672 119 635 82 q 729 210 708 157 q 750 331 750 264 l 750 982 l 808 982 l 808 326 q 783 183 808 246 q 712 76 757 119 q 606 11 667 33 q 475 -11 546 -11 m 569 1113 q 582 1144 569 1132 q 611 1156 594 1156 q 640 1144 628 1156 q 653 1113 653 1132 q 640 1083 653 1094 q 611 1071 628 1071 q 582 1083 594 1071 q 569 1113 569 1094 m 331 1113 q 343 1144 331 1132 q 372 1156 356 1156 q 401 1144 389 1156 q 414 1113 414 1132 q 401 1083 414 1094 q 372 1071 389 1071 q 343 1083 356 1071 q 331 1113 331 1094 z "},"À":{"ha":889,"x_min":29,"x_max":861,"o":"m 861 0 q 798 151 832 68 q 727 326 764 235 q 653 513 690 418 q 578 700 615 608 q 508 876 542 792 q 446 1028 474 960 q 383 876 417 960 q 312 700 349 792 q 238 513 275 608 q 163 326 200 418 q 92 151 126 235 q 29 0 58 68 l 88 0 q 164 189 124 88 q 246 399 204 290 l 643 399 q 726 189 685 290 q 803 0 767 88 l 861 0 m 432 865 q 439 883 435 872 q 446 906 443 894 l 458 865 q 538 667 496 774 q 624 449 581 561 l 265 449 q 351 667 310 561 q 432 865 393 774 m 347 1233 l 472 1049 l 432 1049 l 294 1233 l 347 1233 z "},"È":{"ha":849,"x_min":154,"x_max":775,"o":"m 154 0 l 154 982 l 756 982 l 756 929 l 213 929 l 213 521 l 700 521 l 700 468 l 213 468 l 213 54 l 775 54 l 775 0 l 154 0 m 407 1233 l 532 1049 l 492 1049 l 354 1233 l 407 1233 z "},"Ì":{"ha":365,"x_min":44,"x_max":222,"o":"m 154 982 l 211 982 l 211 0 l 154 0 l 154 982 m 97 1233 l 222 1049 l 182 1049 l 44 1233 l 97 1233 z "},"Ò":{"ha":1154,"x_min":75,"x_max":1079,"o":"m 75 490 q 115 685 75 594 q 222 845 154 776 q 380 953 289 914 q 575 993 471 993 q 771 953 679 993 q 931 845 863 914 q 1040 685 1000 776 q 1079 490 1079 594 q 1040 295 1079 386 q 931 136 1000 204 q 771 28 863 68 q 575 -11 679 -11 q 380 28 471 -11 q 222 136 289 68 q 115 295 154 204 q 75 490 75 386 m 132 489 q 167 316 132 397 q 262 174 201 235 q 402 78 322 114 q 574 43 482 43 q 747 78 665 43 q 890 174 829 114 q 987 316 951 235 q 1022 490 1022 397 q 987 664 1022 582 q 891 806 951 746 q 749 902 831 867 q 576 938 668 938 q 403 902 485 938 q 262 806 322 867 q 167 663 201 744 q 132 489 132 582 m 483 1233 l 608 1049 l 568 1049 l 431 1233 l 483 1233 z "},"Ù":{"ha":950,"x_min":142,"x_max":808,"o":"m 475 -11 q 343 11 404 -11 q 238 76 282 33 q 167 183 193 119 q 142 326 142 246 l 142 982 l 200 982 l 200 331 q 221 210 200 264 q 278 119 242 157 q 365 63 314 82 q 475 43 415 43 q 584 63 533 43 q 672 119 635 82 q 729 210 708 157 q 750 331 750 264 l 750 982 l 808 982 l 808 326 q 783 183 808 246 q 712 76 757 119 q 606 11 667 33 q 475 -11 546 -11 m 397 1233 l 522 1049 l 482 1049 l 344 1233 l 397 1233 z "},"Ý":{"ha":850,"x_min":29,"x_max":819,"o":"m 454 354 l 454 0 l 396 0 l 396 354 q 311 498 360 415 q 213 668 263 581 q 114 838 163 756 q 29 982 65 921 l 94 982 q 167 860 128 926 q 248 722 207 793 q 330 580 289 651 q 408 443 371 508 l 426 404 l 442 443 q 521 580 479 508 q 603 722 563 651 q 682 860 643 793 q 754 982 721 926 l 819 982 l 454 354 m 400 1049 q 463 1141 432 1094 q 526 1233 494 1188 l 579 1233 l 442 1049 l 400 1049 z "},"¡":{"ha":322,"x_min":121,"x_max":203,"o":"m 136 521 l 186 521 l 186 -293 l 136 -293 l 136 521 m 161 718 q 190 706 178 718 q 203 676 203 694 q 190 645 203 657 q 161 633 178 633 q 133 645 146 633 q 121 676 121 657 q 133 706 121 694 q 161 718 146 718 z "},"Ø":{"ha":1154,"x_min":75,"x_max":1079,"o":"m 75 490 q 115 685 75 594 q 222 845 154 776 q 380 953 289 914 q 575 993 471 993 q 733 967 658 993 q 869 897 807 942 l 957 1001 l 986 974 l 901 872 q 1031 704 983 803 q 1079 490 1079 606 q 1040 295 1079 386 q 931 136 1000 204 q 771 28 863 68 q 575 -11 679 -11 q 401 19 483 -11 q 254 106 319 50 l 161 -7 l 132 19 l 226 132 q 115 292 156 200 q 75 490 75 385 m 289 147 q 419 71 347 99 q 574 43 492 43 q 747 78 665 43 q 890 174 829 114 q 987 316 951 235 q 1022 490 1022 397 q 980 679 1022 592 q 865 829 938 767 q 727 667 801 754 q 577 489 653 579 q 427 311 501 399 q 289 147 353 224 m 132 489 q 167 315 132 396 q 261 174 201 235 q 399 337 325 249 q 548 515 472 425 q 697 692 624 604 q 833 854 771 779 q 714 915 779 893 q 576 938 649 938 q 403 902 485 938 q 262 806 322 867 q 167 663 201 744 q 132 489 132 582 z "},"¿":{"ha":665,"x_min":75,"x_max":614,"o":"m 568 -62 l 614 -78 q 578 -150 601 -115 q 522 -212 556 -185 q 445 -256 489 -239 q 349 -272 401 -272 q 242 -251 292 -272 q 155 -192 192 -229 q 97 -106 118 -156 q 75 0 75 -57 q 112 133 75 75 q 213 235 149 190 q 260 267 238 253 q 301 298 283 281 q 329 342 318 315 q 340 411 340 368 l 340 519 l 390 519 l 390 385 q 375 315 390 342 q 335 267 360 288 q 279 228 311 247 q 214 179 247 208 q 126 0 126 106 q 143 -89 126 -49 q 190 -159 160 -129 q 260 -206 219 -189 q 349 -222 301 -222 q 488 -180 431 -222 q 568 -62 544 -137 m 367 725 q 394 713 382 725 q 407 683 407 701 q 394 652 407 664 q 367 640 382 640 q 338 652 351 640 q 325 683 325 664 q 338 713 325 701 q 367 725 351 725 z "},"Ã":{"ha":889,"x_min":29,"x_max":861,"o":"m 861 0 q 798 151 832 68 q 727 326 764 235 q 653 513 690 418 q 578 700 615 608 q 508 876 542 792 q 446 1028 474 960 q 383 876 417 960 q 312 700 349 792 q 238 513 275 608 q 163 326 200 418 q 92 151 126 235 q 29 0 58 68 l 88 0 q 164 189 124 88 q 246 399 204 290 l 643 399 q 726 189 685 290 q 803 0 767 88 l 861 0 m 432 865 q 439 883 435 872 q 446 906 443 894 l 458 865 q 538 667 496 774 q 624 449 581 561 l 265 449 q 351 667 310 561 q 432 865 393 774 m 435 1096 q 396 1128 413 1119 q 360 1136 379 1136 q 335 1133 349 1136 q 309 1122 322 1131 q 286 1099 296 1114 q 274 1063 276 1085 l 242 1067 q 254 1113 243 1093 q 282 1144 265 1132 q 319 1163 299 1157 q 360 1169 340 1169 q 413 1156 389 1169 q 460 1118 438 1142 q 499 1086 482 1094 q 535 1078 515 1078 q 558 1081 544 1078 q 585 1092 572 1083 q 608 1115 599 1100 q 621 1151 618 1129 l 653 1147 q 640 1102 651 1121 q 613 1071 629 1083 q 575 1052 596 1058 q 535 1046 554 1046 q 481 1059 506 1046 q 435 1096 457 1072 z "},"Õ":{"ha":1154,"x_min":75,"x_max":1079,"o":"m 75 490 q 115 685 75 594 q 222 845 154 776 q 380 953 289 914 q 575 993 471 993 q 771 953 679 993 q 931 845 863 914 q 1040 685 1000 776 q 1079 490 1079 594 q 1040 295 1079 386 q 931 136 1000 204 q 771 28 863 68 q 575 -11 679 -11 q 380 28 471 -11 q 222 136 289 68 q 115 295 154 204 q 75 490 75 386 m 132 489 q 167 316 132 397 q 262 174 201 235 q 402 78 322 114 q 574 43 482 43 q 747 78 665 43 q 890 174 829 114 q 987 316 951 235 q 1022 490 1022 397 q 987 664 1022 582 q 891 806 951 746 q 749 902 831 867 q 576 938 668 938 q 403 902 485 938 q 262 806 322 867 q 167 663 201 744 q 132 489 132 582 m 550 1144 q 511 1176 528 1168 q 475 1185 494 1185 q 451 1182 464 1185 q 424 1171 438 1179 q 401 1148 411 1163 q 389 1111 392 1133 l 357 1115 q 369 1161 358 1142 q 397 1193 381 1181 q 435 1212 414 1206 q 475 1218 456 1218 q 528 1204 504 1218 q 575 1167 553 1190 q 614 1135 597 1143 q 650 1126 631 1126 q 674 1129 660 1126 q 701 1140 688 1132 q 724 1163 714 1149 q 736 1200 733 1178 l 768 1196 q 756 1151 767 1169 q 728 1119 744 1132 q 690 1101 711 1107 q 650 1094 669 1094 q 597 1108 621 1094 q 550 1144 572 1121 z "},"â":{"ha":714,"x_min":54,"x_max":617,"o":"m 54 268 q 76 378 54 326 q 136 467 99 429 q 224 528 174 506 q 333 550 275 550 q 413 538 375 550 q 481 506 450 526 q 534 458 511 485 q 569 400 557 431 q 571 469 569 435 q 575 538 572 504 l 617 538 l 617 0 l 569 0 l 569 138 q 483 33 546 76 q 333 -10 421 -10 q 223 13 274 -10 q 135 72 172 35 q 76 160 97 110 q 54 268 54 211 m 101 269 q 119 178 101 221 q 169 105 138 136 q 243 56 200 74 q 335 38 286 38 q 426 56 383 38 q 501 105 469 74 q 551 178 533 136 q 569 269 569 221 q 551 361 569 318 q 501 435 533 404 q 426 485 469 467 q 335 503 383 503 q 243 485 286 503 q 169 435 200 467 q 119 361 138 404 q 101 269 101 318 m 374 919 l 540 667 l 500 667 l 374 850 l 247 667 l 206 667 q 290 792 249 729 q 374 919 332 856 z "},"ê":{"ha":611,"x_min":54,"x_max":579,"o":"m 531 65 q 442 10 493 31 q 335 -10 392 -10 q 225 13 276 -10 q 135 72 174 35 q 76 160 97 110 q 54 269 54 211 q 76 379 54 328 q 136 469 99 431 q 224 529 174 507 q 333 551 275 551 q 485 499 422 551 q 579 367 549 447 q 471 324 529 347 q 351 275 413 300 q 231 226 290 250 q 118 181 171 201 q 202 77 144 117 q 333 38 260 38 q 422 54 381 38 q 494 100 464 71 l 531 65 m 518 381 q 445 469 493 436 q 333 503 397 503 q 242 484 285 503 q 169 434 200 465 q 119 360 138 403 q 101 271 101 318 q 103 242 101 256 q 108 214 106 228 q 208 255 156 233 q 315 298 261 276 q 420 340 368 319 q 518 381 472 361 m 325 921 l 492 668 l 451 668 l 325 851 l 199 668 l 157 668 q 242 794 200 731 q 325 921 283 857 z "},"î":{"ha":242,"x_min":-46,"x_max":289,"o":"m 144 0 l 97 0 l 97 538 l 144 538 l 144 0 m 122 921 l 289 668 l 249 668 l 122 851 l -4 668 l -46 668 q 39 794 -3 731 q 122 921 81 857 z "},"ô":{"ha":674,"x_min":56,"x_max":619,"o":"m 56 269 q 78 379 56 328 q 138 469 100 431 q 228 529 176 507 q 338 551 279 551 q 447 529 396 551 q 537 469 499 507 q 597 379 575 431 q 619 269 619 328 q 597 160 619 211 q 537 72 575 110 q 447 13 499 35 q 336 -10 396 -10 q 226 12 278 -10 q 138 71 175 33 q 78 159 100 108 q 56 269 56 210 m 104 269 q 122 178 104 221 q 172 105 140 136 q 245 56 203 74 q 336 38 288 38 q 427 56 385 38 q 501 105 469 74 q 551 178 533 136 q 569 269 569 221 q 551 360 569 318 q 501 435 533 403 q 427 485 469 467 q 336 503 385 503 q 245 485 288 503 q 172 435 203 467 q 122 360 140 403 q 104 269 104 318 m 336 921 l 503 668 l 463 668 l 336 851 l 210 668 l 168 668 q 253 794 211 731 q 336 921 294 857 z "},"û":{"ha":635,"x_min":92,"x_max":538,"o":"m 538 -4 l 499 -4 l 494 140 q 404 31 465 72 q 263 -11 343 -11 q 140 34 185 -11 q 92 150 94 79 l 92 538 l 139 538 l 139 158 q 174 75 142 110 q 268 36 207 40 q 353 51 314 36 q 424 93 393 67 q 472 156 454 119 q 489 238 489 193 l 489 538 l 538 538 l 538 -4 m 368 921 l 535 668 l 494 668 l 368 851 l 242 668 l 200 668 q 285 794 243 731 q 368 921 326 857 z "},"ã":{"ha":714,"x_min":54,"x_max":617,"o":"m 54 268 q 76 378 54 326 q 136 467 99 429 q 224 528 174 506 q 333 550 275 550 q 413 538 375 550 q 481 506 450 526 q 534 458 511 485 q 569 400 557 431 q 571 469 569 435 q 575 538 572 504 l 617 538 l 617 0 l 569 0 l 569 138 q 483 33 546 76 q 333 -10 421 -10 q 223 13 274 -10 q 135 72 172 35 q 76 160 97 110 q 54 268 54 211 m 101 269 q 119 178 101 221 q 169 105 138 136 q 243 56 200 74 q 335 38 286 38 q 426 56 383 38 q 501 105 469 74 q 551 178 533 136 q 569 269 569 221 q 551 361 569 318 q 501 435 533 404 q 426 485 469 467 q 335 503 383 503 q 243 485 286 503 q 169 435 200 467 q 119 361 138 404 q 101 269 101 318 m 368 686 q 329 718 346 710 q 293 726 313 726 q 269 724 282 726 q 242 713 256 721 q 219 690 229 704 q 207 653 210 675 l 175 657 q 188 703 176 683 q 215 735 199 722 q 253 753 232 747 q 293 760 274 760 q 347 746 322 760 q 393 708 371 732 q 432 676 415 685 q 468 668 449 668 q 492 671 478 668 q 519 682 506 674 q 542 705 532 690 q 554 742 551 719 l 586 738 q 574 692 585 711 q 546 661 563 674 q 508 642 529 649 q 468 636 488 636 q 415 649 439 636 q 368 686 390 663 z "},"`":{"ha":279,"x_min":-36,"x_max":142,"o":"m 17 853 l 142 668 l 101 668 l -36 853 l 17 853 z "},"^":{"ha":551,"x_min":108,"x_max":443,"o":"m 276 921 l 443 668 l 403 668 l 276 851 l 150 668 l 108 668 q 193 794 151 731 q 276 921 235 857 z "},"õ":{"ha":674,"x_min":56,"x_max":619,"o":"m 56 269 q 78 379 56 328 q 138 469 100 431 q 228 529 176 507 q 338 551 279 551 q 447 529 396 551 q 537 469 499 507 q 597 379 575 431 q 619 269 619 328 q 597 160 619 211 q 537 72 575 110 q 447 13 499 35 q 336 -10 396 -10 q 226 12 278 -10 q 138 71 175 33 q 78 159 100 108 q 56 269 56 210 m 104 269 q 122 178 104 221 q 172 105 140 136 q 245 56 203 74 q 336 38 288 38 q 427 56 385 38 q 501 105 469 74 q 551 178 533 136 q 569 269 569 221 q 551 360 569 318 q 501 435 533 403 q 427 485 469 467 q 336 503 385 503 q 245 485 288 503 q 172 435 203 467 q 122 360 140 403 q 104 269 104 318 m 331 686 q 292 718 308 710 q 256 726 275 726 q 231 724 244 726 q 205 713 218 721 q 182 690 192 704 q 169 653 172 675 l 138 657 q 150 703 139 683 q 178 735 161 722 q 215 753 194 747 q 256 760 236 760 q 309 746 285 760 q 356 708 333 732 q 394 676 378 685 q 431 668 411 668 q 454 671 440 668 q 481 682 468 674 q 504 705 494 690 q 517 742 514 719 l 549 738 q 536 692 547 711 q 508 661 525 674 q 471 642 492 649 q 431 636 450 636 q 377 649 401 636 q 331 686 353 663 z "},"'":{"ha":263,"x_min":106,"x_max":160,"o":"m 106 658 l 106 1004 l 160 1004 l 154 658 l 106 658 z "},"_":{"ha":744,"x_min":93,"x_max":651,"o":"m 651 0 l 93 0 l 93 49 l 651 49 l 651 0 z "},"[":{"ha":417,"x_min":135,"x_max":375,"o":"m 135 -208 l 135 1040 l 375 1040 l 375 990 l 188 990 l 188 -158 l 375 -158 l 375 -208 l 135 -208 z "},"]":{"ha":417,"x_min":42,"x_max":282,"o":"m 282 1040 l 282 -208 l 42 -208 l 42 -158 l 229 -158 l 229 990 l 42 990 l 42 1040 l 282 1040 z "},"°":{"ha":400,"x_min":82,"x_max":317,"o":"m 201 700 q 258 723 233 700 q 282 781 282 746 q 258 838 282 815 q 201 861 233 861 q 143 838 167 861 q 119 781 119 815 q 143 723 119 746 q 201 700 167 700 m 82 781 q 116 864 82 831 q 201 897 150 897 q 283 864 250 897 q 317 781 317 831 q 283 697 317 731 q 201 664 250 664 q 116 697 150 664 q 82 781 82 731 z "},"ç":{"ha":557,"x_min":54,"x_max":513,"o":"m 481 88 q 497 70 489 79 q 511 51 504 61 q 431 7 475 24 q 335 -10 386 -10 l 333 -10 q 353 -60 333 -46 q 390 -85 372 -74 q 435 -133 422 -107 q 447 -183 447 -160 q 411 -287 447 -251 q 321 -324 375 -324 q 247 -301 281 -324 q 197 -235 213 -279 q 215 -228 207 -232 q 232 -219 224 -224 q 263 -265 240 -247 q 318 -282 286 -282 q 383 -256 358 -282 q 407 -189 407 -229 q 390 -135 407 -154 q 352 -101 372 -115 q 315 -70 332 -86 q 297 -25 297 -54 l 297 -7 q 200 23 244 -1 q 124 84 156 47 q 73 169 92 121 q 54 269 54 217 q 76 379 54 328 q 135 468 97 431 q 225 528 174 506 q 335 550 276 550 q 431 533 386 550 q 513 489 476 517 q 497 471 506 479 q 481 451 489 463 q 414 489 451 475 q 335 503 376 503 q 242 485 285 503 q 169 435 200 467 q 119 361 138 404 q 101 269 101 318 q 119 178 101 221 q 169 105 138 136 q 242 56 200 74 q 335 38 285 38 q 414 51 376 38 q 481 88 451 64 z "},"Ç":{"ha":894,"x_min":76,"x_max":844,"o":"m 844 63 q 731 13 796 33 q 583 -11 665 -8 q 589 -40 583 -29 q 603 -60 594 -51 q 622 -74 611 -68 q 640 -85 632 -79 q 685 -133 672 -107 q 697 -183 697 -160 q 661 -287 697 -251 q 571 -324 625 -324 q 497 -301 531 -324 q 447 -235 463 -279 q 465 -228 457 -232 q 482 -219 474 -224 q 513 -265 490 -247 q 568 -282 536 -282 q 633 -256 608 -282 q 657 -189 657 -229 q 640 -135 657 -154 q 602 -101 622 -115 q 565 -70 582 -86 q 547 -25 547 -54 l 547 -10 q 353 35 440 -6 q 204 144 265 76 q 110 299 143 211 q 76 485 76 386 q 116 685 76 593 q 224 847 156 778 q 384 954 293 915 q 579 993 475 993 q 722 974 654 993 q 839 924 790 956 q 826 903 831 911 q 811 878 822 896 q 702 924 763 908 q 582 939 642 939 q 407 903 489 939 q 265 806 325 868 q 169 663 204 744 q 133 488 133 581 q 165 320 133 400 q 253 180 196 240 q 392 83 311 119 q 572 47 474 47 q 713 67 649 47 q 818 114 776 88 l 844 63 z "},"–":{"ha":603,"x_min":90,"x_max":511,"o":"m 90 244 l 90 294 l 511 294 l 511 244 l 90 244 z "},"—":{"ha":882,"x_min":90,"x_max":790,"o":"m 90 244 l 90 294 l 790 294 l 790 244 l 90 244 z "},"¸":{"ha":631,"x_min":165,"x_max":415,"o":"m 265 0 l 301 0 l 301 -8 q 307 -40 301 -28 q 321 -60 313 -51 q 340 -74 329 -68 q 358 -85 350 -79 q 403 -133 390 -107 q 415 -183 415 -160 q 379 -287 415 -251 q 289 -324 343 -324 q 215 -301 249 -324 q 165 -235 181 -279 q 183 -228 175 -232 q 200 -219 192 -224 q 231 -265 208 -247 q 286 -282 254 -282 q 351 -256 326 -282 q 375 -189 375 -229 q 358 -135 375 -154 q 320 -101 340 -115 q 283 -72 300 -86 q 265 -31 265 -57 l 265 0 z "},"´":{"ha":329,"x_min":139,"x_max":318,"o":"m 139 668 q 202 760 171 714 q 265 853 233 807 l 318 853 l 181 668 l 139 668 z "},"¨":{"ha":517,"x_min":100,"x_max":422,"o":"m 339 706 q 351 737 339 725 q 381 749 364 749 q 410 737 397 749 q 422 706 422 725 q 410 676 422 688 q 381 664 397 664 q 351 676 364 664 q 339 706 339 688 m 100 706 q 113 737 100 725 q 142 749 125 749 q 171 737 158 749 q 183 706 183 725 q 171 676 183 688 q 142 664 158 664 q 113 676 125 664 q 100 706 100 688 z "},"Ð":{"ha":997,"x_min":78,"x_max":919,"o":"m 78 513 l 164 513 l 164 982 l 378 982 q 629 937 526 982 q 797 820 732 892 q 890 660 861 749 q 919 488 919 572 q 880 285 919 375 q 773 132 840 196 q 615 34 706 68 q 425 0 525 0 l 164 0 l 164 469 l 78 469 l 78 513 m 425 56 q 595 85 515 56 q 734 172 675 115 q 828 308 793 228 q 863 490 863 389 q 834 651 863 572 q 748 790 806 729 q 603 888 690 851 q 399 925 515 925 l 221 925 l 221 513 l 475 513 l 475 469 l 221 469 l 221 56 l 425 56 z "},"þ":{"ha":717,"x_min":97,"x_max":661,"o":"m 661 269 q 640 160 661 211 q 581 71 618 108 q 492 12 543 33 q 381 -10 440 -10 q 235 33 299 -10 q 144 138 171 75 q 145 102 144 119 q 146 67 146 85 l 146 -258 l 97 -258 l 97 1053 l 146 1053 l 146 400 q 183 458 160 431 q 236 506 206 486 q 304 538 267 526 q 383 550 342 550 q 492 528 442 550 q 581 469 543 507 q 640 381 618 432 q 661 269 661 329 m 610 269 q 592 361 610 318 q 544 435 575 404 q 471 485 513 467 q 379 503 429 503 q 288 485 331 503 q 213 435 244 467 q 164 361 182 404 q 146 269 146 318 q 164 178 146 221 q 213 105 182 136 q 288 56 244 74 q 379 38 331 38 q 471 56 429 38 q 544 105 513 74 q 592 178 575 136 q 610 269 610 221 z "},"ð":{"ha":682,"x_min":56,"x_max":621,"o":"m 56 269 q 78 379 56 328 q 138 469 100 431 q 228 529 176 507 q 338 551 279 551 q 446 530 396 551 q 533 472 496 508 q 460 647 511 547 q 317 857 410 747 l 218 751 l 190 778 l 293 888 q 160 1015 228 958 l 186 1043 q 255 984 221 1015 q 321 917 289 953 q 367 968 344 943 q 413 1018 390 993 q 426 1006 419 1013 q 440 994 433 1000 l 344 889 q 450 746 400 822 q 538 590 500 669 q 599 428 576 510 q 621 272 621 347 q 618 246 621 257 q 590 145 614 192 q 529 65 567 99 q 442 10 492 31 q 336 -10 392 -10 q 226 12 278 -10 q 138 71 175 33 q 78 159 100 108 q 56 269 56 210 m 104 269 q 122 178 104 221 q 172 105 140 136 q 245 56 203 74 q 336 38 288 38 q 427 56 385 38 q 501 105 469 74 q 551 178 533 136 q 569 269 569 221 q 551 360 569 318 q 501 435 533 403 q 427 485 469 467 q 336 503 385 503 q 245 485 288 503 q 172 435 203 467 q 122 360 140 403 q 104 269 104 318 z "},"Þ":{"ha":724,"x_min":154,"x_max":674,"o":"m 154 0 l 154 976 l 213 976 l 213 765 l 372 765 q 477 750 424 765 q 574 702 531 735 q 646 617 618 669 q 674 492 674 565 q 656 386 674 438 q 601 294 639 335 q 505 228 564 253 q 364 204 446 204 l 213 204 l 213 0 l 154 0 m 213 260 l 365 260 q 488 283 439 260 q 565 342 536 307 q 604 419 593 378 q 615 493 615 460 q 598 578 615 539 q 548 648 581 618 q 469 694 515 678 q 367 711 424 711 l 213 711 l 213 260 z "},"Â":{"ha":889,"x_min":29,"x_max":861,"o":"m 861 0 q 798 151 832 68 q 727 326 764 235 q 653 513 690 418 q 578 700 615 608 q 508 876 542 792 q 446 1028 474 960 q 383 876 417 960 q 312 700 349 792 q 238 513 275 608 q 163 326 200 418 q 92 151 126 235 q 29 0 58 68 l 88 0 q 164 189 124 88 q 246 399 204 290 l 643 399 q 726 189 685 290 q 803 0 767 88 l 861 0 m 432 865 q 439 883 435 872 q 446 906 443 894 l 458 865 q 538 667 496 774 q 624 449 581 561 l 265 449 q 351 667 310 561 q 432 865 393 774 m 492 1301 l 658 1049 l 618 1049 l 492 1232 l 365 1049 l 324 1049 q 408 1174 367 1111 q 492 1301 450 1238 z "},"Ê":{"ha":849,"x_min":154,"x_max":775,"o":"m 154 0 l 154 982 l 756 982 l 756 929 l 213 929 l 213 521 l 700 521 l 700 468 l 213 468 l 213 54 l 775 54 l 775 0 l 154 0 m 463 1301 l 629 1049 l 589 1049 l 463 1232 l 336 1049 l 294 1049 q 379 1174 338 1111 q 463 1301 421 1238 z "},"Î":{"ha":365,"x_min":17,"x_max":351,"o":"m 154 982 l 211 982 l 211 0 l 154 0 l 154 982 m 185 1301 l 351 1049 l 311 1049 l 185 1232 l 58 1049 l 17 1049 q 101 1174 60 1111 q 185 1301 143 1238 z "},"Ô":{"ha":1154,"x_min":75,"x_max":1079,"o":"m 75 490 q 115 685 75 594 q 222 845 154 776 q 380 953 289 914 q 575 993 471 993 q 771 953 679 993 q 931 845 863 914 q 1040 685 1000 776 q 1079 490 1079 594 q 1040 295 1079 386 q 931 136 1000 204 q 771 28 863 68 q 575 -11 679 -11 q 380 28 471 -11 q 222 136 289 68 q 115 295 154 204 q 75 490 75 386 m 132 489 q 167 316 132 397 q 262 174 201 235 q 402 78 322 114 q 574 43 482 43 q 747 78 665 43 q 890 174 829 114 q 987 316 951 235 q 1022 490 1022 397 q 987 664 1022 582 q 891 806 951 746 q 749 902 831 867 q 576 938 668 938 q 403 902 485 938 q 262 806 322 867 q 167 663 201 744 q 132 489 132 582 m 567 1301 l 733 1049 l 693 1049 l 567 1232 l 440 1049 l 399 1049 q 483 1174 442 1111 q 567 1301 525 1238 z "},"Û":{"ha":950,"x_min":142,"x_max":808,"o":"m 475 -11 q 343 11 404 -11 q 238 76 282 33 q 167 183 193 119 q 142 326 142 246 l 142 982 l 200 982 l 200 331 q 221 210 200 264 q 278 119 242 157 q 365 63 314 82 q 475 43 415 43 q 584 63 533 43 q 672 119 635 82 q 729 210 708 157 q 750 331 750 264 l 750 982 l 808 982 l 808 326 q 783 183 808 246 q 712 76 757 119 q 606 11 667 33 q 475 -11 546 -11 m 486 1310 l 653 1057 l 613 1057 l 486 1240 l 360 1057 l 318 1057 q 403 1183 361 1119 q 486 1310 444 1246 z "},"±":{"ha":751,"x_min":124,"x_max":626,"o":"m 350 294 l 350 521 l 124 521 l 124 571 l 350 571 l 350 796 l 400 796 l 400 571 l 626 571 l 626 521 l 400 521 l 400 294 l 350 294 m 626 168 l 124 168 l 124 218 l 626 218 l 626 168 z "},"$":{"ha":743,"x_min":57,"x_max":681,"o":"m 633 933 l 613 888 q 509 920 569 906 q 390 935 449 935 l 386 935 l 386 564 q 492 522 439 544 q 586 466 544 499 q 654 385 628 433 q 681 268 681 338 q 659 157 681 207 q 599 72 638 107 q 506 15 560 36 q 386 -10 451 -6 l 386 -94 l 347 -94 l 347 -11 q 243 2 290 -10 q 159 29 196 14 q 97 60 122 44 q 57 83 71 75 l 85 135 q 136 104 107 119 q 200 76 165 89 q 272 54 235 63 q 347 44 310 46 l 347 519 q 256 556 300 536 q 178 601 213 575 q 124 663 144 626 q 103 749 103 699 q 120 835 103 794 q 169 907 138 875 q 247 959 201 939 q 347 985 292 979 l 347 1072 l 386 1072 l 386 988 q 452 982 417 988 q 521 969 488 976 q 584 951 554 961 q 633 933 614 942 m 624 268 q 603 357 624 319 q 551 422 583 394 q 475 469 518 449 q 386 506 432 489 l 386 46 q 470 65 428 50 q 547 107 513 79 q 602 174 581 135 q 624 268 624 214 m 160 756 q 174 692 160 719 q 215 644 189 665 q 274 608 240 624 q 347 578 308 592 l 347 932 q 210 871 260 921 q 160 756 160 821 z "},"¢":{"ha":588,"x_min":61,"x_max":519,"o":"m 488 88 q 503 70 496 79 q 518 51 511 61 q 438 8 482 24 q 344 -10 394 -8 l 344 -94 l 306 -94 l 306 -7 q 208 23 253 -1 q 131 84 164 47 q 80 168 99 121 q 61 269 61 215 q 80 371 61 324 q 131 456 99 418 q 208 517 164 493 q 306 547 253 540 l 306 628 l 344 628 l 344 550 q 439 533 394 549 q 519 489 483 517 q 504 471 513 479 q 488 451 496 463 q 422 488 458 475 q 344 503 385 501 l 344 38 q 422 51 385 38 q 488 88 458 64 m 108 269 q 123 186 108 225 q 164 117 138 147 q 226 65 190 86 q 306 39 263 44 l 306 500 q 226 473 263 493 q 164 422 190 453 q 123 353 138 392 q 108 269 108 314 z "},"•":{"ha":501,"x_min":132,"x_max":369,"o":"m 132 418 q 167 503 132 468 q 250 538 201 538 q 335 503 300 538 q 369 418 369 468 q 335 335 369 369 q 250 300 300 300 q 167 335 201 300 q 132 418 132 369 z "},"“":{"ha":397,"x_min":74,"x_max":317,"o":"m 317 822 q 305 808 310 815 q 293 794 300 801 q 235 883 253 832 q 229 992 218 935 l 271 982 q 274 892 261 933 q 317 822 288 850 m 172 822 q 149 794 158 808 q 91 883 108 832 q 85 992 74 935 l 126 982 q 130 892 117 933 q 172 822 143 850 z "},"”":{"ha":397,"x_min":81,"x_max":324,"o":"m 249 794 q 237 808 242 801 q 225 822 232 815 q 267 892 254 850 q 271 982 281 933 l 313 992 q 306 883 324 935 q 249 794 289 832 m 104 794 l 81 822 q 123 892 110 850 q 126 982 136 933 l 167 992 q 161 883 178 935 q 104 794 144 832 z "},"‘":{"ha":253,"x_min":74,"x_max":172,"o":"m 172 822 q 160 808 165 815 q 149 794 156 801 q 91 883 108 832 q 85 992 74 935 l 126 982 q 130 892 117 933 q 172 822 143 850 z "},"„":{"ha":422,"x_min":76,"x_max":319,"o":"m 100 -68 l 76 -40 q 119 28 106 -12 q 122 118 132 69 l 164 128 q 158 21 175 72 q 100 -68 140 -31 m 244 -68 q 233 -54 239 -61 q 221 -40 228 -47 q 263 28 250 -12 q 267 118 276 69 l 308 128 q 302 21 319 72 q 244 -68 285 -31 z "},"‚":{"ha":278,"x_min":76,"x_max":175,"o":"m 100 -68 l 76 -40 q 119 28 106 -12 q 122 118 132 69 l 164 128 q 158 21 175 72 q 100 -68 140 -31 z "},"›":{"ha":394,"x_min":89,"x_max":328,"o":"m 89 154 q 174 244 129 194 q 258 333 218 293 q 174 422 218 374 q 89 511 129 471 l 89 569 q 144 515 113 546 q 208 451 175 483 q 273 387 242 418 q 328 333 304 356 l 89 96 l 89 154 z "},"«":{"ha":633,"x_min":67,"x_max":544,"o":"m 544 96 l 306 333 q 360 387 329 356 q 425 451 392 418 q 490 515 458 483 q 544 569 521 546 l 544 511 q 459 422 504 471 q 375 333 414 374 q 459 244 414 293 q 544 154 504 194 l 544 96 m 306 96 l 67 333 q 122 387 90 356 q 186 451 153 418 q 251 515 219 483 q 306 569 282 546 l 306 511 q 221 422 265 471 q 136 333 176 374 q 221 244 176 293 q 306 154 265 194 l 306 96 z "},"»":{"ha":633,"x_min":89,"x_max":567,"o":"m 89 154 q 174 244 129 194 q 258 333 219 293 q 174 422 219 374 q 89 511 129 471 l 89 569 q 144 515 113 546 q 208 451 175 483 q 273 387 242 418 q 328 333 304 356 l 89 96 l 89 154 m 328 154 q 413 244 368 194 q 497 333 457 293 q 413 422 457 374 q 328 511 368 471 l 328 569 q 383 515 351 546 q 447 451 414 483 q 512 387 481 418 q 567 333 543 356 l 328 96 l 328 154 z "},"¥":{"ha":878,"x_min":43,"x_max":833,"o":"m 468 354 l 468 176 l 675 176 l 675 139 l 468 139 l 468 0 l 410 0 l 410 139 l 213 139 l 213 176 l 410 176 l 410 354 q 403 365 404 358 l 213 365 l 213 403 l 381 403 q 298 543 343 465 q 207 700 253 621 q 119 853 161 779 q 43 982 76 926 l 108 982 q 181 860 142 926 q 262 722 221 793 q 344 580 303 651 q 422 443 385 508 l 440 404 l 456 443 q 535 580 493 508 q 617 722 576 651 q 696 860 657 793 q 768 982 735 926 l 833 982 l 496 403 l 675 403 l 675 365 l 474 365 l 468 354 z "},"©":{"ha":908,"x_min":97,"x_max":811,"o":"m 454 163 q 314 189 379 163 q 201 263 249 215 q 125 375 153 310 q 97 517 97 440 q 125 658 97 593 q 201 772 153 724 q 314 846 249 819 q 454 872 379 872 q 594 846 529 872 q 708 772 660 819 q 783 658 756 724 q 811 517 811 593 q 783 375 811 440 q 708 263 756 310 q 594 189 660 215 q 454 163 529 163 m 453 188 q 581 213 521 188 q 687 281 642 238 q 758 385 732 325 q 783 515 783 446 q 758 648 783 588 q 687 753 732 708 q 581 822 642 797 q 453 847 521 847 q 325 822 385 847 q 221 753 265 797 q 151 648 176 708 q 125 515 125 588 q 151 385 125 446 q 221 281 176 325 q 325 213 265 238 q 453 188 385 188 m 586 326 q 533 303 564 313 q 463 293 501 293 q 371 311 413 293 q 300 360 329 329 q 255 432 271 392 q 239 518 239 472 q 257 609 239 567 q 306 683 275 651 q 378 731 338 714 q 467 749 419 749 q 531 740 500 749 q 583 717 561 732 l 571 696 q 522 717 549 710 q 467 724 494 724 q 388 708 425 724 q 324 664 351 692 q 281 599 297 636 q 265 519 265 561 q 279 443 265 479 q 319 379 293 407 q 381 335 344 351 q 463 319 418 319 q 526 329 497 319 q 574 350 554 339 l 586 326 z "},"®":{"ha":908,"x_min":97,"x_max":811,"o":"m 454 163 q 314 189 379 163 q 201 263 249 215 q 125 375 153 310 q 97 517 97 440 q 125 658 97 593 q 201 772 153 724 q 314 846 249 819 q 454 872 379 872 q 594 846 529 872 q 708 772 660 819 q 783 658 756 724 q 811 517 811 593 q 783 375 811 440 q 708 263 756 310 q 594 189 660 215 q 454 163 529 163 m 453 188 q 581 213 521 188 q 687 281 642 238 q 758 385 732 325 q 783 515 783 446 q 758 648 783 588 q 687 753 732 708 q 581 822 642 797 q 453 847 521 847 q 325 822 385 847 q 221 753 265 797 q 151 648 176 708 q 125 515 125 588 q 151 385 125 446 q 221 281 176 325 q 325 213 265 238 q 453 188 385 188 m 350 292 l 350 756 l 453 756 q 501 749 476 756 q 547 726 526 742 q 581 685 568 710 q 594 626 594 661 q 575 553 594 588 q 514 501 556 518 q 540 459 521 490 q 581 392 560 428 q 620 328 601 357 q 643 292 639 299 l 610 292 q 590 324 606 297 q 556 382 575 350 q 517 445 536 414 q 488 493 497 476 q 469 491 478 492 q 449 490 460 490 l 376 490 l 376 292 l 350 292 m 376 517 l 449 517 q 506 528 483 517 q 542 557 529 540 q 561 593 556 574 q 567 629 567 613 q 535 701 567 671 q 450 731 503 731 l 376 731 l 376 517 z "},"÷":{"ha":711,"x_min":104,"x_max":607,"o":"m 607 292 l 104 292 l 104 340 l 607 340 l 607 292 m 318 499 q 331 528 318 517 q 360 540 343 540 q 388 528 375 540 q 401 499 401 517 q 388 467 401 479 q 360 456 375 456 q 331 467 343 456 q 318 499 318 479 m 318 133 q 331 163 318 151 q 360 175 343 175 q 388 163 375 175 q 401 133 401 151 q 388 102 401 114 q 360 90 375 90 q 331 102 343 90 q 318 133 318 114 z "},"½":{"ha":1151,"x_min":53,"x_max":1097,"o":"m 779 35 l 1097 35 l 1097 0 l 692 0 q 813 120 754 61 q 918 235 872 179 q 992 342 964 290 q 1019 442 1019 394 q 1005 524 1019 490 q 969 577 990 557 q 922 606 947 597 q 874 614 896 614 q 799 598 828 614 q 753 558 769 582 q 730 508 736 535 q 724 458 724 481 q 733 396 724 422 q 763 349 743 369 l 740 328 q 701 385 715 351 q 688 458 688 418 q 699 533 688 497 q 735 594 711 568 q 793 635 758 619 q 874 650 828 650 q 947 635 914 650 q 1004 593 981 619 q 1041 531 1028 567 q 1054 453 1054 494 q 1029 345 1054 399 q 965 240 1004 292 q 876 136 925 188 q 779 35 826 85 m 283 -26 l 671 1025 l 722 1025 l 333 -26 l 283 -26 m 53 933 l 53 968 l 188 968 l 188 325 l 150 325 l 150 933 l 53 933 z "},"¼":{"ha":1096,"x_min":53,"x_max":1042,"o":"m 556 185 q 749 435 651 310 q 942 683 846 560 l 942 222 l 1042 222 l 1042 185 l 942 185 l 942 0 l 903 0 l 903 185 l 556 185 m 264 -26 l 651 1025 l 703 1025 l 314 -26 l 264 -26 m 903 579 l 631 222 l 903 222 l 903 579 m 53 933 l 53 968 l 188 968 l 188 325 l 150 325 l 150 933 l 53 933 z "},"ª":{"ha":589,"x_min":75,"x_max":481,"o":"m 75 618 q 91 697 75 660 q 134 763 107 735 q 198 806 161 790 q 276 822 235 822 q 383 790 338 822 q 446 714 428 758 q 447 764 446 739 q 450 813 449 789 l 481 813 l 481 425 l 446 425 l 446 524 q 384 449 429 481 q 276 418 339 418 q 197 434 233 418 q 133 477 160 450 q 90 540 106 504 q 75 618 75 576 m 108 619 q 122 554 108 585 q 158 501 135 524 q 211 465 181 478 q 278 451 242 451 q 343 465 313 451 q 397 501 374 478 q 433 554 419 524 q 446 619 446 585 q 433 685 446 654 q 397 739 419 717 q 343 774 374 761 q 278 788 313 788 q 211 774 242 788 q 158 739 181 761 q 122 685 135 717 q 108 619 108 654 z "},"£":{"ha":799,"x_min":60,"x_max":726,"o":"m 213 49 l 524 49 q 643 64 610 49 q 676 122 676 79 l 676 196 l 726 196 l 726 119 q 724 74 726 96 q 705 36 721 53 q 656 10 689 19 q 563 0 622 0 l 60 0 l 60 49 l 121 49 q 159 57 144 49 q 181 87 174 65 q 191 144 189 108 q 193 236 193 181 l 193 417 l 103 417 l 103 467 l 193 467 l 193 711 q 260 860 193 810 q 436 910 328 910 q 583 874 531 910 q 665 781 636 839 q 647 769 656 774 q 628 758 638 764 q 597 802 613 783 q 560 834 582 821 q 509 853 539 847 q 438 860 479 860 q 347 848 383 860 q 287 815 310 836 q 254 766 264 794 q 244 706 244 738 l 244 467 l 419 467 l 419 417 l 244 417 l 244 176 q 239 102 244 136 q 213 49 233 68 z "},"¹":{"ha":258,"x_min":65,"x_max":151,"o":"m 65 951 l 65 974 l 151 974 l 151 557 l 128 557 l 128 951 l 65 951 z "},"¾":{"ha":1371,"x_min":68,"x_max":1317,"o":"m 829 185 q 1023 435 925 310 q 1217 683 1121 560 l 1217 222 l 1317 222 l 1317 185 l 1217 185 l 1217 0 l 1178 0 l 1178 185 l 829 185 m 164 663 q 267 806 214 735 q 371 949 319 876 l 89 949 l 89 986 l 440 986 q 342 853 392 919 q 243 719 292 786 q 326 699 288 717 q 394 653 365 682 q 440 585 424 625 q 457 500 457 546 q 439 414 457 454 q 391 343 421 374 q 320 295 361 313 q 233 278 279 278 q 142 298 183 278 q 68 350 100 318 l 97 379 q 156 333 121 351 q 231 315 190 315 q 303 331 269 315 q 363 371 338 346 q 403 429 389 396 q 418 500 418 463 q 403 573 418 539 q 363 632 389 607 q 303 671 338 657 q 231 685 269 685 q 164 663 194 685 m 499 -26 l 886 1026 l 938 1026 q 743 500 839 761 q 549 -26 647 239 l 499 -26 m 1178 579 l 904 222 l 1178 222 l 1178 579 z "},"²":{"ha":476,"x_min":99,"x_max":386,"o":"m 163 544 l 386 544 l 386 521 l 101 521 q 187 605 146 564 q 260 685 228 646 q 311 761 292 725 q 331 829 331 797 q 321 887 331 864 q 296 924 311 910 q 263 944 281 938 q 228 950 244 950 q 176 939 196 950 q 144 911 156 928 q 128 875 133 894 q 124 840 124 856 q 150 764 124 794 l 135 749 q 99 840 99 785 q 132 935 99 897 q 228 974 165 974 q 321 935 286 974 q 356 838 356 896 q 338 763 356 800 q 292 688 321 725 q 230 615 264 651 q 163 544 196 579 z "},"¶":{"ha":725,"x_min":54,"x_max":560,"o":"m 332 0 l 282 0 l 282 590 q 192 608 233 590 q 120 656 151 625 q 72 728 89 686 q 54 817 54 769 q 72 906 54 864 q 120 979 89 949 q 192 1028 151 1010 q 282 1046 233 1046 l 560 1046 l 560 0 l 510 0 l 510 997 l 332 997 l 332 0 z "},"¬":{"ha":736,"x_min":129,"x_max":632,"o":"m 581 207 l 581 299 l 129 299 l 129 339 l 632 339 l 632 207 l 581 207 z "},"³":{"ha":413,"x_min":85,"x_max":333,"o":"m 146 768 q 212 859 178 814 q 278 950 246 904 l 99 950 l 99 975 l 324 975 q 260 890 292 932 q 197 804 228 847 q 294 763 256 801 q 333 664 333 724 q 322 609 333 635 q 292 564 311 583 q 246 533 272 544 q 190 522 219 522 q 132 535 158 522 q 85 569 106 547 l 104 588 q 141 558 119 569 q 189 546 163 546 q 235 556 214 546 q 274 581 257 565 q 300 619 290 597 q 310 664 310 640 q 300 710 310 689 q 274 748 290 732 q 235 773 257 764 q 189 782 214 782 q 146 768 167 782 z "},"¦":{"ha":322,"x_min":136,"x_max":186,"o":"m 186 -325 l 136 -325 l 136 163 l 186 163 l 186 -325 m 186 488 l 136 488 l 136 976 l 186 976 l 186 488 z "},"&":{"ha":890,"x_min":67,"x_max":844,"o":"m 826 0 l 768 0 q 740 35 756 15 q 709 73 726 51 q 671 122 692 94 q 554 27 631 64 q 385 -10 478 -10 q 257 12 315 -10 q 156 71 199 33 q 90 158 114 108 q 67 267 67 208 q 89 370 67 322 q 149 456 111 418 q 235 517 186 493 q 340 549 285 540 q 271 640 299 603 q 238 689 243 678 q 206 756 219 722 q 193 833 193 789 q 211 919 193 881 q 259 985 229 958 q 329 1028 289 1013 q 415 1043 369 1043 q 523 1025 474 1043 q 606 985 572 1007 q 594 967 604 982 q 581 950 583 953 q 510 983 547 969 q 432 997 472 996 q 360 988 394 999 q 301 955 326 976 q 260 903 275 933 q 244 833 244 872 q 250 785 244 808 q 263 746 256 763 q 276 719 269 729 q 282 708 282 708 l 664 211 l 792 551 l 844 551 l 697 167 l 826 0 m 375 503 q 283 484 329 501 q 201 436 238 467 q 141 363 164 406 q 118 267 118 319 q 140 172 118 214 q 199 99 163 129 q 285 53 236 69 q 388 38 333 38 q 466 47 428 38 q 538 74 504 57 q 598 113 571 90 q 642 160 625 135 q 509 329 581 238 q 375 503 438 421 z "},"ß":{"ha":742,"x_min":33,"x_max":683,"o":"m 253 25 l 274 68 q 328 44 299 53 q 390 36 358 36 q 485 56 440 36 q 562 108 529 75 q 614 185 594 142 q 633 278 633 229 q 615 369 633 326 q 563 444 596 413 q 485 495 529 476 q 392 514 442 514 l 392 564 q 452 574 424 564 q 501 603 481 585 q 535 649 522 622 q 547 710 547 676 q 537 769 547 740 q 505 819 526 797 q 451 855 483 842 q 376 868 419 868 q 224 794 274 868 q 174 594 174 719 l 174 0 l 124 0 l 124 500 l 33 500 l 33 549 l 124 549 l 124 593 q 190 831 124 747 q 365 917 256 914 q 474 899 429 917 q 545 853 518 882 q 585 790 572 825 q 597 717 597 754 q 566 608 597 653 q 482 543 535 564 q 559 509 522 533 q 624 450 596 485 q 667 371 651 415 q 683 276 683 326 q 660 165 683 217 q 598 74 638 113 q 505 12 558 35 q 392 -11 451 -11 q 253 25 314 -11 z "},"¤":{"ha":631,"x_min":117,"x_max":514,"o":"m 124 501 q 135 565 124 535 q 165 619 146 594 l 117 668 l 144 696 l 193 647 q 249 681 218 668 q 315 693 279 693 q 383 681 351 693 q 438 646 414 668 l 486 694 l 514 668 l 465 619 q 507 501 507 569 q 494 435 507 465 q 463 379 482 404 l 514 326 l 486 299 l 433 351 q 315 310 383 310 q 251 320 282 310 q 197 350 221 331 l 144 297 l 117 325 l 169 378 q 124 501 124 431 m 163 501 q 174 442 163 469 q 207 393 186 414 q 256 360 228 372 q 315 347 283 347 q 375 360 347 347 q 424 393 403 372 q 456 442 444 414 q 468 501 468 469 q 456 561 468 533 q 424 610 444 589 q 375 643 403 631 q 315 656 347 656 q 256 643 283 656 q 207 610 228 631 q 174 561 186 589 q 163 501 163 533 z "},"§":{"ha":507,"x_min":82,"x_max":425,"o":"m 226 213 q 156 333 181 288 q 108 414 131 378 q 87 476 92 443 q 89 541 82 510 q 114 600 96 572 q 160 646 132 628 q 228 667 192 665 q 299 656 265 669 q 259 722 278 689 q 221 790 240 756 q 189 856 199 828 q 179 904 179 883 q 186 940 179 925 q 206 965 193 954 q 253 1002 222 986 q 307 1032 283 1018 l 332 990 q 299 971 315 979 q 267 953 283 963 q 233 898 231 932 q 276 796 236 864 l 399 586 q 421 524 417 557 q 418 460 425 492 q 392 402 411 429 q 346 357 374 375 q 277 335 314 338 q 207 346 240 332 l 286 210 q 318 144 308 172 q 328 96 328 117 q 321 60 328 75 q 301 35 314 46 q 255 -3 285 13 q 201 -32 225 -19 l 175 11 l 240 49 q 273 105 276 69 q 226 213 269 140 m 146 456 q 192 398 158 418 q 265 381 226 378 q 312 394 290 382 q 348 424 333 406 q 369 466 363 443 q 374 513 376 489 q 328 597 368 567 q 240 625 288 628 q 183 606 207 622 q 147 565 160 589 q 134 511 135 540 q 146 456 133 482 z "},"·":{"ha":268,"x_min":93,"x_max":176,"o":"m 93 390 q 106 421 93 408 q 135 433 118 433 q 164 421 151 433 q 176 390 176 408 q 164 360 176 372 q 135 349 151 349 q 106 360 118 349 q 93 390 93 372 z "},"º":{"ha":557,"x_min":75,"x_max":482,"o":"m 75 619 q 91 699 75 661 q 134 763 107 736 q 199 806 161 790 q 278 822 236 822 q 358 806 321 822 q 422 763 394 790 q 466 699 450 736 q 482 619 482 661 q 466 541 482 578 q 422 477 450 504 q 357 434 394 450 q 276 418 319 418 q 198 433 235 418 q 134 476 161 449 q 91 540 107 503 q 75 619 75 576 m 110 619 q 123 554 110 585 q 158 501 136 524 q 211 465 181 478 q 276 451 242 451 q 342 465 311 451 q 397 501 374 478 q 433 554 419 524 q 446 619 446 585 q 433 685 446 654 q 397 738 419 715 q 342 774 374 761 q 276 788 311 788 q 211 774 242 788 q 158 738 181 761 q 123 685 136 715 q 110 619 110 654 z "},"¯":{"ha":557,"x_min":118,"x_max":439,"o":"m 118 679 l 118 717 l 439 717 l 439 679 l 118 679 z "},"µ":{"ha":715,"x_min":129,"x_max":575,"o":"m 575 -4 l 536 -4 l 532 140 q 442 31 503 72 q 300 -11 381 -11 q 176 35 222 -11 l 176 -279 l 131 -279 l 131 129 q 129 150 129 136 l 129 538 l 176 538 l 176 158 q 212 75 179 110 q 306 36 244 40 q 391 51 351 36 q 461 93 431 67 q 509 156 492 119 q 526 238 526 193 l 526 538 l 575 538 l 575 -4 z "},"×":{"ha":594,"x_min":99,"x_max":497,"o":"m 456 0 l 296 158 l 139 0 l 99 42 l 256 200 l 99 357 l 139 399 l 297 242 l 456 399 q 476 378 467 389 q 496 358 486 368 l 339 200 q 418 121 379 160 q 497 42 457 82 l 456 0 z "},"O":{"ha":1154,"x_min":75,"x_max":1079,"o":"m 75 490 q 115 685 75 594 q 222 845 154 776 q 380 953 289 914 q 575 993 471 993 q 771 953 679 993 q 931 845 863 914 q 1040 685 1000 776 q 1079 490 1079 594 q 1040 295 1079 386 q 931 136 1000 204 q 771 28 863 68 q 575 -11 679 -11 q 380 28 471 -11 q 222 136 289 68 q 115 295 154 204 q 75 490 75 386 m 132 489 q 167 316 132 397 q 262 174 201 235 q 402 78 322 114 q 574 43 482 43 q 747 78 665 43 q 890 174 829 114 q 987 316 951 235 q 1022 490 1022 397 q 987 664 1022 582 q 891 806 951 746 q 749 902 831 867 q 576 938 668 938 q 403 902 485 938 q 262 806 322 867 q 167 663 201 744 q 132 489 132 582 z "},"g":{"ha":717,"x_min":56,"x_max":619,"o":"m 56 269 q 77 379 56 328 q 136 469 99 431 q 224 528 174 507 q 333 550 275 550 q 416 538 378 550 q 485 504 454 525 q 538 456 515 483 q 571 400 560 429 q 573 469 571 435 q 576 538 575 504 l 619 538 l 619 0 q 604 -99 619 -53 q 556 -181 589 -146 q 469 -237 522 -217 q 338 -258 415 -258 q 216 -235 274 -258 q 92 -147 158 -211 l 122 -114 q 181 -163 153 -144 q 236 -192 210 -182 q 287 -207 263 -203 q 336 -211 311 -211 q 446 -195 401 -211 q 517 -150 490 -179 q 557 -81 544 -121 q 571 7 569 -42 l 571 67 q 572 81 571 69 q 572 104 572 92 q 573 128 572 117 q 574 142 574 139 q 483 34 546 78 q 333 -10 421 -10 q 224 12 275 -10 q 136 72 174 33 q 77 160 99 110 q 56 269 56 211 m 104 269 q 122 178 104 221 q 172 105 140 136 q 246 56 203 74 q 338 38 289 38 q 429 56 386 38 q 503 105 472 74 q 553 178 535 136 q 571 269 571 221 q 553 361 571 318 q 503 435 535 404 q 429 485 472 467 q 338 503 386 503 q 246 485 289 503 q 172 435 203 467 q 122 361 140 404 q 104 269 104 318 z "},"d":{"ha":717,"x_min":56,"x_max":619,"o":"m 56 269 q 77 381 56 329 q 137 469 99 432 q 226 528 175 507 q 335 550 276 550 q 415 538 378 550 q 483 506 453 526 q 535 458 513 485 q 571 400 558 431 l 571 1053 l 619 1053 l 619 0 l 571 0 l 571 65 q 572 103 571 85 q 574 139 574 121 q 482 33 544 76 q 333 -10 419 -10 q 223 13 274 -10 q 135 72 172 35 q 76 160 97 110 q 56 269 56 211 m 104 269 q 122 178 104 221 q 172 105 140 136 q 246 56 203 74 q 338 38 289 38 q 429 56 386 38 q 503 105 472 74 q 553 178 535 136 q 571 269 571 221 q 553 361 571 318 q 503 435 535 404 q 429 485 472 467 q 338 503 386 503 q 246 485 289 503 q 172 435 203 467 q 122 361 140 404 q 104 269 104 318 z "},"a":{"ha":714,"x_min":54,"x_max":617,"o":"m 54 268 q 76 378 54 326 q 136 467 99 429 q 224 528 174 506 q 333 550 275 550 q 413 538 375 550 q 481 506 450 526 q 534 458 511 485 q 569 400 557 431 q 571 469 569 435 q 575 538 572 504 l 617 538 l 617 0 l 569 0 l 569 138 q 483 33 546 76 q 333 -10 421 -10 q 223 13 274 -10 q 135 72 172 35 q 76 160 97 110 q 54 268 54 211 m 101 269 q 119 178 101 221 q 169 105 138 136 q 243 56 200 74 q 335 38 286 38 q 426 56 383 38 q 501 105 469 74 q 551 178 533 136 q 569 269 569 221 q 551 361 569 318 q 501 435 533 404 q 426 485 469 467 q 335 503 383 503 q 243 485 286 503 q 169 435 200 467 q 119 361 138 404 q 101 269 101 318 z "},"n":{"ha":635,"x_min":97,"x_max":543,"o":"m 97 538 l 138 538 q 138 511 138 532 q 139 467 139 490 q 140 423 139 443 q 140 399 140 403 q 231 507 169 465 q 372 549 292 549 q 495 504 450 549 q 543 389 540 460 l 543 0 l 494 0 l 494 381 q 460 464 492 429 q 367 501 428 499 q 281 486 321 501 q 210 444 240 471 q 163 381 181 418 q 144 300 144 343 l 144 0 l 97 0 l 97 538 z "},"˛":{"ha":1038,"x_min":165,"x_max":415,"o":"m 317 -31 q 299 -72 317 -57 q 262 -101 282 -86 q 224 -135 242 -115 q 207 -189 207 -154 q 231 -256 207 -229 q 296 -282 256 -282 q 351 -265 328 -282 q 381 -219 374 -247 l 415 -235 q 367 -301 400 -279 q 293 -324 333 -324 q 201 -287 238 -324 q 165 -183 165 -251 q 178 -133 165 -160 q 222 -85 192 -107 q 241 -74 231 -79 q 260 -60 251 -68 q 275 -40 269 -51 q 281 -8 281 -28 l 281 0 l 317 0 l 317 -31 z "},"ˇ":{"ha":618,"x_min":156,"x_max":490,"o":"m 156 921 l 197 921 l 324 736 l 450 921 l 490 921 l 324 668 l 156 921 z "},"˝":{"ha":638,"x_min":125,"x_max":607,"o":"m 429 668 q 492 760 461 714 q 556 853 524 807 l 607 853 l 471 668 l 429 668 m 125 668 q 188 760 157 714 q 251 853 219 807 l 304 853 l 167 668 l 125 668 z "},"˙":{"ha":281,"x_min":94,"x_max":176,"o":"m 94 725 q 107 756 94 743 q 136 768 119 768 q 164 756 151 768 q 176 725 176 743 q 164 695 176 707 q 136 683 151 683 q 107 695 119 683 q 94 725 94 707 z "},"˘":{"ha":797,"x_min":139,"x_max":589,"o":"m 365 694 q 278 711 319 694 q 207 757 238 728 q 158 826 176 786 q 139 913 140 867 l 174 913 q 190 842 175 875 q 229 783 204 808 q 289 742 254 757 q 365 728 324 728 q 441 742 407 728 q 500 783 475 757 q 539 842 525 808 q 554 913 553 875 l 589 913 q 571 826 589 867 q 522 757 553 786 q 451 711 492 728 q 365 694 411 694 z "},"Ą":{"ha":889,"x_min":29,"x_max":939,"o":"m 840 0 l 840 -31 q 823 -72 840 -57 q 785 -101 806 -86 q 748 -135 765 -115 q 731 -189 731 -154 q 755 -256 731 -229 q 819 -282 779 -282 q 874 -265 851 -282 q 904 -219 897 -247 l 939 -235 q 890 -301 924 -279 q 817 -324 857 -324 q 725 -287 761 -324 q 689 -183 689 -251 q 702 -133 689 -160 q 746 -85 715 -107 q 765 -74 754 -79 q 784 -60 775 -68 q 799 -40 793 -51 q 804 -8 804 -28 l 804 0 l 803 0 q 726 189 767 88 q 643 399 685 290 l 246 399 q 164 189 204 290 q 88 0 124 88 l 29 0 q 92 151 58 68 q 163 326 126 235 q 238 513 200 418 q 312 700 275 608 q 383 876 349 792 q 446 1028 417 960 q 508 876 474 960 q 578 700 542 792 q 653 513 615 608 q 727 326 690 418 q 798 151 764 235 q 861 0 832 68 l 840 0 m 432 865 q 351 667 393 774 q 265 449 310 561 l 624 449 q 538 667 581 561 q 458 865 496 774 l 446 906 q 439 883 443 894 q 432 865 435 872 z "},"Ł":{"ha":782,"x_min":68,"x_max":767,"o":"m 164 0 l 164 406 l 68 372 l 68 422 l 164 456 l 164 982 l 222 982 l 222 475 l 536 585 l 536 535 l 222 425 l 222 56 l 767 56 l 767 0 l 164 0 z "},"Ľ":{"ha":772,"x_min":154,"x_max":757,"o":"m 154 0 l 154 982 l 213 982 l 213 56 l 757 56 l 757 0 l 154 0 m 424 794 l 400 822 q 442 892 429 850 q 446 982 456 933 l 486 992 q 481 883 497 935 q 424 794 464 832 z "},"Ś":{"ha":751,"x_min":58,"x_max":682,"o":"m 635 933 l 614 888 q 510 920 571 906 q 392 935 450 935 q 296 920 339 935 q 223 881 253 906 q 177 824 193 857 q 161 754 161 792 q 183 679 161 710 q 242 626 206 649 q 326 587 279 604 q 422 551 372 569 q 517 510 471 533 q 601 455 564 488 q 660 377 638 422 q 682 267 682 332 q 659 151 682 203 q 593 64 636 100 q 490 8 550 28 q 357 -11 431 -11 q 251 0 299 -11 q 165 27 203 11 q 101 59 128 43 q 58 83 74 75 l 86 135 q 140 103 108 119 q 206 74 171 88 q 281 53 242 61 q 358 44 319 44 q 450 58 403 44 q 536 98 497 71 q 600 167 575 125 q 625 268 625 210 q 603 363 625 324 q 544 428 581 401 q 460 476 507 456 q 365 514 414 496 q 269 551 315 532 q 185 597 222 571 q 126 660 149 624 q 104 749 104 696 q 124 841 104 797 q 181 917 144 885 q 269 969 218 950 q 383 988 321 988 q 451 983 415 988 q 521 970 486 978 q 585 953 556 963 q 635 933 615 943 m 313 1049 q 376 1141 344 1094 q 439 1233 407 1188 l 492 1233 l 354 1049 l 313 1049 z "},"Š":{"ha":751,"x_min":58,"x_max":682,"o":"m 635 933 l 614 888 q 510 920 571 906 q 392 935 450 935 q 296 920 339 935 q 223 881 253 906 q 177 824 193 857 q 161 754 161 792 q 183 679 161 710 q 242 626 206 649 q 326 587 279 604 q 422 551 372 569 q 517 510 471 533 q 601 455 564 488 q 660 377 638 422 q 682 267 682 332 q 659 151 682 203 q 593 64 636 100 q 490 8 550 28 q 357 -11 431 -11 q 251 0 299 -11 q 165 27 203 11 q 101 59 128 43 q 58 83 74 75 l 86 135 q 140 103 108 119 q 206 74 171 88 q 281 53 242 61 q 358 44 319 44 q 450 58 403 44 q 536 98 497 71 q 600 167 575 125 q 625 268 625 210 q 603 363 625 324 q 544 428 581 401 q 460 476 507 456 q 365 514 414 496 q 269 551 315 532 q 185 597 222 571 q 126 660 149 624 q 104 749 104 696 q 124 841 104 797 q 181 917 144 885 q 269 969 218 950 q 383 988 321 988 q 451 983 415 988 q 521 970 486 978 q 585 953 556 963 q 635 933 615 943 m 207 1271 l 249 1271 l 375 1086 l 501 1271 l 542 1271 l 375 1018 l 207 1271 z "},"Ş":{"ha":750,"x_min":58,"x_max":682,"o":"m 635 933 l 614 888 q 510 920 571 906 q 392 935 450 935 q 296 920 339 935 q 223 881 253 906 q 177 824 193 857 q 161 754 161 792 q 183 679 161 710 q 242 626 206 649 q 326 587 279 604 q 422 551 372 569 q 517 510 471 533 q 601 455 564 488 q 660 377 638 422 q 682 267 682 332 q 660 154 682 204 q 599 69 639 104 q 502 13 558 33 q 378 -11 446 -8 q 383 -40 378 -29 q 397 -60 389 -51 q 416 -74 406 -68 q 435 -85 426 -79 q 479 -133 467 -107 q 492 -183 492 -160 q 456 -287 492 -251 q 365 -324 419 -324 q 291 -301 325 -324 q 242 -235 257 -279 q 260 -228 251 -232 q 276 -219 268 -224 q 308 -265 285 -247 q 363 -282 331 -282 q 427 -256 403 -282 q 451 -189 451 -229 q 434 -135 451 -154 q 397 -101 417 -115 q 359 -72 376 -86 q 342 -31 342 -57 l 342 -11 q 242 2 288 -10 q 160 29 196 14 q 98 60 124 44 q 58 83 72 75 l 86 135 q 140 103 108 119 q 206 74 171 88 q 281 53 242 61 q 358 44 319 44 q 450 58 403 44 q 536 98 497 71 q 600 167 575 125 q 625 268 625 210 q 603 363 625 324 q 544 428 581 401 q 460 476 507 456 q 365 514 414 496 q 269 551 315 532 q 185 597 222 571 q 126 660 149 624 q 104 749 104 696 q 124 841 104 797 q 181 917 144 885 q 269 969 218 950 q 383 988 321 988 q 451 983 415 988 q 521 970 486 978 q 585 953 556 963 q 635 933 615 943 z "},"Ť":{"ha":713,"x_min":57,"x_max":656,"o":"m 656 982 l 656 926 l 383 926 l 383 0 l 326 0 l 326 926 l 57 926 l 57 982 l 656 982 m 186 1271 l 228 1271 l 354 1086 l 481 1271 l 521 1271 l 354 1018 l 186 1271 z "},"Ź":{"ha":872,"x_min":24,"x_max":838,"o":"m 160 982 l 801 982 l 124 56 l 838 56 l 838 0 l 24 0 q 183 222 94 99 q 363 473 271 346 q 542 721 454 600 q 701 935 631 842 l 157 935 q 88 949 113 935 q 63 1004 63 964 l 63 1032 l 118 1032 l 118 1014 q 127 990 118 999 q 160 982 136 982 m 417 1049 q 480 1141 449 1094 q 543 1233 511 1188 l 596 1233 l 458 1049 l 417 1049 z "},"Ž":{"ha":872,"x_min":24,"x_max":838,"o":"m 160 982 l 801 982 l 124 56 l 838 56 l 838 0 l 24 0 q 183 222 94 99 q 363 473 271 346 q 542 721 454 600 q 701 935 631 842 l 157 935 q 88 949 113 935 q 63 1004 63 964 l 63 1032 l 118 1032 l 118 1014 q 127 990 118 999 q 160 982 136 982 m 272 1271 l 314 1271 l 440 1086 l 567 1271 l 607 1271 l 440 1018 l 272 1271 z "},"Ż":{"ha":872,"x_min":24,"x_max":838,"o":"m 160 982 l 801 982 l 124 56 l 838 56 l 838 0 l 24 0 q 183 222 94 99 q 363 473 271 346 q 542 721 454 600 q 701 935 631 842 l 157 935 q 88 949 113 935 q 63 1004 63 964 l 63 1032 l 118 1032 l 118 1014 q 127 990 118 999 q 160 982 136 982 m 408 1076 q 421 1107 408 1094 q 450 1119 433 1119 q 478 1107 465 1119 q 490 1076 490 1094 q 478 1047 490 1058 q 450 1035 465 1035 q 421 1047 433 1035 q 408 1076 408 1058 z "},"ą":{"ha":715,"x_min":56,"x_max":707,"o":"m 618 0 l 571 0 l 571 138 q 485 33 547 76 q 335 -10 422 -10 q 224 13 275 -10 q 136 72 174 35 q 77 160 99 110 q 56 268 56 211 q 78 378 56 326 q 138 467 100 429 q 226 528 175 506 q 335 550 276 550 q 414 538 376 550 q 482 506 451 526 q 535 458 513 485 q 571 400 558 431 q 572 469 571 435 q 576 538 574 504 l 618 538 l 618 0 m 103 269 q 121 178 103 221 q 170 105 139 136 q 244 56 201 74 q 336 38 288 38 q 428 56 385 38 q 503 105 471 74 q 553 178 535 136 q 571 269 571 221 q 553 361 571 318 q 503 435 535 404 q 428 485 471 467 q 336 503 385 503 q 244 485 288 503 q 170 435 201 467 q 121 361 139 404 q 103 269 103 318 m 608 0 l 572 0 l 572 -8 q 567 -40 572 -28 q 552 -60 561 -51 q 533 -74 543 -68 q 514 -85 522 -79 q 470 -133 483 -107 q 457 -183 457 -160 q 493 -287 457 -251 q 585 -324 529 -324 q 658 -301 625 -324 q 707 -235 692 -279 l 672 -219 q 642 -265 665 -247 q 588 -282 619 -282 q 523 -256 547 -282 q 499 -189 499 -229 q 516 -135 499 -154 q 553 -101 533 -115 q 591 -72 574 -86 q 608 -31 608 -57 l 608 0 z "},"ł":{"ha":275,"x_min":35,"x_max":265,"o":"m 160 0 l 111 0 l 111 399 l 35 372 l 35 422 l 111 449 l 111 1053 l 160 1053 l 160 465 l 265 503 l 265 453 l 160 415 l 160 0 z "},"ľ":{"ha":254,"x_min":103,"x_max":329,"o":"m 151 0 l 103 0 l 103 1053 l 151 1053 l 151 0 m 256 794 l 232 822 q 274 892 261 850 q 278 982 288 933 l 318 992 q 313 883 329 935 q 256 794 296 832 z "},"ś":{"ha":442,"x_min":50,"x_max":389,"o":"m 368 485 l 340 451 q 289 485 324 472 q 224 499 254 499 q 188 494 207 499 q 154 478 169 489 q 128 449 139 467 q 118 407 118 432 q 138 351 118 372 q 188 316 158 331 q 253 290 218 301 q 319 261 289 278 q 369 217 349 244 q 389 147 389 190 q 378 87 389 115 q 344 36 367 58 q 291 1 322 14 q 218 -11 260 -11 q 128 4 175 -11 q 50 56 81 19 q 69 76 58 64 q 82 90 79 88 q 104 71 89 81 q 140 53 119 61 q 181 41 160 46 q 219 36 201 36 q 257 42 236 36 q 297 60 278 47 q 328 93 315 72 q 342 143 342 114 q 322 201 342 179 q 271 236 301 222 q 206 261 240 250 q 140 290 171 272 q 90 334 110 307 q 69 406 69 361 q 83 468 69 442 q 119 512 97 494 q 167 538 140 529 q 222 546 194 546 q 297 532 256 546 q 368 485 338 518 m 200 668 q 263 760 232 714 q 326 853 294 807 l 379 853 l 242 668 l 200 668 z "},"š":{"ha":442,"x_min":50,"x_max":389,"o":"m 368 485 l 340 451 q 289 485 324 472 q 224 499 254 499 q 188 494 207 499 q 154 478 169 489 q 128 449 139 467 q 118 407 118 432 q 138 351 118 372 q 188 316 158 331 q 253 290 218 301 q 319 261 289 278 q 369 217 349 244 q 389 147 389 190 q 378 87 389 115 q 344 36 367 58 q 291 1 322 14 q 218 -11 260 -11 q 128 4 175 -11 q 50 56 81 19 q 69 76 58 64 q 82 90 79 88 q 104 71 89 81 q 140 53 119 61 q 181 41 160 46 q 219 36 201 36 q 257 42 236 36 q 297 60 278 47 q 328 93 315 72 q 342 143 342 114 q 322 201 342 179 q 271 236 301 222 q 206 261 240 250 q 140 290 171 272 q 90 334 110 307 q 69 406 69 361 q 83 468 69 442 q 119 512 97 494 q 167 538 140 529 q 222 546 194 546 q 297 532 256 546 q 368 485 338 518 m 51 921 l 93 921 l 219 736 l 346 921 l 386 921 l 219 668 l 51 921 z "},"ş":{"ha":442,"x_min":50,"x_max":389,"o":"m 368 485 l 340 451 q 289 485 324 472 q 224 499 254 499 q 188 494 207 499 q 154 478 169 489 q 128 449 139 467 q 118 407 118 432 q 138 351 118 372 q 188 316 158 331 q 253 290 218 301 q 319 261 289 278 q 369 217 349 244 q 389 147 389 190 q 348 40 389 85 q 232 -10 307 -6 q 251 -60 232 -46 q 289 -85 271 -74 q 333 -133 321 -107 q 346 -183 346 -160 q 310 -287 346 -251 q 219 -324 274 -324 q 145 -301 179 -324 q 96 -235 111 -279 q 114 -228 106 -232 q 131 -219 122 -224 q 162 -265 139 -247 q 217 -282 185 -282 q 281 -256 257 -282 q 306 -189 306 -229 q 288 -135 306 -154 q 251 -101 271 -115 q 213 -72 231 -86 q 196 -31 196 -57 l 196 -10 q 116 8 156 -7 q 50 56 76 24 q 69 76 58 64 q 82 90 79 88 q 104 71 89 81 q 140 53 119 61 q 181 41 160 46 q 219 36 201 36 q 257 42 236 36 q 297 60 278 47 q 328 93 315 72 q 342 143 342 114 q 322 201 342 179 q 271 236 301 222 q 206 261 240 250 q 140 290 171 272 q 90 334 110 307 q 69 406 69 361 q 83 468 69 442 q 119 512 97 494 q 167 538 140 529 q 222 546 194 546 q 297 532 256 546 q 368 485 338 518 z "},"ť":{"ha":371,"x_min":21,"x_max":389,"o":"m 139 774 l 188 774 l 188 529 l 357 529 l 357 486 l 188 486 l 188 0 l 139 0 l 139 486 l 21 486 l 21 529 l 139 529 l 139 774 m 315 794 l 292 822 q 334 892 321 850 q 338 982 347 933 l 378 992 q 372 883 389 935 q 315 794 356 832 z "},"ź":{"ha":517,"x_min":39,"x_max":478,"o":"m 472 0 l 39 0 l 392 494 l 131 494 q 63 510 86 494 q 39 568 39 526 l 39 589 l 83 589 l 83 571 q 129 538 83 538 l 478 538 l 128 47 l 472 47 l 472 0 m 218 668 q 281 760 250 714 q 344 853 313 807 l 397 853 l 260 668 l 218 668 z "},"ž":{"ha":517,"x_min":39,"x_max":478,"o":"m 472 0 l 39 0 l 392 494 l 131 494 q 63 510 86 494 q 39 568 39 526 l 39 589 l 83 589 l 83 571 q 129 538 83 538 l 478 538 l 128 47 l 472 47 l 472 0 m 101 921 l 143 921 l 269 736 l 396 921 l 436 921 l 269 668 l 101 921 z "},"ż":{"ha":517,"x_min":39,"x_max":478,"o":"m 472 0 l 39 0 l 392 494 l 131 494 q 63 510 86 494 q 39 568 39 526 l 39 589 l 83 589 l 83 571 q 129 538 83 538 l 478 538 l 128 47 l 472 47 l 472 0 m 206 725 q 218 756 206 743 q 247 768 231 768 q 275 756 263 768 q 288 725 288 743 q 275 695 288 707 q 247 683 263 683 q 218 695 231 683 q 206 725 206 707 z "},"Ŕ":{"ha":813,"x_min":154,"x_max":775,"o":"m 154 0 l 154 982 l 372 982 q 477 967 424 982 q 574 919 531 951 q 646 834 618 886 q 674 708 674 782 q 633 553 674 626 q 504 444 593 481 q 536 392 514 429 q 586 310 558 356 q 644 213 614 264 q 702 118 675 163 q 749 42 729 74 q 775 0 768 10 l 706 0 q 683 38 700 8 q 641 107 665 67 q 588 194 617 147 q 533 285 560 240 q 483 367 506 329 q 446 428 460 406 q 406 423 426 425 q 364 421 386 421 l 213 421 l 213 0 l 154 0 m 213 476 l 365 476 q 488 501 439 476 q 565 561 536 525 q 604 638 593 597 q 615 713 615 679 q 598 796 615 757 q 548 864 581 835 q 469 910 515 893 q 367 928 424 928 l 213 928 l 213 476 m 365 1049 q 428 1141 397 1094 q 492 1233 460 1188 l 544 1233 l 407 1049 l 365 1049 z "},"Ă":{"ha":889,"x_min":29,"x_max":861,"o":"m 861 0 q 798 151 832 68 q 727 326 764 235 q 653 513 690 418 q 578 700 615 608 q 508 876 542 792 q 446 1028 474 960 q 383 876 417 960 q 312 700 349 792 q 238 513 275 608 q 163 326 200 418 q 92 151 126 235 q 29 0 58 68 l 88 0 q 164 189 124 88 q 246 399 204 290 l 643 399 q 726 189 685 290 q 803 0 767 88 l 861 0 m 432 865 q 439 883 435 872 q 446 906 443 894 l 458 865 q 538 667 496 774 q 624 449 581 561 l 265 449 q 351 667 310 561 q 432 865 393 774 m 447 1050 q 360 1067 401 1050 q 289 1113 319 1083 q 240 1182 258 1142 q 221 1268 222 1222 l 256 1268 q 272 1197 257 1231 q 311 1138 286 1164 q 371 1098 336 1113 q 447 1083 406 1083 q 523 1098 489 1083 q 582 1138 557 1113 q 621 1197 607 1164 q 636 1268 635 1231 l 671 1268 q 653 1182 671 1222 q 604 1113 635 1142 q 533 1067 574 1083 q 447 1050 493 1050 z "},"Ĺ":{"ha":772,"x_min":154,"x_max":757,"o":"m 154 0 l 154 982 l 213 982 l 213 56 l 757 56 l 757 0 l 154 0 m 382 1049 q 445 1141 414 1094 q 508 1233 476 1188 l 561 1233 l 424 1049 l 382 1049 z "},"Ć":{"ha":894,"x_min":76,"x_max":844,"o":"m 844 63 q 727 10 796 32 q 572 -11 658 -11 q 368 28 460 -11 q 212 136 276 68 q 112 294 147 204 q 76 485 76 385 q 116 685 76 593 q 224 847 156 778 q 384 954 293 915 q 579 993 475 993 q 722 974 654 993 q 839 924 790 956 q 826 903 831 911 q 811 878 822 896 q 702 924 763 908 q 582 939 642 939 q 407 903 489 939 q 265 806 325 868 q 169 663 204 744 q 133 488 133 581 q 165 320 133 400 q 253 180 196 240 q 392 83 311 119 q 572 47 474 47 q 713 67 649 47 q 818 114 776 88 l 844 63 m 496 1049 q 559 1141 528 1094 q 622 1233 590 1188 l 675 1233 l 538 1049 l 496 1049 z "},"Č":{"ha":894,"x_min":76,"x_max":844,"o":"m 844 63 q 727 10 796 32 q 572 -11 658 -11 q 368 28 460 -11 q 212 136 276 68 q 112 294 147 204 q 76 485 76 385 q 116 685 76 593 q 224 847 156 778 q 384 954 293 915 q 579 993 475 993 q 722 974 654 993 q 839 924 790 956 q 826 903 831 911 q 811 878 822 896 q 702 924 763 908 q 582 939 642 939 q 407 903 489 939 q 265 806 325 868 q 169 663 204 744 q 133 488 133 581 q 165 320 133 400 q 253 180 196 240 q 392 83 311 119 q 572 47 474 47 q 713 67 649 47 q 818 114 776 88 l 844 63 m 400 1271 l 442 1271 l 568 1086 l 694 1271 l 735 1271 l 568 1018 l 400 1271 z "},"Ę":{"ha":849,"x_min":154,"x_max":872,"o":"m 775 0 l 154 0 l 154 982 l 756 982 l 756 929 l 213 929 l 213 521 l 700 521 l 700 468 l 213 468 l 213 54 l 775 54 l 775 0 m 774 0 l 738 0 l 738 -8 q 732 -40 738 -28 q 717 -60 726 -51 q 698 -74 708 -68 q 679 -85 688 -79 q 635 -133 649 -107 q 622 -183 622 -160 q 658 -287 622 -251 q 750 -324 694 -324 q 824 -301 790 -324 q 872 -235 857 -279 l 838 -219 q 808 -265 831 -247 q 753 -282 785 -282 q 688 -256 713 -282 q 664 -189 664 -229 q 681 -135 664 -154 q 719 -101 699 -115 q 756 -72 739 -86 q 774 -31 774 -57 l 774 0 z "},"Ě":{"ha":849,"x_min":154,"x_max":775,"o":"m 154 0 l 154 982 l 756 982 l 756 929 l 213 929 l 213 521 l 700 521 l 700 468 l 213 468 l 213 54 l 775 54 l 775 0 l 154 0 m 332 1271 l 374 1271 l 500 1086 l 626 1271 l 667 1271 l 500 1018 l 332 1271 z "},"Ď":{"ha":988,"x_min":154,"x_max":910,"o":"m 154 982 l 368 982 q 619 937 517 982 q 787 820 722 892 q 881 660 851 749 q 910 488 910 572 q 870 285 910 375 q 763 132 831 196 q 606 34 696 68 q 415 0 515 0 l 154 0 l 154 982 m 415 56 q 585 85 506 56 q 724 172 665 115 q 818 308 783 228 q 853 490 853 389 q 824 651 853 572 q 738 790 796 729 q 593 888 681 851 q 389 925 506 925 l 211 925 l 211 56 l 415 56 m 292 1271 l 333 1271 l 460 1086 l 586 1271 l 626 1271 l 460 1018 l 292 1271 z "},"Đ":{"ha":997,"x_min":78,"x_max":919,"o":"m 78 560 l 164 560 l 164 982 l 378 982 q 629 937 526 982 q 797 820 732 892 q 890 660 861 749 q 919 488 919 572 q 880 285 919 375 q 773 132 840 196 q 615 34 706 68 q 425 0 525 0 l 164 0 l 164 517 l 78 517 l 78 560 m 425 56 q 595 85 515 56 q 734 172 675 115 q 828 308 793 228 q 863 490 863 389 q 834 651 863 572 q 748 790 806 729 q 603 888 690 851 q 399 925 515 925 l 221 925 l 221 560 l 475 560 l 475 517 l 221 517 l 221 56 l 425 56 z "},"Ń":{"ha":1126,"x_min":153,"x_max":972,"o":"m 972 982 l 972 -44 q 794 171 893 54 q 595 408 696 288 q 400 645 494 529 q 233 857 306 761 l 207 893 l 211 849 l 211 0 l 153 0 l 153 1028 q 330 810 233 926 q 526 574 426 693 q 722 339 626 454 q 893 126 817 224 l 919 90 l 915 135 l 915 982 l 972 982 m 535 1049 q 598 1141 567 1094 q 661 1233 629 1188 l 714 1233 l 576 1049 l 535 1049 z "},"Ň":{"ha":1126,"x_min":153,"x_max":972,"o":"m 972 982 l 972 -44 q 794 171 893 54 q 595 408 696 288 q 400 645 494 529 q 233 857 306 761 l 207 893 l 211 849 l 211 0 l 153 0 l 153 1028 q 330 810 233 926 q 526 574 426 693 q 722 339 626 454 q 893 126 817 224 l 919 90 l 915 135 l 915 982 l 972 982 m 401 1271 l 443 1271 l 569 1086 l 696 1271 l 736 1271 l 569 1018 l 401 1271 z "},"Ő":{"ha":1154,"x_min":75,"x_max":1079,"o":"m 75 490 q 115 685 75 594 q 222 845 154 776 q 380 953 289 914 q 575 993 471 993 q 771 953 679 993 q 931 845 863 914 q 1040 685 1000 776 q 1079 490 1079 594 q 1040 295 1079 386 q 931 136 1000 204 q 771 28 863 68 q 575 -11 679 -11 q 380 28 471 -11 q 222 136 289 68 q 115 295 154 204 q 75 490 75 386 m 132 489 q 167 316 132 397 q 262 174 201 235 q 402 78 322 114 q 574 43 482 43 q 747 78 665 43 q 890 174 829 114 q 987 316 951 235 q 1022 490 1022 397 q 987 664 1022 582 q 891 806 951 746 q 749 902 831 867 q 576 938 668 938 q 403 902 485 938 q 262 806 322 867 q 167 663 201 744 q 132 489 132 582 m 700 1047 q 763 1140 732 1093 q 826 1232 794 1186 l 878 1232 l 742 1047 l 700 1047 m 396 1047 q 459 1140 428 1093 q 522 1232 490 1186 l 575 1232 l 438 1047 l 396 1047 z "},"Ř":{"ha":813,"x_min":154,"x_max":775,"o":"m 154 0 l 154 982 l 372 982 q 477 967 424 982 q 574 919 531 951 q 646 834 618 886 q 674 708 674 782 q 633 553 674 626 q 504 444 593 481 q 536 392 514 429 q 586 310 558 356 q 644 213 614 264 q 702 118 675 163 q 749 42 729 74 q 775 0 768 10 l 706 0 q 683 38 700 8 q 641 107 665 67 q 588 194 617 147 q 533 285 560 240 q 483 367 506 329 q 446 428 460 406 q 406 423 426 425 q 364 421 386 421 l 213 421 l 213 0 l 154 0 m 213 476 l 365 476 q 488 501 439 476 q 565 561 536 525 q 604 638 593 597 q 615 713 615 679 q 598 796 615 757 q 548 864 581 835 q 469 910 515 893 q 367 928 424 928 l 213 928 l 213 476 m 226 1271 l 268 1271 l 394 1086 l 521 1271 l 561 1271 l 394 1018 l 226 1271 z "},"Ů":{"ha":947,"x_min":140,"x_max":807,"o":"m 419 1143 q 438 1099 419 1118 q 482 1081 457 1081 q 526 1099 507 1081 q 544 1143 544 1118 q 526 1187 544 1168 q 482 1206 507 1206 q 438 1187 457 1206 q 419 1143 419 1168 m 386 1143 q 414 1212 386 1183 q 482 1240 442 1240 q 550 1212 522 1240 q 578 1143 578 1183 q 550 1075 578 1103 q 482 1047 522 1047 q 414 1075 442 1047 q 386 1143 386 1103 m 474 -11 q 342 11 403 -11 q 236 76 281 33 q 166 183 192 119 q 140 326 140 246 l 140 982 l 199 982 l 199 331 q 219 210 199 264 q 276 119 240 157 q 363 63 313 82 q 474 43 414 43 q 583 63 532 43 q 670 119 633 82 q 728 210 707 157 q 749 331 749 264 l 749 982 l 807 982 l 807 326 q 781 183 807 246 q 710 76 756 119 q 605 11 665 33 q 474 -11 544 -11 z "},"Ű":{"ha":947,"x_min":140,"x_max":807,"o":"m 474 -11 q 342 11 403 -11 q 236 76 281 33 q 166 183 192 119 q 140 326 140 246 l 140 982 l 199 982 l 199 331 q 219 210 199 264 q 276 119 240 157 q 363 63 313 82 q 474 43 414 43 q 583 63 532 43 q 670 119 633 82 q 728 210 707 157 q 749 331 749 264 l 749 982 l 807 982 l 807 326 q 781 183 807 246 q 710 76 756 119 q 605 11 665 33 q 474 -11 544 -11 m 585 1047 q 648 1140 617 1093 q 711 1232 679 1186 l 763 1232 l 626 1047 l 585 1047 m 281 1047 q 344 1140 313 1093 q 407 1232 375 1186 l 460 1232 l 322 1047 l 281 1047 z "},"Ţ":{"ha":713,"x_min":57,"x_max":656,"o":"m 656 982 l 656 926 l 383 926 l 383 0 l 326 0 l 326 926 l 57 926 l 57 982 l 656 982 m 386 -31 l 267 -317 l 219 -317 q 274 -174 247 -244 q 328 -31 300 -103 l 386 -31 z "},"ŕ":{"ha":376,"x_min":97,"x_max":372,"o":"m 364 492 q 281 476 321 490 q 211 437 242 463 q 163 376 181 411 q 144 297 144 340 l 144 0 l 97 0 l 97 538 l 138 538 q 138 511 138 532 q 139 467 139 490 q 140 423 139 443 q 140 399 140 403 q 237 508 172 468 q 372 549 301 547 l 364 492 m 179 668 q 242 760 211 714 q 306 853 274 807 l 358 853 l 221 668 l 179 668 z "},"ă":{"ha":714,"x_min":54,"x_max":617,"o":"m 54 268 q 76 378 54 326 q 136 467 99 429 q 224 528 174 506 q 333 550 275 550 q 413 538 375 550 q 481 506 450 526 q 534 458 511 485 q 569 400 557 431 q 571 469 569 435 q 575 538 572 504 l 617 538 l 617 0 l 569 0 l 569 138 q 483 33 546 76 q 333 -10 421 -10 q 223 13 274 -10 q 135 72 172 35 q 76 160 97 110 q 54 268 54 211 m 101 269 q 119 178 101 221 q 169 105 138 136 q 243 56 200 74 q 335 38 286 38 q 426 56 383 38 q 501 105 469 74 q 551 178 533 136 q 569 269 569 221 q 551 361 569 318 q 501 435 533 404 q 426 485 469 467 q 335 503 383 503 q 243 485 286 503 q 169 435 200 467 q 119 361 138 404 q 101 269 101 318 m 369 694 q 283 711 324 694 q 211 757 242 728 q 163 826 181 786 q 143 913 144 867 l 178 913 q 194 842 179 875 q 233 783 208 808 q 293 742 258 757 q 369 728 328 728 q 445 742 411 728 q 504 783 479 757 q 543 842 529 808 q 558 913 557 875 l 593 913 q 575 826 593 867 q 526 757 557 786 q 456 711 496 728 q 369 694 415 694 z "},"ĺ":{"ha":254,"x_min":75,"x_max":254,"o":"m 151 0 l 103 0 l 103 1053 l 151 1053 l 151 0 m 75 1079 q 138 1172 107 1125 q 201 1264 169 1218 l 254 1264 l 117 1079 l 75 1079 z "},"ć":{"ha":557,"x_min":54,"x_max":513,"o":"m 481 88 q 497 70 489 79 q 511 51 504 61 q 431 7 475 24 q 335 -10 386 -10 q 225 13 276 -10 q 135 72 174 35 q 76 160 97 110 q 54 269 54 211 q 76 379 54 328 q 135 468 97 431 q 225 528 174 506 q 335 550 276 550 q 431 533 386 550 q 513 489 476 517 q 497 471 506 479 q 481 451 489 463 q 414 489 451 475 q 335 503 376 503 q 242 485 285 503 q 169 435 200 467 q 119 361 138 404 q 101 269 101 318 q 119 178 101 221 q 169 105 138 136 q 242 56 200 74 q 335 38 285 38 q 414 51 376 38 q 481 88 451 64 m 272 668 q 335 760 304 714 q 399 853 367 807 l 451 853 l 314 668 l 272 668 z "},"č":{"ha":557,"x_min":54,"x_max":513,"o":"m 481 88 q 497 70 489 79 q 511 51 504 61 q 431 7 475 24 q 335 -10 386 -10 q 225 13 276 -10 q 135 72 174 35 q 76 160 97 110 q 54 269 54 211 q 76 379 54 328 q 135 468 97 431 q 225 528 174 506 q 335 550 276 550 q 431 533 386 550 q 513 489 476 517 q 497 471 506 479 q 481 451 489 463 q 414 489 451 475 q 335 503 376 503 q 242 485 285 503 q 169 435 200 467 q 119 361 138 404 q 101 269 101 318 q 119 178 101 221 q 169 105 138 136 q 242 56 200 74 q 335 38 285 38 q 414 51 376 38 q 481 88 451 64 m 163 921 l 204 921 l 331 736 l 457 921 l 497 921 l 331 668 l 163 921 z "},"ę":{"ha":613,"x_min":56,"x_max":581,"o":"m 357 0 l 321 0 l 321 -8 l 321 -10 q 216 16 264 -7 q 132 76 168 39 q 76 163 96 114 q 56 269 56 213 q 78 379 56 328 q 138 469 100 431 q 226 529 175 507 q 335 551 276 551 q 487 499 424 551 q 581 367 550 447 q 472 324 531 347 q 353 275 414 300 q 232 226 292 250 q 119 181 172 201 q 203 77 146 117 q 335 38 261 38 q 424 54 382 38 q 496 100 465 71 l 532 65 q 452 14 497 33 q 357 -8 407 -6 l 357 0 m 519 381 q 447 469 494 436 q 335 503 399 503 q 244 484 286 503 q 170 434 201 465 q 121 360 139 403 q 103 271 103 318 q 105 242 103 256 q 110 214 107 228 q 210 255 157 233 q 316 298 263 276 q 422 340 369 319 q 519 381 474 361 m 336 -10 l 321 -10 q 300 -60 319 -46 q 263 -85 281 -74 q 219 -133 232 -107 q 206 -183 206 -160 q 242 -287 206 -251 q 333 -324 278 -324 q 407 -301 374 -324 q 456 -235 440 -279 l 421 -219 q 391 -265 414 -247 q 336 -282 368 -282 q 272 -256 296 -282 q 247 -189 247 -229 q 265 -135 247 -154 q 302 -101 282 -115 q 340 -72 322 -86 q 357 -31 357 -57 l 357 -8 q 336 -10 350 -10 z "},"ě":{"ha":611,"x_min":54,"x_max":579,"o":"m 531 65 q 442 10 493 31 q 335 -10 392 -10 q 225 13 276 -10 q 135 72 174 35 q 76 160 97 110 q 54 269 54 211 q 76 379 54 328 q 136 469 99 431 q 224 529 174 507 q 333 551 275 551 q 485 499 422 551 q 579 367 549 447 q 471 324 529 347 q 351 275 413 300 q 231 226 290 250 q 118 181 171 201 q 202 77 144 117 q 333 38 260 38 q 422 54 381 38 q 494 100 464 71 l 531 65 m 518 381 q 445 469 493 436 q 333 503 397 503 q 242 484 285 503 q 169 434 200 465 q 119 360 138 403 q 101 271 101 318 q 103 242 101 256 q 108 214 106 228 q 208 255 156 233 q 315 298 261 276 q 420 340 368 319 q 518 381 472 361 m 153 921 l 194 921 l 321 736 l 447 921 l 488 921 l 321 668 l 153 921 z "},"ď":{"ha":717,"x_min":56,"x_max":797,"o":"m 56 269 q 77 381 56 329 q 137 469 99 432 q 226 528 175 507 q 335 550 276 550 q 415 538 378 550 q 483 506 453 526 q 535 458 513 485 q 571 400 558 431 l 571 1053 l 619 1053 l 619 0 l 571 0 l 571 65 q 572 103 571 85 q 574 139 574 121 q 482 33 544 76 q 333 -10 419 -10 q 223 13 274 -10 q 135 72 172 35 q 76 160 97 110 q 56 269 56 211 m 104 269 q 122 178 104 221 q 172 105 140 136 q 246 56 203 74 q 338 38 289 38 q 429 56 386 38 q 503 105 472 74 q 553 178 535 136 q 571 269 571 221 q 553 361 571 318 q 503 435 535 404 q 429 485 472 467 q 338 503 386 503 q 246 485 289 503 q 172 435 203 467 q 122 361 140 404 q 104 269 104 318 m 724 794 l 700 822 q 742 892 729 850 q 746 982 756 933 l 786 992 q 781 883 797 935 q 724 794 764 832 z "},"đ":{"ha":717,"x_min":56,"x_max":708,"o":"m 56 269 q 77 381 56 329 q 137 469 99 432 q 226 528 175 507 q 335 550 276 550 q 415 538 378 550 q 483 506 453 526 q 535 458 513 485 q 571 400 558 431 l 571 851 l 619 851 l 619 0 l 571 0 l 571 65 q 572 103 571 85 q 574 139 574 121 q 482 33 544 76 q 333 -10 419 -10 q 223 13 274 -10 q 135 72 172 35 q 76 160 97 110 q 56 269 56 211 m 104 269 q 122 178 104 221 q 172 105 140 136 q 246 56 203 74 q 338 38 289 38 q 429 56 386 38 q 503 105 472 74 q 553 178 535 136 q 571 269 571 221 q 553 361 571 318 q 503 435 535 404 q 429 485 472 467 q 338 503 386 503 q 246 485 289 503 q 172 435 203 467 q 122 361 140 404 q 104 269 104 318 m 311 851 l 571 851 l 571 894 l 311 894 l 311 851 m 571 1053 l 619 1053 l 619 894 l 571 894 l 571 1053 m 708 851 l 708 894 l 619 894 l 619 851 l 708 851 z "},"ń":{"ha":635,"x_min":97,"x_max":543,"o":"m 97 538 l 138 538 q 138 511 138 532 q 139 467 139 490 q 140 423 139 443 q 140 399 140 403 q 231 507 169 465 q 372 549 292 549 q 495 504 450 549 q 543 389 540 460 l 543 0 l 494 0 l 494 381 q 460 464 492 429 q 367 501 428 499 q 281 486 321 501 q 210 444 240 471 q 163 381 181 418 q 144 300 144 343 l 144 0 l 97 0 l 97 538 m 283 668 q 347 760 315 714 q 410 853 378 807 l 463 853 l 325 668 l 283 668 z "},"ň":{"ha":635,"x_min":97,"x_max":543,"o":"m 97 538 l 138 538 q 138 511 138 532 q 139 467 139 490 q 140 423 139 443 q 140 399 140 403 q 231 507 169 465 q 372 549 292 549 q 495 504 450 549 q 543 389 540 460 l 543 0 l 494 0 l 494 381 q 460 464 492 429 q 367 501 428 499 q 281 486 321 501 q 210 444 240 471 q 163 381 181 418 q 144 300 144 343 l 144 0 l 97 0 l 97 538 m 156 921 l 197 921 l 324 736 l 450 921 l 490 921 l 324 668 l 156 921 z "},"ő":{"ha":674,"x_min":56,"x_max":631,"o":"m 56 269 q 78 379 56 328 q 138 469 100 431 q 228 529 176 507 q 338 551 279 551 q 447 529 396 551 q 537 469 499 507 q 597 379 575 431 q 619 269 619 328 q 597 160 619 211 q 537 72 575 110 q 447 13 499 35 q 336 -10 396 -10 q 226 12 278 -10 q 138 71 175 33 q 78 159 100 108 q 56 269 56 210 m 104 269 q 122 178 104 221 q 172 105 140 136 q 245 56 203 74 q 336 38 288 38 q 427 56 385 38 q 501 105 469 74 q 551 178 533 136 q 569 269 569 221 q 551 360 569 318 q 501 435 533 403 q 427 485 469 467 q 336 503 385 503 q 245 485 288 503 q 172 435 203 467 q 122 360 140 403 q 104 269 104 318 m 453 668 q 516 760 485 714 q 579 853 547 807 l 631 853 l 494 668 l 453 668 m 149 668 q 212 760 181 714 q 275 853 243 807 l 328 853 l 190 668 l 149 668 z "},"ř":{"ha":376,"x_min":51,"x_max":386,"o":"m 364 492 q 281 476 321 490 q 211 437 242 463 q 163 376 181 411 q 144 297 144 340 l 144 0 l 97 0 l 97 538 l 138 538 q 138 511 138 532 q 139 467 139 490 q 140 423 139 443 q 140 399 140 403 q 237 508 172 468 q 372 549 301 547 l 364 492 m 51 921 l 93 921 l 219 736 l 346 921 l 386 921 l 219 668 l 51 921 z "},"ů":{"ha":635,"x_min":92,"x_max":538,"o":"m 258 681 q 276 637 258 656 q 321 618 294 618 q 365 637 346 618 q 383 681 383 656 q 365 724 383 706 q 321 743 346 743 q 276 724 294 743 q 258 681 258 706 m 224 681 q 252 749 224 721 q 321 778 281 778 q 389 749 361 778 q 417 681 417 721 q 389 613 417 640 q 321 585 361 585 q 252 613 281 585 q 224 681 224 640 m 538 -4 l 499 -4 l 494 140 q 404 31 465 72 q 263 -11 343 -11 q 140 34 185 -11 q 92 150 94 79 l 92 538 l 139 538 l 139 158 q 174 75 142 110 q 268 36 207 40 q 353 51 314 36 q 424 93 393 67 q 472 156 454 119 q 489 238 489 193 l 489 538 l 538 538 l 538 -4 z "},"ű":{"ha":635,"x_min":92,"x_max":607,"o":"m 538 -4 l 499 -4 l 494 140 q 404 31 465 72 q 263 -11 343 -11 q 140 34 185 -11 q 92 150 94 79 l 92 538 l 139 538 l 139 158 q 174 75 142 110 q 268 36 207 40 q 353 51 314 36 q 424 93 393 67 q 472 156 454 119 q 489 238 489 193 l 489 538 l 538 538 l 538 -4 m 429 668 q 492 760 461 714 q 556 853 524 807 l 607 853 l 471 668 l 429 668 m 125 668 q 188 760 157 714 q 251 853 219 807 l 304 853 l 167 668 l 125 668 z "},"ţ":{"ha":372,"x_min":21,"x_max":357,"o":"m 139 774 l 188 774 l 188 529 l 357 529 l 357 486 l 188 486 l 188 0 l 139 0 l 139 486 l 21 486 l 21 529 l 139 529 l 139 774 m 203 -31 l 83 -317 l 36 -317 q 90 -174 64 -244 q 144 -31 117 -103 l 203 -31 z "},"Ħ":{"ha":1054,"x_min":57,"x_max":994,"o":"m 167 0 l 167 693 l 57 693 l 57 731 l 167 731 l 167 982 l 224 982 l 224 731 l 828 731 l 828 982 l 889 982 q 888 865 888 929 q 888 731 888 801 l 994 731 l 994 693 l 888 693 q 887 508 888 603 q 885 324 886 414 q 885 150 885 233 q 885 0 885 67 l 828 0 l 828 468 l 224 468 l 224 0 l 167 0 m 828 522 l 828 693 l 224 693 l 224 522 l 828 522 z "},"Ĥ":{"ha":1028,"x_min":154,"x_max":876,"o":"m 154 0 l 154 982 l 211 982 l 211 522 l 815 522 l 815 982 l 876 982 l 872 0 l 815 0 l 815 468 l 211 468 l 211 0 l 154 0 m 517 1301 l 683 1049 l 643 1049 l 517 1232 l 390 1049 l 349 1049 q 433 1174 392 1111 q 517 1301 475 1238 z "},"İ":{"ha":365,"x_min":142,"x_max":224,"o":"m 154 982 l 211 982 l 211 0 l 154 0 l 154 982 m 142 1092 q 154 1122 142 1110 q 183 1135 167 1135 q 211 1122 199 1135 q 224 1092 224 1110 q 211 1062 224 1074 q 183 1050 199 1050 q 154 1062 167 1050 q 142 1092 142 1074 z "},"Ğ":{"ha":944,"x_min":76,"x_max":846,"o":"m 846 435 l 846 58 q 722 8 790 26 q 579 -11 654 -11 q 372 28 464 -11 q 213 133 279 67 q 112 290 147 200 q 76 485 76 381 q 117 685 76 592 q 226 847 157 778 q 386 954 294 915 q 582 993 478 993 q 721 975 653 993 q 846 924 789 957 l 817 876 q 705 922 767 906 q 581 939 643 939 q 408 903 489 939 q 267 806 328 868 q 170 662 206 744 q 135 486 135 579 q 166 314 135 394 q 256 173 197 233 q 395 78 314 113 q 576 43 476 43 q 688 56 632 43 q 792 96 743 69 l 792 385 l 565 385 l 565 435 l 846 435 m 554 1047 q 467 1064 508 1047 q 396 1110 426 1081 q 347 1179 365 1139 q 328 1265 329 1219 l 363 1265 q 378 1194 364 1228 q 418 1135 393 1161 q 478 1095 443 1110 q 554 1081 513 1081 q 630 1095 596 1081 q 689 1135 664 1110 q 728 1194 714 1161 q 743 1265 742 1228 l 778 1265 q 760 1179 778 1219 q 711 1110 742 1139 q 640 1064 681 1081 q 554 1047 600 1047 z "},"Ĵ":{"ha":374,"x_min":-68,"x_max":360,"o":"m -68 -200 l -68 -146 q 25 -123 -18 -143 q 99 -65 68 -103 q 148 25 131 -28 q 165 147 165 78 l 165 982 l 222 982 l 222 143 q 200 -2 222 61 q 138 -108 178 -65 q 46 -175 99 -151 q -68 -200 -7 -199 m 193 1301 l 360 1049 l 319 1049 l 193 1232 l 67 1049 l 25 1049 q 110 1174 68 1111 q 193 1301 151 1238 z "},"ħ":{"ha":635,"x_min":18,"x_max":543,"o":"m 97 1053 l 144 1053 l 144 821 l 364 821 l 364 785 l 144 785 l 144 407 q 231 509 172 469 q 371 549 290 549 q 494 505 449 550 q 543 389 540 460 l 543 0 l 494 0 l 494 381 q 460 464 492 429 q 367 501 428 499 q 281 486 321 501 q 210 444 240 471 q 163 381 181 418 q 144 300 144 343 l 144 0 l 97 0 l 97 785 l 18 785 l 18 821 l 97 821 l 97 1053 z "},"ĥ":{"ha":635,"x_min":97,"x_max":543,"o":"m 97 1053 l 144 1053 l 144 407 q 231 509 172 469 q 371 549 290 549 q 494 505 449 550 q 543 389 540 460 l 543 0 l 494 0 l 494 381 q 460 464 492 429 q 367 501 428 499 q 281 486 321 501 q 210 444 240 471 q 163 381 181 418 q 144 300 144 343 l 144 0 l 97 0 l 97 1053 m 364 1301 l 531 1049 l 490 1049 l 364 1232 l 238 1049 l 196 1049 q 281 1174 239 1111 q 364 1301 322 1238 z "},"ı":{"ha":242,"x_min":97,"x_max":144,"o":"m 144 0 l 97 0 l 97 538 l 144 538 l 144 0 z "},"ğ":{"ha":717,"x_min":56,"x_max":619,"o":"m 56 269 q 77 379 56 328 q 136 469 99 431 q 224 528 174 507 q 333 550 275 550 q 416 538 378 550 q 485 504 454 525 q 538 456 515 483 q 571 400 560 429 q 573 469 571 435 q 576 538 575 504 l 619 538 l 619 0 q 604 -99 619 -53 q 556 -181 589 -146 q 469 -237 522 -217 q 338 -258 415 -258 q 216 -235 274 -258 q 92 -147 158 -211 l 122 -114 q 181 -163 153 -144 q 236 -192 210 -182 q 287 -207 263 -203 q 336 -211 311 -211 q 446 -195 401 -211 q 517 -150 490 -179 q 557 -81 544 -121 q 571 7 569 -42 l 571 67 q 572 81 571 69 q 572 104 572 92 q 573 128 572 117 q 574 142 574 139 q 483 34 546 78 q 333 -10 421 -10 q 224 12 275 -10 q 136 72 174 33 q 77 160 99 110 q 56 269 56 211 m 104 269 q 122 178 104 221 q 172 105 140 136 q 246 56 203 74 q 338 38 289 38 q 429 56 386 38 q 503 105 472 74 q 553 178 535 136 q 571 269 571 221 q 553 361 571 318 q 503 435 535 404 q 429 485 472 467 q 338 503 386 503 q 246 485 289 503 q 172 435 203 467 q 122 361 140 404 q 104 269 104 318 m 369 694 q 283 711 324 694 q 211 757 242 728 q 163 826 181 786 q 143 913 144 867 l 178 913 q 194 842 179 875 q 233 783 208 808 q 293 742 258 757 q 369 728 328 728 q 445 742 411 728 q 504 783 479 757 q 543 842 529 808 q 558 913 557 875 l 593 913 q 575 826 593 867 q 526 757 557 786 q 456 711 496 728 q 369 694 415 694 z "},"ĵ":{"ha":242,"x_min":-46,"x_max":289,"o":"m 54 -258 l 18 -225 q 76 -134 54 -187 q 97 -10 97 -81 l 97 538 l 144 538 l 144 -7 q 120 -153 144 -90 q 54 -258 96 -217 m 122 919 l 289 667 l 249 667 l 122 850 l -4 667 l -46 667 q 39 792 -3 729 q 122 919 81 856 z "},"Ċ":{"ha":894,"x_min":76,"x_max":844,"o":"m 844 63 q 727 10 796 32 q 572 -11 658 -11 q 368 28 460 -11 q 212 136 276 68 q 112 294 147 204 q 76 485 76 385 q 116 685 76 593 q 224 847 156 778 q 384 954 293 915 q 579 993 475 993 q 722 974 654 993 q 839 924 790 956 q 826 903 831 911 q 811 878 822 896 q 702 924 763 908 q 582 939 642 939 q 407 903 489 939 q 265 806 325 868 q 169 663 204 744 q 133 488 133 581 q 165 320 133 400 q 253 180 196 240 q 392 83 311 119 q 572 47 474 47 q 713 67 649 47 q 818 114 776 88 l 844 63 m 513 1089 q 525 1119 513 1107 q 554 1132 538 1132 q 582 1119 569 1132 q 594 1089 594 1107 q 582 1059 594 1071 q 554 1047 569 1047 q 525 1059 538 1047 q 513 1089 513 1071 z "},"Ĉ":{"ha":894,"x_min":76,"x_max":844,"o":"m 844 63 q 727 10 796 32 q 572 -11 658 -11 q 368 28 460 -11 q 212 136 276 68 q 112 294 147 204 q 76 485 76 385 q 116 685 76 593 q 224 847 156 778 q 384 954 293 915 q 579 993 475 993 q 722 974 654 993 q 839 924 790 956 q 826 903 831 911 q 811 878 822 896 q 702 924 763 908 q 582 939 642 939 q 407 903 489 939 q 265 806 325 868 q 169 663 204 744 q 133 488 133 581 q 165 320 133 400 q 253 180 196 240 q 392 83 311 119 q 572 47 474 47 q 713 67 649 47 q 818 114 776 88 l 844 63 m 567 1301 l 733 1049 l 693 1049 l 567 1232 l 440 1049 l 399 1049 q 483 1174 442 1111 q 567 1301 525 1238 z "},"Ġ":{"ha":944,"x_min":76,"x_max":846,"o":"m 846 435 l 846 58 q 722 8 790 26 q 579 -11 654 -11 q 372 28 464 -11 q 213 133 279 67 q 112 290 147 200 q 76 485 76 381 q 117 685 76 592 q 226 847 157 778 q 386 954 294 915 q 582 993 478 993 q 721 975 653 993 q 846 924 789 957 l 817 876 q 705 922 767 906 q 581 939 643 939 q 408 903 489 939 q 267 806 328 868 q 170 662 206 744 q 135 486 135 579 q 166 314 135 394 q 256 173 197 233 q 395 78 314 113 q 576 43 476 43 q 688 56 632 43 q 792 96 743 69 l 792 385 l 565 385 l 565 435 l 846 435 m 508 1089 q 521 1119 508 1107 q 550 1132 533 1132 q 578 1119 565 1132 q 590 1089 590 1107 q 578 1059 590 1071 q 550 1047 565 1047 q 521 1059 533 1047 q 508 1089 508 1071 z "},"Ĝ":{"ha":944,"x_min":76,"x_max":846,"o":"m 846 435 l 846 58 q 722 8 790 26 q 579 -11 654 -11 q 372 28 464 -11 q 213 133 279 67 q 112 290 147 200 q 76 485 76 381 q 117 685 76 592 q 226 847 157 778 q 386 954 294 915 q 582 993 478 993 q 721 975 653 993 q 846 924 789 957 l 817 876 q 705 922 767 906 q 581 939 643 939 q 408 903 489 939 q 267 806 328 868 q 170 662 206 744 q 135 486 135 579 q 166 314 135 394 q 256 173 197 233 q 395 78 314 113 q 576 43 476 43 q 688 56 632 43 q 792 96 743 69 l 792 385 l 565 385 l 565 435 l 846 435 m 567 1301 l 733 1049 l 693 1049 l 567 1232 l 440 1049 l 399 1049 q 483 1174 442 1111 q 567 1301 525 1238 z "},"Ŭ":{"ha":947,"x_min":140,"x_max":807,"o":"m 474 -11 q 342 11 403 -11 q 236 76 281 33 q 166 183 192 119 q 140 326 140 246 l 140 982 l 199 982 l 199 331 q 219 210 199 264 q 276 119 240 157 q 363 63 313 82 q 474 43 414 43 q 583 63 532 43 q 670 119 633 82 q 728 210 707 157 q 749 331 749 264 l 749 982 l 807 982 l 807 326 q 781 183 807 246 q 710 76 756 119 q 605 11 665 33 q 474 -11 544 -11 m 483 1047 q 397 1064 438 1047 q 325 1110 356 1081 q 276 1179 294 1139 q 257 1265 258 1219 l 292 1265 q 308 1194 293 1228 q 347 1135 322 1161 q 407 1095 372 1110 q 483 1081 442 1081 q 559 1095 525 1081 q 618 1135 593 1110 q 657 1194 643 1161 q 672 1265 671 1228 l 707 1265 q 689 1179 707 1219 q 640 1110 671 1139 q 569 1064 610 1081 q 483 1047 529 1047 z "},"Ŝ":{"ha":751,"x_min":58,"x_max":682,"o":"m 635 933 l 614 888 q 510 920 571 906 q 392 935 450 935 q 296 920 339 935 q 223 881 253 906 q 177 824 193 857 q 161 754 161 792 q 183 679 161 710 q 242 626 206 649 q 326 587 279 604 q 422 551 372 569 q 517 510 471 533 q 601 455 564 488 q 660 377 638 422 q 682 267 682 332 q 659 151 682 203 q 593 64 636 100 q 490 8 550 28 q 357 -11 431 -11 q 251 0 299 -11 q 165 27 203 11 q 101 59 128 43 q 58 83 74 75 l 86 135 q 140 103 108 119 q 206 74 171 88 q 281 53 242 61 q 358 44 319 44 q 450 58 403 44 q 536 98 497 71 q 600 167 575 125 q 625 268 625 210 q 603 363 625 324 q 544 428 581 401 q 460 476 507 456 q 365 514 414 496 q 269 551 315 532 q 185 597 222 571 q 126 660 149 624 q 104 749 104 696 q 124 841 104 797 q 181 917 144 885 q 269 969 218 950 q 383 988 321 988 q 451 983 415 988 q 521 970 486 978 q 585 953 556 963 q 635 933 615 943 m 385 1301 l 551 1049 l 511 1049 l 385 1232 l 258 1049 l 217 1049 q 301 1174 260 1111 q 385 1301 343 1238 z "},"ċ":{"ha":557,"x_min":54,"x_max":513,"o":"m 481 88 q 497 70 489 79 q 511 51 504 61 q 431 7 475 24 q 335 -10 386 -10 q 225 13 276 -10 q 135 72 174 35 q 76 160 97 110 q 54 269 54 211 q 76 379 54 328 q 135 468 97 431 q 225 528 174 506 q 335 550 276 550 q 431 533 386 550 q 513 489 476 517 q 497 471 506 479 q 481 451 489 463 q 414 489 451 475 q 335 503 376 503 q 242 485 285 503 q 169 435 200 467 q 119 361 138 404 q 101 269 101 318 q 119 178 101 221 q 169 105 138 136 q 242 56 200 74 q 335 38 285 38 q 414 51 376 38 q 481 88 451 64 m 294 725 q 307 756 294 743 q 336 768 319 768 q 364 756 351 768 q 376 725 376 743 q 364 695 376 707 q 336 683 351 683 q 307 695 319 683 q 294 725 294 707 z "},"ĉ":{"ha":557,"x_min":54,"x_max":513,"o":"m 481 88 q 497 70 489 79 q 511 51 504 61 q 431 7 475 24 q 335 -10 386 -10 q 225 13 276 -10 q 135 72 174 35 q 76 160 97 110 q 54 269 54 211 q 76 379 54 328 q 135 468 97 431 q 225 528 174 506 q 335 550 276 550 q 431 533 386 550 q 513 489 476 517 q 497 471 506 479 q 481 451 489 463 q 414 489 451 475 q 335 503 376 503 q 242 485 285 503 q 169 435 200 467 q 119 361 138 404 q 101 269 101 318 q 119 178 101 221 q 169 105 138 136 q 242 56 200 74 q 335 38 285 38 q 414 51 376 38 q 481 88 451 64 m 324 919 l 490 667 l 450 667 l 324 850 l 197 667 l 156 667 q 240 792 199 729 q 324 919 282 856 z "},"ġ":{"ha":717,"x_min":56,"x_max":619,"o":"m 56 269 q 77 379 56 328 q 136 469 99 431 q 224 528 174 507 q 333 550 275 550 q 416 538 378 550 q 485 504 454 525 q 538 456 515 483 q 571 400 560 429 q 573 469 571 435 q 576 538 575 504 l 619 538 l 619 0 q 604 -99 619 -53 q 556 -181 589 -146 q 469 -237 522 -217 q 338 -258 415 -258 q 216 -235 274 -258 q 92 -147 158 -211 l 122 -114 q 181 -163 153 -144 q 236 -192 210 -182 q 287 -207 263 -203 q 336 -211 311 -211 q 446 -195 401 -211 q 517 -150 490 -179 q 557 -81 544 -121 q 571 7 569 -42 l 571 67 q 572 81 571 69 q 572 104 572 92 q 573 128 572 117 q 574 142 574 139 q 483 34 546 78 q 333 -10 421 -10 q 224 12 275 -10 q 136 72 174 33 q 77 160 99 110 q 56 269 56 211 m 104 269 q 122 178 104 221 q 172 105 140 136 q 246 56 203 74 q 338 38 289 38 q 429 56 386 38 q 503 105 472 74 q 553 178 535 136 q 571 269 571 221 q 553 361 571 318 q 503 435 535 404 q 429 485 472 467 q 338 503 386 503 q 246 485 289 503 q 172 435 203 467 q 122 361 140 404 q 104 269 104 318 m 326 725 q 339 756 326 743 q 368 768 351 768 q 396 756 383 768 q 408 725 408 743 q 396 695 408 707 q 368 683 383 683 q 339 695 351 683 q 326 725 326 707 z "},"ĝ":{"ha":717,"x_min":56,"x_max":619,"o":"m 56 269 q 77 379 56 328 q 136 469 99 431 q 224 528 174 507 q 333 550 275 550 q 416 538 378 550 q 485 504 454 525 q 538 456 515 483 q 571 400 560 429 q 573 469 571 435 q 576 538 575 504 l 619 538 l 619 0 q 604 -99 619 -53 q 556 -181 589 -146 q 469 -237 522 -217 q 338 -258 415 -258 q 216 -235 274 -258 q 92 -147 158 -211 l 122 -114 q 181 -163 153 -144 q 236 -192 210 -182 q 287 -207 263 -203 q 336 -211 311 -211 q 446 -195 401 -211 q 517 -150 490 -179 q 557 -81 544 -121 q 571 7 569 -42 l 571 67 q 572 81 571 69 q 572 104 572 92 q 573 128 572 117 q 574 142 574 139 q 483 34 546 78 q 333 -10 421 -10 q 224 12 275 -10 q 136 72 174 33 q 77 160 99 110 q 56 269 56 211 m 104 269 q 122 178 104 221 q 172 105 140 136 q 246 56 203 74 q 338 38 289 38 q 429 56 386 38 q 503 105 472 74 q 553 178 535 136 q 571 269 571 221 q 553 361 571 318 q 503 435 535 404 q 429 485 472 467 q 338 503 386 503 q 246 485 289 503 q 172 435 203 467 q 122 361 140 404 q 104 269 104 318 m 356 921 l 522 668 l 482 668 l 356 851 l 229 668 l 188 668 q 272 794 231 731 q 356 921 314 857 z "},"ŭ":{"ha":635,"x_min":89,"x_max":539,"o":"m 538 -4 l 499 -4 l 494 140 q 404 31 465 72 q 263 -11 343 -11 q 140 34 185 -11 q 92 150 94 79 l 92 538 l 139 538 l 139 158 q 174 75 142 110 q 268 36 207 40 q 353 51 314 36 q 424 93 393 67 q 472 156 454 119 q 489 238 489 193 l 489 538 l 538 538 l 538 -4 m 315 694 q 228 711 269 694 q 157 757 188 728 q 108 826 126 786 q 89 913 90 867 l 124 913 q 140 842 125 875 q 179 783 154 808 q 239 742 204 757 q 315 728 274 728 q 391 742 357 728 q 450 783 425 757 q 489 842 475 808 q 504 913 503 875 l 539 913 q 521 826 539 867 q 472 757 503 786 q 401 711 442 728 q 315 694 361 694 z "},"ŝ":{"ha":442,"x_min":44,"x_max":389,"o":"m 368 485 l 340 451 q 289 485 324 472 q 224 499 254 499 q 188 494 207 499 q 154 478 169 489 q 128 449 139 467 q 118 407 118 432 q 138 351 118 372 q 188 316 158 331 q 253 290 218 301 q 319 261 289 278 q 369 217 349 244 q 389 147 389 190 q 378 87 389 115 q 344 36 367 58 q 291 1 322 14 q 218 -11 260 -11 q 128 4 175 -11 q 50 56 81 19 q 69 76 58 64 q 82 90 79 88 q 104 71 89 81 q 140 53 119 61 q 181 41 160 46 q 219 36 201 36 q 257 42 236 36 q 297 60 278 47 q 328 93 315 72 q 342 143 342 114 q 322 201 342 179 q 271 236 301 222 q 206 261 240 250 q 140 290 171 272 q 90 334 110 307 q 69 406 69 361 q 83 468 69 442 q 119 512 97 494 q 167 538 140 529 q 222 546 194 546 q 297 532 256 546 q 368 485 338 518 m 213 921 l 379 668 l 339 668 l 213 851 l 86 668 l 44 668 q 129 794 88 731 q 213 921 171 857 z "},"œ":{"ha":931,"x_min":56,"x_max":899,"o":"m 850 65 q 762 10 813 31 q 654 -10 711 -10 q 569 3 610 -10 q 496 38 529 15 q 336 -10 428 -10 q 226 12 278 -10 q 138 71 175 33 q 78 159 100 108 q 56 269 56 210 q 78 379 56 328 q 138 469 100 431 q 228 529 176 507 q 338 551 279 551 q 422 538 382 551 q 494 503 461 525 q 569 539 529 526 q 653 551 608 551 q 805 499 742 551 q 899 367 868 447 q 790 324 849 347 q 671 275 732 300 q 550 226 610 250 q 438 181 490 201 q 522 77 464 117 q 653 38 579 38 q 742 54 700 38 q 814 100 783 71 l 850 65 m 336 503 q 245 485 288 503 q 172 435 203 467 q 122 360 140 403 q 104 269 104 318 q 122 178 104 221 q 172 105 140 136 q 245 56 203 74 q 336 38 288 38 q 399 46 368 38 q 457 69 429 54 q 395 159 417 108 q 374 269 374 210 q 396 379 374 328 q 456 469 418 431 q 399 494 429 485 q 336 503 368 503 m 838 381 q 765 469 813 436 q 653 503 717 503 q 562 484 604 503 q 488 434 519 465 q 439 360 457 403 q 421 271 421 318 q 423 242 421 256 q 428 214 425 228 q 528 255 475 233 q 634 298 581 276 q 740 340 688 319 q 838 381 792 361 z "},"Œ":{"ha":1314,"x_min":75,"x_max":1243,"o":"m 575 -11 q 380 28 471 -11 q 222 136 289 68 q 115 295 154 204 q 75 490 75 386 q 115 685 75 594 q 222 845 154 776 q 380 953 289 914 q 575 993 471 993 q 629 990 603 993 q 682 982 656 988 l 1224 982 l 1224 929 l 721 929 l 721 521 l 1168 521 l 1168 468 l 721 468 l 721 54 l 1243 54 l 1243 0 l 682 0 q 575 -11 629 -11 m 576 938 q 403 902 485 938 q 262 806 322 867 q 167 663 201 744 q 132 489 132 582 q 167 316 132 397 q 262 174 201 235 q 402 78 322 114 q 574 43 482 43 q 664 53 621 43 l 664 929 q 622 935 643 932 q 576 938 600 938 z "},"Ÿ":{"ha":850,"x_min":29,"x_max":819,"o":"m 454 354 l 454 0 l 396 0 l 396 354 q 311 498 360 415 q 213 668 263 581 q 114 838 163 756 q 29 982 65 921 l 94 982 q 167 860 128 926 q 248 722 207 793 q 330 580 289 651 q 408 443 371 508 l 426 404 l 442 443 q 521 580 479 508 q 603 722 563 651 q 682 860 643 793 q 754 982 721 926 l 819 982 l 454 354 m 264 1113 q 276 1144 264 1132 q 306 1156 289 1156 q 335 1144 322 1156 q 347 1113 347 1132 q 335 1083 347 1094 q 306 1071 322 1071 q 276 1083 289 1071 q 264 1113 264 1094 m 503 1113 q 515 1144 503 1132 q 544 1156 528 1156 q 574 1144 561 1156 q 586 1113 586 1132 q 574 1083 586 1094 q 544 1071 561 1071 q 515 1083 528 1071 q 503 1113 503 1094 z "},"Ẽ":{"ha":849,"x_min":154,"x_max":775,"o":"m 154 0 l 154 982 l 756 982 l 756 929 l 213 929 l 213 521 l 700 521 l 700 468 l 213 468 l 213 54 l 775 54 l 775 0 l 154 0 m 471 1108 q 432 1140 449 1132 q 396 1149 415 1149 q 372 1146 385 1149 q 345 1135 358 1143 q 322 1112 332 1126 q 310 1075 313 1097 l 278 1079 q 290 1125 279 1106 q 318 1157 301 1144 q 356 1176 335 1169 q 396 1182 376 1182 q 449 1168 425 1182 q 496 1131 474 1154 q 535 1099 518 1107 q 571 1090 551 1090 q 594 1093 581 1090 q 622 1104 608 1096 q 644 1127 635 1113 q 657 1164 654 1142 l 689 1160 q 676 1115 688 1133 q 649 1083 665 1096 q 611 1065 632 1071 q 571 1058 590 1058 q 517 1072 542 1058 q 471 1108 493 1085 z "},"Ŗ":{"ha":813,"x_min":154,"x_max":775,"o":"m 154 0 l 154 982 l 372 982 q 477 967 424 982 q 574 919 531 951 q 646 834 618 886 q 674 708 674 782 q 633 553 674 626 q 504 444 593 481 q 536 392 514 429 q 586 310 558 356 q 644 213 614 264 q 702 118 675 163 q 749 42 729 74 q 775 0 768 10 l 706 0 q 683 38 700 8 q 641 107 665 67 q 588 194 617 147 q 533 285 560 240 q 483 367 506 329 q 446 428 460 406 q 406 423 426 425 q 364 421 386 421 l 213 421 l 213 0 l 154 0 m 213 476 l 365 476 q 488 501 439 476 q 565 561 536 525 q 604 638 593 597 q 615 713 615 679 q 598 796 615 757 q 548 864 581 835 q 469 910 515 893 q 367 928 424 928 l 213 928 l 213 476 m 436 -31 l 317 -317 l 269 -317 q 324 -174 297 -244 q 378 -31 350 -103 l 436 -31 z "},"Ĩ":{"ha":365,"x_min":-24,"x_max":388,"o":"m 154 982 l 211 982 l 211 0 l 154 0 l 154 982 m 169 1096 q 131 1128 147 1119 q 94 1136 114 1136 q 70 1133 83 1136 q 44 1122 57 1131 q 21 1099 31 1114 q 8 1063 11 1085 l -24 1067 q -11 1113 -22 1093 q 17 1144 0 1132 q 54 1163 33 1157 q 94 1169 75 1169 q 148 1156 124 1169 q 194 1118 172 1142 q 233 1086 217 1094 q 269 1078 250 1078 q 293 1081 279 1078 q 320 1092 307 1083 q 343 1115 333 1100 q 356 1151 353 1129 l 388 1147 q 375 1102 386 1121 q 347 1071 364 1083 q 310 1052 331 1058 q 269 1046 289 1046 q 216 1059 240 1046 q 169 1096 192 1072 z "},"Ļ":{"ha":772,"x_min":154,"x_max":757,"o":"m 154 0 l 154 982 l 213 982 l 213 56 l 757 56 l 757 0 l 154 0 m 525 -31 l 406 -317 l 358 -317 q 413 -174 386 -244 q 467 -31 439 -103 l 525 -31 z "},"Ē":{"ha":849,"x_min":154,"x_max":775,"o":"m 154 0 l 154 982 l 756 982 l 756 929 l 213 929 l 213 521 l 700 521 l 700 468 l 213 468 l 213 54 l 775 54 l 775 0 l 154 0 m 294 1050 l 294 1088 l 615 1088 l 615 1050 l 294 1050 z "},"Ģ":{"ha":944,"x_min":76,"x_max":846,"o":"m 846 435 l 846 58 q 722 8 790 26 q 579 -11 654 -11 q 372 28 464 -11 q 213 133 279 67 q 112 290 147 200 q 76 485 76 381 q 117 685 76 592 q 226 847 157 778 q 386 954 294 915 q 582 993 478 993 q 721 975 653 993 q 846 924 789 957 l 817 876 q 705 922 767 906 q 581 939 643 939 q 408 903 489 939 q 267 806 328 868 q 170 662 206 744 q 135 486 135 579 q 166 314 135 394 q 256 173 197 233 q 395 78 314 113 q 576 43 476 43 q 688 56 632 43 q 792 96 743 69 l 792 385 l 565 385 l 565 435 l 846 435 m 579 -31 l 460 -317 l 413 -317 q 467 -174 440 -244 q 521 -31 493 -103 l 579 -31 z "},"Ŧ":{"ha":714,"x_min":58,"x_max":657,"o":"m 196 663 l 196 700 l 328 700 l 328 926 l 58 926 l 58 982 l 657 982 l 657 926 l 385 926 l 385 700 l 517 700 l 517 663 l 385 663 l 385 0 l 328 0 l 328 663 l 196 663 z "},"ŗ":{"ha":376,"x_min":68,"x_max":372,"o":"m 364 492 q 281 476 321 490 q 211 437 242 463 q 163 376 181 411 q 144 297 144 340 l 144 0 l 97 0 l 97 538 l 138 538 q 138 511 138 532 q 139 467 139 490 q 140 423 139 443 q 140 399 140 403 q 237 508 172 468 q 372 549 301 547 l 364 492 m 235 -31 l 115 -317 l 68 -317 q 122 -174 96 -244 q 176 -31 149 -103 l 235 -31 z "},"ē":{"ha":611,"x_min":54,"x_max":579,"o":"m 531 65 q 442 10 493 31 q 335 -10 392 -10 q 225 13 276 -10 q 135 72 174 35 q 76 160 97 110 q 54 269 54 211 q 76 379 54 328 q 136 469 99 431 q 224 529 174 507 q 333 551 275 551 q 485 499 422 551 q 579 367 549 447 q 471 324 529 347 q 351 275 413 300 q 231 226 290 250 q 118 181 171 201 q 202 77 144 117 q 333 38 260 38 q 422 54 381 38 q 494 100 464 71 l 531 65 m 518 381 q 445 469 493 436 q 333 503 397 503 q 242 484 285 503 q 169 434 200 465 q 119 360 138 403 q 101 271 101 318 q 103 242 101 256 q 108 214 106 228 q 208 255 156 233 q 315 298 261 276 q 420 340 368 319 q 518 381 472 361 m 168 679 l 168 717 l 489 717 l 489 679 l 168 679 z "},"ģ":{"ha":717,"x_min":56,"x_max":619,"o":"m 56 269 q 77 379 56 328 q 136 469 99 431 q 224 528 174 507 q 333 550 275 550 q 416 538 378 550 q 485 504 454 525 q 538 456 515 483 q 571 400 560 429 q 573 469 571 435 q 576 538 575 504 l 619 538 l 619 0 q 604 -99 619 -53 q 556 -181 589 -146 q 469 -237 522 -217 q 338 -258 415 -258 q 216 -235 274 -258 q 92 -147 158 -211 l 122 -114 q 181 -163 153 -144 q 236 -192 210 -182 q 287 -207 263 -203 q 336 -211 311 -211 q 446 -195 401 -211 q 517 -150 490 -179 q 557 -81 544 -121 q 571 7 569 -42 l 571 67 q 572 81 571 69 q 572 104 572 92 q 573 128 572 117 q 574 142 574 139 q 483 34 546 78 q 333 -10 421 -10 q 224 12 275 -10 q 136 72 174 33 q 77 160 99 110 q 56 269 56 211 m 104 269 q 122 178 104 221 q 172 105 140 136 q 246 56 203 74 q 338 38 289 38 q 429 56 386 38 q 503 105 472 74 q 553 178 535 136 q 571 269 571 221 q 553 361 571 318 q 503 435 535 404 q 429 485 472 467 q 338 503 386 503 q 246 485 289 503 q 172 435 203 467 q 122 361 140 404 q 104 269 104 318 m 328 704 l 447 990 l 494 990 q 440 847 467 918 q 386 704 414 776 l 328 704 z "},"ŧ":{"ha":372,"x_min":21,"x_max":357,"o":"m 29 679 l 29 717 l 139 717 l 139 774 l 188 774 l 188 717 l 350 717 l 350 679 l 188 679 l 188 529 l 357 529 l 357 486 l 188 486 l 188 0 l 139 0 l 139 486 l 21 486 l 21 529 l 139 529 l 139 679 l 29 679 z "},"Ā":{"ha":889,"x_min":29,"x_max":861,"o":"m 861 0 q 798 151 832 68 q 727 326 764 235 q 653 513 690 418 q 578 700 615 608 q 508 876 542 792 q 446 1028 474 960 q 383 876 417 960 q 312 700 349 792 q 238 513 275 608 q 163 326 200 418 q 92 151 126 235 q 29 0 58 68 l 88 0 q 164 189 124 88 q 246 399 204 290 l 643 399 q 726 189 685 290 q 803 0 767 88 l 861 0 m 432 865 q 439 883 435 872 q 446 906 443 894 l 458 865 q 538 667 496 774 q 624 449 581 561 l 265 449 q 351 667 310 561 q 432 865 393 774 m 285 1057 l 285 1094 l 606 1094 l 606 1057 l 285 1057 z "},"Į":{"ha":365,"x_min":40,"x_max":290,"o":"m 154 982 l 211 982 l 211 0 l 154 0 l 154 982 m 192 0 l 156 0 l 156 -8 q 150 -40 156 -28 q 135 -60 144 -51 q 116 -74 126 -68 q 97 -85 106 -79 q 53 -133 67 -107 q 40 -183 40 -160 q 76 -287 40 -251 q 168 -324 113 -324 q 242 -301 208 -324 q 290 -235 275 -279 l 256 -219 q 226 -265 249 -247 q 171 -282 203 -282 q 106 -256 131 -282 q 82 -189 82 -229 q 99 -135 82 -154 q 137 -101 117 -115 q 174 -72 157 -86 q 192 -31 192 -57 l 192 0 z "},"ĩ":{"ha":242,"x_min":-85,"x_max":326,"o":"m 144 0 l 97 0 l 97 538 l 144 538 l 144 0 m 108 683 q 69 715 86 707 q 33 724 53 724 q 9 721 22 724 q -17 710 -4 718 q -40 687 -31 701 q -53 650 -50 672 l -85 654 q -72 700 -83 681 q -44 732 -61 719 q -7 751 -28 744 q 33 757 14 757 q 87 743 63 757 q 133 706 111 729 q 172 674 156 682 q 208 665 189 665 q 232 668 218 665 q 259 679 246 671 q 282 702 272 688 q 294 739 292 717 l 326 735 q 314 690 325 708 q 286 658 303 671 q 249 640 269 646 q 208 633 228 633 q 155 647 179 633 q 108 683 131 660 z "},"ļ":{"ha":254,"x_min":10,"x_max":176,"o":"m 151 0 l 103 0 l 103 1053 l 151 1053 l 151 0 m 176 -31 l 57 -317 l 10 -317 q 64 -174 38 -244 q 118 -31 90 -103 l 176 -31 z "},"Ė":{"ha":849,"x_min":154,"x_max":775,"o":"m 154 0 l 154 982 l 756 982 l 756 929 l 213 929 l 213 521 l 700 521 l 700 468 l 213 468 l 213 54 l 775 54 l 775 0 l 154 0 m 435 1089 q 447 1119 435 1107 q 476 1132 460 1132 q 504 1119 492 1132 q 517 1089 517 1107 q 504 1059 517 1071 q 476 1047 492 1047 q 447 1059 460 1047 q 435 1089 435 1071 z "},"Ī":{"ha":365,"x_min":24,"x_max":344,"o":"m 154 982 l 211 982 l 211 0 l 154 0 l 154 982 m 24 1057 l 24 1094 l 344 1094 l 344 1057 l 24 1057 z "},"Ņ":{"ha":1126,"x_min":154,"x_max":974,"o":"m 974 982 l 974 -44 q 796 171 894 54 q 597 408 697 288 q 401 645 496 529 q 235 857 307 761 l 208 893 l 213 849 l 213 0 l 154 0 l 154 1028 q 331 810 235 926 q 528 574 428 693 q 723 339 628 454 q 894 126 818 224 l 921 90 l 917 135 l 917 982 l 974 982 m 578 -31 l 458 -317 l 411 -317 q 465 -174 439 -244 q 519 -31 492 -103 l 578 -31 z "},"Ķ":{"ha":840,"x_min":154,"x_max":838,"o":"m 765 0 q 551 272 656 139 q 339 544 447 406 l 215 428 q 216 214 215 319 q 217 0 217 108 l 154 0 l 154 982 l 217 982 l 217 538 q 215 516 217 526 q 214 494 214 506 l 239 525 q 475 753 358 638 q 711 982 592 869 l 788 982 l 382 583 q 610 292 500 436 q 838 0 721 149 l 765 0 m 510 -31 l 390 -317 l 343 -317 q 397 -174 371 -244 q 451 -31 424 -103 l 510 -31 z "},"ņ":{"ha":635,"x_min":97,"x_max":543,"o":"m 97 538 l 138 538 q 138 511 138 532 q 139 467 139 490 q 140 423 139 443 q 140 399 140 403 q 231 507 169 465 q 372 549 292 549 q 495 504 450 549 q 543 389 540 460 l 543 0 l 494 0 l 494 381 q 460 464 492 429 q 367 501 428 499 q 281 486 321 501 q 210 444 240 471 q 163 381 181 418 q 144 300 144 343 l 144 0 l 97 0 l 97 538 m 363 -31 l 243 -317 l 196 -317 q 250 -174 224 -244 q 304 -31 276 -103 l 363 -31 z "},"ķ":{"ha":533,"x_min":97,"x_max":517,"o":"m 450 551 l 479 521 l 276 329 q 397 165 338 246 q 517 0 457 83 l 460 0 q 351 149 406 75 q 242 297 296 222 l 144 206 l 144 0 l 97 0 l 97 1053 l 144 1053 l 144 267 q 297 409 224 340 q 450 551 371 478 m 363 -31 l 243 -317 l 196 -317 q 250 -174 224 -244 q 304 -31 276 -103 l 363 -31 z "},"Ō":{"ha":1154,"x_min":75,"x_max":1079,"o":"m 75 490 q 115 685 75 594 q 222 845 154 776 q 380 953 289 914 q 575 993 471 993 q 771 953 679 993 q 931 845 863 914 q 1040 685 1000 776 q 1079 490 1079 594 q 1040 295 1079 386 q 931 136 1000 204 q 771 28 863 68 q 575 -11 679 -11 q 380 28 471 -11 q 222 136 289 68 q 115 295 154 204 q 75 490 75 386 m 132 489 q 167 316 132 397 q 262 174 201 235 q 402 78 322 114 q 574 43 482 43 q 747 78 665 43 q 890 174 829 114 q 987 316 951 235 q 1022 490 1022 397 q 987 664 1022 582 q 891 806 951 746 q 749 902 831 867 q 576 938 668 938 q 403 902 485 938 q 262 806 322 867 q 167 663 201 744 q 132 489 132 582 m 419 1057 l 419 1094 l 740 1094 l 740 1057 l 419 1057 z "},"Ū":{"ha":947,"x_min":140,"x_max":807,"o":"m 474 -11 q 342 11 403 -11 q 236 76 281 33 q 166 183 192 119 q 140 326 140 246 l 140 982 l 199 982 l 199 331 q 219 210 199 264 q 276 119 240 157 q 363 63 313 82 q 474 43 414 43 q 583 63 532 43 q 670 119 633 82 q 728 210 707 157 q 749 331 749 264 l 749 982 l 807 982 l 807 326 q 781 183 807 246 q 710 76 756 119 q 605 11 665 33 q 474 -11 544 -11 m 329 1057 l 329 1094 l 650 1094 l 650 1057 l 329 1057 z "},"ō":{"ha":674,"x_min":56,"x_max":619,"o":"m 56 269 q 78 379 56 328 q 138 469 100 431 q 228 529 176 507 q 338 551 279 551 q 447 529 396 551 q 537 469 499 507 q 597 379 575 431 q 619 269 619 328 q 597 160 619 211 q 537 72 575 110 q 447 13 499 35 q 336 -10 396 -10 q 226 12 278 -10 q 138 71 175 33 q 78 159 100 108 q 56 269 56 210 m 104 269 q 122 178 104 221 q 172 105 140 136 q 245 56 203 74 q 336 38 288 38 q 427 56 385 38 q 501 105 469 74 q 551 178 533 136 q 569 269 569 221 q 551 360 569 318 q 501 435 533 403 q 427 485 469 467 q 336 503 385 503 q 245 485 288 503 q 172 435 203 467 q 122 360 140 403 q 104 269 104 318 m 179 679 l 179 717 l 500 717 l 500 679 l 179 679 z "},"ū":{"ha":635,"x_min":92,"x_max":538,"o":"m 538 -4 l 499 -4 l 494 140 q 404 31 465 72 q 263 -11 343 -11 q 140 34 185 -11 q 92 150 94 79 l 92 538 l 139 538 l 139 158 q 174 75 142 110 q 268 36 207 40 q 353 51 314 36 q 424 93 393 67 q 472 156 454 119 q 489 238 489 193 l 489 538 l 538 538 l 538 -4 m 153 679 l 153 717 l 474 717 l 474 679 l 153 679 z "},"ā":{"ha":714,"x_min":54,"x_max":617,"o":"m 54 268 q 76 378 54 326 q 136 467 99 429 q 224 528 174 506 q 333 550 275 550 q 413 538 375 550 q 481 506 450 526 q 534 458 511 485 q 569 400 557 431 q 571 469 569 435 q 575 538 572 504 l 617 538 l 617 0 l 569 0 l 569 138 q 483 33 546 76 q 333 -10 421 -10 q 223 13 274 -10 q 135 72 172 35 q 76 160 97 110 q 54 268 54 211 m 101 269 q 119 178 101 221 q 169 105 138 136 q 243 56 200 74 q 335 38 286 38 q 426 56 383 38 q 501 105 469 74 q 551 178 533 136 q 569 269 569 221 q 551 361 569 318 q 501 435 533 404 q 426 485 469 467 q 335 503 383 503 q 243 485 286 503 q 169 435 200 467 q 119 361 138 404 q 101 269 101 318 m 206 679 l 206 717 l 526 717 l 526 679 l 206 679 z "},"Ų":{"ha":947,"x_min":140,"x_max":807,"o":"m 526 0 l 490 0 l 490 -8 l 490 -11 l 474 -11 q 342 11 403 -11 q 236 76 281 33 q 166 183 192 119 q 140 326 140 246 l 140 982 l 199 982 l 199 331 q 219 210 199 264 q 276 119 240 157 q 363 63 313 82 q 474 43 414 43 q 583 63 532 43 q 670 119 633 82 q 728 210 707 157 q 749 331 749 264 l 749 982 l 807 982 l 807 326 q 785 194 807 253 q 726 94 764 136 q 638 26 689 51 q 526 -7 586 0 l 526 0 m 490 -11 q 484 -40 490 -29 q 469 -60 478 -51 q 450 -74 460 -68 q 432 -85 440 -79 q 388 -133 401 -107 q 375 -183 375 -160 q 411 -287 375 -251 q 503 -324 447 -324 q 576 -301 543 -324 q 625 -235 610 -279 l 590 -219 q 560 -265 583 -247 q 506 -282 538 -282 q 441 -256 465 -282 q 417 -189 417 -229 q 434 -135 417 -154 q 472 -101 451 -115 q 509 -72 492 -86 q 526 -31 526 -57 l 526 -7 l 490 -11 z "},"ī":{"ha":242,"x_min":-40,"x_max":281,"o":"m 144 0 l 97 0 l 97 538 l 144 538 l 144 0 m -40 679 l -40 717 l 281 717 l 281 679 l -40 679 z "},"ų":{"ha":635,"x_min":92,"x_max":629,"o":"m 531 0 l 499 0 l 494 140 q 404 31 465 72 q 263 -11 343 -11 q 140 34 185 -11 q 92 150 94 79 l 92 538 l 139 538 l 139 158 q 174 75 142 110 q 268 36 207 40 q 353 51 314 36 q 424 93 393 67 q 472 156 454 119 q 489 238 489 193 l 489 538 l 538 538 l 538 -4 l 531 -4 l 531 0 m 499 0 l 494 0 l 494 -8 q 489 -40 494 -28 q 474 -60 483 -51 q 455 -74 465 -68 q 436 -85 444 -79 q 392 -133 406 -107 q 379 -183 379 -160 q 415 -287 379 -251 q 507 -324 451 -324 q 581 -301 547 -324 q 629 -235 614 -279 l 594 -219 q 565 -265 588 -247 q 510 -282 542 -282 q 445 -256 469 -282 q 421 -189 421 -229 q 438 -135 421 -154 q 476 -101 456 -115 q 513 -72 496 -86 q 531 -31 531 -57 l 531 -4 l 499 -4 l 499 0 z "},"Ũ":{"ha":947,"x_min":140,"x_max":807,"o":"m 474 -11 q 342 11 403 -11 q 236 76 281 33 q 166 183 192 119 q 140 326 140 246 l 140 982 l 199 982 l 199 331 q 219 210 199 264 q 276 119 240 157 q 363 63 313 82 q 474 43 414 43 q 583 63 532 43 q 670 119 633 82 q 728 210 707 157 q 749 331 749 264 l 749 982 l 807 982 l 807 326 q 781 183 807 246 q 710 76 756 119 q 605 11 665 33 q 474 -11 544 -11 m 479 1096 q 440 1128 457 1119 q 404 1136 424 1136 q 380 1133 393 1136 q 353 1122 367 1131 q 331 1099 340 1114 q 318 1063 321 1085 l 286 1067 q 299 1113 288 1093 q 326 1144 310 1132 q 364 1163 343 1157 q 404 1169 385 1169 q 458 1156 433 1169 q 504 1118 482 1142 q 543 1086 526 1094 q 579 1078 560 1078 q 603 1081 589 1078 q 630 1092 617 1083 q 653 1115 643 1100 q 665 1151 663 1129 l 697 1147 q 685 1102 696 1121 q 657 1071 674 1083 q 619 1052 640 1058 q 579 1046 599 1046 q 526 1059 550 1046 q 479 1096 501 1072 z "},"ũ":{"ha":635,"x_min":92,"x_max":538,"o":"m 538 -4 l 499 -4 l 494 140 q 404 31 465 72 q 263 -11 343 -11 q 140 34 185 -11 q 92 150 94 79 l 92 538 l 139 538 l 139 158 q 174 75 142 110 q 268 36 207 40 q 353 51 314 36 q 424 93 393 67 q 472 156 454 119 q 489 238 489 193 l 489 538 l 538 538 l 538 -4 m 313 683 q 274 715 290 707 q 238 724 257 724 q 213 721 226 724 q 187 710 200 718 q 164 687 174 701 q 151 650 154 672 l 119 654 q 132 700 121 681 q 160 732 143 719 q 197 751 176 744 q 238 757 218 757 q 291 743 267 757 q 338 706 315 729 q 376 674 360 682 q 413 665 393 665 q 436 668 422 665 q 463 679 450 671 q 486 702 476 688 q 499 739 496 717 l 531 735 q 518 690 529 708 q 490 658 507 671 q 453 640 474 646 q 413 633 432 633 q 359 647 383 633 q 313 683 335 660 z "},"ė":{"ha":611,"x_min":54,"x_max":579,"o":"m 531 65 q 442 10 493 31 q 335 -10 392 -10 q 225 13 276 -10 q 135 72 174 35 q 76 160 97 110 q 54 269 54 211 q 76 379 54 328 q 136 469 99 431 q 224 529 174 507 q 333 551 275 551 q 485 499 422 551 q 579 367 549 447 q 471 324 529 347 q 351 275 413 300 q 231 226 290 250 q 118 181 171 201 q 202 77 144 117 q 333 38 260 38 q 422 54 381 38 q 494 100 464 71 l 531 65 m 518 381 q 445 469 493 436 q 333 503 397 503 q 242 484 285 503 q 169 434 200 465 q 119 360 138 403 q 101 271 101 318 q 103 242 101 256 q 108 214 106 228 q 208 255 156 233 q 315 298 261 276 q 420 340 368 319 q 518 381 472 361 m 286 725 q 299 756 286 743 q 328 768 311 768 q 356 756 343 768 q 368 725 368 743 q 356 695 368 707 q 328 683 343 683 q 299 695 311 683 q 286 725 286 707 z "},"į":{"ha":242,"x_min":-18,"x_max":232,"o":"m 144 0 l 97 0 l 97 538 l 144 538 l 144 0 m 133 0 l 97 0 l 97 -8 q 92 -40 97 -28 q 77 -60 86 -51 q 58 -74 68 -68 q 39 -85 47 -79 q -5 -133 8 -107 q -18 -183 -18 -160 q 18 -287 -18 -251 q 110 -324 54 -324 q 183 -301 150 -324 q 232 -235 217 -279 l 197 -219 q 167 -265 190 -247 q 113 -282 144 -282 q 48 -256 72 -282 q 24 -189 24 -229 q 41 -135 24 -154 q 78 -101 58 -115 q 116 -72 99 -86 q 133 -31 133 -57 l 133 0 m 81 725 q 93 756 81 743 q 122 768 106 768 q 150 756 138 768 q 163 725 163 743 q 150 695 163 707 q 122 683 138 683 q 93 695 106 683 q 81 725 81 707 z "},"…":{"ha":724,"x_min":93,"x_max":632,"o":"m 93 42 q 106 72 93 60 q 135 85 118 85 q 164 72 151 85 q 176 42 176 60 q 164 12 176 24 q 135 0 151 0 q 106 12 118 0 q 93 42 93 24 m 321 42 q 333 72 321 60 q 363 85 346 85 q 391 72 378 85 q 404 42 404 60 q 391 12 404 24 q 363 0 378 0 q 333 12 346 0 q 321 42 321 24 m 547 42 q 560 72 547 60 q 590 85 574 85 q 619 72 606 85 q 632 42 632 60 q 619 12 632 24 q 590 0 606 0 q 560 12 574 0 q 547 42 547 24 z "},"‰":{"ha":1310,"x_min":65,"x_max":1256,"o":"m 567 156 q 599 78 567 110 q 678 46 631 46 q 757 78 725 46 q 789 156 789 110 q 757 234 789 201 q 678 267 725 267 q 599 234 631 267 q 567 156 567 201 m 678 -3 q 615 10 644 -3 q 565 44 586 22 q 530 94 543 65 q 517 157 517 124 q 530 219 517 190 q 565 269 543 247 q 615 303 586 290 q 678 315 644 315 q 739 303 710 315 q 790 269 768 290 q 826 219 813 247 q 839 157 839 190 q 826 94 839 124 q 790 44 813 65 q 739 10 768 22 q 678 -3 710 -3 m 115 542 q 147 464 115 496 q 226 432 179 432 q 306 464 274 432 q 338 542 338 496 q 306 619 338 588 q 226 651 274 651 q 147 619 179 651 q 115 542 115 588 m 226 382 q 164 394 193 382 q 113 428 135 407 q 78 480 90 450 q 65 543 65 510 q 78 605 65 576 q 113 655 90 633 q 164 689 135 676 q 226 701 193 701 q 288 689 258 701 q 339 655 317 676 q 374 605 361 633 q 388 543 388 576 q 374 480 388 510 q 339 428 361 450 q 288 394 317 407 q 226 382 258 382 m 211 0 q 419 349 315 176 q 626 697 522 521 l 682 697 q 474 349 578 521 q 267 0 371 176 l 211 0 m 983 156 q 1015 78 983 110 q 1094 46 1047 46 q 1174 78 1142 46 q 1206 156 1206 110 q 1174 234 1206 201 q 1094 267 1142 267 q 1015 234 1047 267 q 983 156 983 201 m 1094 -3 q 1032 10 1061 -3 q 981 44 1003 22 q 947 94 960 65 q 933 157 933 124 q 947 219 933 190 q 981 269 960 247 q 1032 303 1003 290 q 1094 315 1061 315 q 1156 303 1126 315 q 1207 269 1185 290 q 1242 219 1229 247 q 1256 157 1256 190 q 1242 94 1256 124 q 1207 44 1229 65 q 1156 10 1185 22 q 1094 -3 1126 -3 z "},"ˆ":{"ha":625,"x_min":156,"x_max":490,"o":"m 324 921 l 490 668 l 450 668 l 324 851 l 197 668 l 156 668 q 240 794 199 731 q 324 921 282 857 z "},"˜":{"ha":825,"x_min":233,"x_max":644,"o":"m 426 683 q 388 715 404 707 q 351 724 371 724 q 327 721 340 724 q 301 710 314 718 q 278 687 288 701 q 265 650 268 672 l 233 654 q 246 700 235 681 q 274 732 257 719 q 311 751 290 744 q 351 757 332 757 q 405 743 381 757 q 451 706 429 729 q 490 674 474 682 q 526 665 507 665 q 550 668 536 665 q 577 679 564 671 q 600 702 590 688 q 613 739 610 717 l 644 735 q 632 690 643 708 q 604 658 621 671 q 567 640 588 646 q 526 633 546 633 q 473 647 497 633 q 426 683 449 660 z "},"ﬁ":{"ha":665,"x_min":36,"x_max":568,"o":"m 36 490 l 36 538 l 128 538 l 128 718 q 149 860 128 799 q 207 965 169 922 q 295 1028 244 1007 q 406 1053 346 1050 l 406 1006 q 314 985 356 1006 q 242 928 272 965 q 194 840 211 892 q 176 722 176 788 l 176 538 l 568 538 l 568 0 l 519 0 l 519 490 l 176 490 l 176 0 l 128 0 l 128 490 l 36 490 z "},"ﬂ":{"ha":665,"x_min":36,"x_max":563,"o":"m 36 488 l 36 535 l 128 535 l 128 718 q 149 860 128 799 q 207 965 169 922 q 295 1028 244 1007 q 406 1053 346 1050 l 563 1053 l 563 0 l 514 0 l 514 1006 l 406 1006 q 314 985 356 1006 q 242 928 272 965 q 194 840 211 892 q 176 722 176 788 l 176 535 l 357 535 l 357 488 l 176 488 l 176 0 l 128 0 l 128 488 l 36 488 z "},"˚":{"ha":626,"x_min":243,"x_max":436,"o":"m 278 681 q 296 637 278 656 q 340 618 314 618 q 384 637 365 618 q 403 681 403 656 q 384 724 403 706 q 340 743 365 743 q 296 724 314 743 q 278 681 278 706 m 243 681 q 272 749 243 721 q 340 778 300 778 q 408 749 381 778 q 436 681 436 721 q 408 613 436 640 q 340 585 381 585 q 272 613 300 585 q 243 681 243 640 z "},"⁄":{"ha":449,"x_min":4,"x_max":443,"o":"m 4 0 q 199 526 103 265 q 392 1053 294 788 l 443 1053 q 249 526 344 788 q 56 0 153 265 l 4 0 z "},"ƒ":{"ha":456,"x_min":-65,"x_max":440,"o":"m 211 488 l 211 96 q 190 -47 211 15 q 133 -150 169 -108 q 45 -214 96 -192 q -65 -237 -6 -236 l -65 -192 q 25 -170 -17 -190 q 97 -114 67 -150 q 145 -25 128 -78 q 163 93 163 28 l 163 488 l 71 488 l 71 535 l 163 535 l 163 718 q 183 860 163 799 q 242 965 204 922 q 330 1028 279 1007 q 440 1053 381 1050 l 440 1006 q 349 985 390 1006 q 276 928 307 965 q 228 840 246 892 q 211 722 211 788 l 211 535 l 392 535 l 392 488 l 211 488 z "},"†":{"ha":467,"x_min":94,"x_max":372,"o":"m 208 74 l 208 571 l 94 571 l 94 621 l 208 621 l 208 811 l 258 811 l 258 621 l 372 621 l 372 571 l 258 571 l 258 74 l 208 74 z "},"‡":{"ha":564,"x_min":74,"x_max":492,"o":"m 257 74 l 257 361 l 74 361 l 74 411 l 257 411 l 257 571 l 143 571 l 143 621 l 257 621 l 257 811 l 307 811 l 307 621 l 421 621 l 421 571 l 307 571 l 307 411 l 492 411 l 492 361 l 307 361 l 307 74 l 257 74 z "},"™":{"ha":810,"x_min":61,"x_max":688,"o":"m 347 1067 q 388 1005 365 1038 q 434 940 411 972 q 478 878 457 908 q 517 822 500 847 q 547 865 526 835 q 591 930 567 894 q 641 1002 615 965 q 688 1067 667 1039 l 688 692 l 667 692 l 667 1006 q 630 951 650 981 q 590 892 610 922 q 551 835 569 863 q 517 786 532 807 q 481 837 504 804 q 435 903 458 869 q 393 965 413 936 q 368 1006 374 994 l 368 692 l 347 692 l 347 1067 m 279 1051 l 279 1031 l 179 1031 l 179 692 l 160 692 l 160 1031 l 61 1031 l 61 1051 l 279 1051 z "},"−":{"ha":711,"x_min":104,"x_max":607,"o":"m 607 249 l 104 249 l 104 299 l 607 299 l 607 249 z "},"∫":{"ha":422,"x_min":39,"x_max":383,"o":"m 186 876 q 197 974 186 940 q 227 1022 208 1007 q 269 1038 246 1036 q 319 1040 293 1040 l 383 1040 l 383 990 l 310 990 q 251 958 265 990 q 236 839 236 925 l 236 -8 q 226 -126 236 -86 q 199 -185 217 -167 q 156 -205 181 -203 q 103 -207 132 -207 l 39 -207 l 39 -157 l 113 -157 q 171 -124 156 -157 q 186 -6 186 -92 l 186 876 z "},"∏":{"ha":608,"x_min":157,"x_max":451,"o":"m 207 -81 l 157 -81 l 157 1046 l 451 1046 l 451 -81 l 401 -81 l 401 997 l 207 997 l 207 -81 z "},"π":{"ha":511,"x_min":46,"x_max":458,"o":"m 168 408 l 168 0 l 118 0 l 118 408 l 46 408 l 46 458 l 458 458 l 458 408 l 399 408 l 399 0 l 349 0 l 349 408 l 168 408 z "},"€":{"ha":758,"x_min":61,"x_max":686,"o":"m 61 551 l 156 551 q 194 685 167 619 q 268 803 222 751 q 378 887 314 856 q 526 918 443 918 q 619 904 581 918 q 672 882 658 890 l 650 840 q 591 861 622 854 q 524 868 560 868 q 406 846 460 868 q 312 783 353 824 q 243 683 271 742 q 206 551 215 624 l 532 551 l 532 518 l 201 518 q 200 491 200 504 q 200 464 200 478 q 200 433 200 447 q 201 403 200 418 l 532 403 l 532 369 l 207 369 q 250 229 219 290 q 323 126 281 168 q 416 61 365 83 q 519 39 467 39 q 590 49 556 39 q 656 76 624 58 l 686 36 q 518 -10 611 -10 q 389 18 450 -10 q 279 96 328 46 q 198 215 231 146 q 153 369 165 285 l 63 369 l 63 403 l 149 403 q 147 428 147 415 q 147 457 147 442 q 148 488 147 472 q 150 518 149 503 l 61 518 l 61 551 z "},"≤":{"ha":792,"x_min":76,"x_max":688,"o":"m 688 369 l 688 304 q 382 481 533 393 q 76 657 231 569 q 382 833 231 744 q 688 1010 533 921 l 688 944 l 189 657 l 688 369 m 633 118 l 131 118 l 131 168 l 633 168 l 633 118 z "},"≥":{"ha":785,"x_min":115,"x_max":728,"o":"m 117 369 l 615 657 l 117 944 l 117 1010 q 422 833 271 921 q 728 657 574 744 q 422 481 574 569 q 117 304 271 393 l 117 369 m 115 168 l 618 168 l 618 118 l 115 118 l 115 168 z "},"≠":{"ha":924,"x_min":106,"x_max":811,"o":"m 811 513 l 811 463 l 540 463 l 354 242 l 811 242 l 811 192 l 313 192 l 147 -7 l 118 19 l 263 192 l 106 192 l 106 242 l 304 242 l 490 463 l 106 463 l 106 513 l 532 513 l 715 732 l 744 706 l 582 513 l 811 513 z "},"≈":{"ha":625,"x_min":108,"x_max":521,"o":"m 301 282 q 263 314 279 306 q 226 322 246 322 q 202 319 215 322 q 176 308 189 317 q 153 285 163 300 q 140 249 143 271 l 108 253 q 121 299 110 279 q 149 331 132 318 q 186 349 165 343 q 226 356 207 356 q 280 342 256 356 q 326 304 304 328 q 365 272 349 281 q 401 264 382 264 q 425 267 411 264 q 452 278 439 269 q 475 301 465 286 q 488 338 485 315 l 519 333 q 507 288 518 307 q 479 257 496 269 q 442 238 463 244 q 401 232 421 232 q 348 245 372 232 q 301 282 324 258 m 303 490 q 264 522 281 514 q 228 531 247 531 q 203 528 217 531 q 177 517 190 525 q 154 494 164 508 q 142 457 144 479 l 110 461 q 122 507 111 488 q 150 539 133 526 q 188 558 167 551 q 228 564 208 564 q 281 550 257 564 q 328 513 306 536 q 367 481 350 489 q 403 472 383 472 q 426 475 413 472 q 453 486 440 478 q 476 509 467 494 q 489 546 486 524 l 521 542 q 508 497 519 515 q 481 465 497 478 q 443 447 464 453 q 403 440 422 440 q 349 453 374 440 q 303 490 325 467 z "},"∑":{"ha":633,"x_min":93,"x_max":579,"o":"m 160 -40 l 554 -40 l 579 -89 l 93 -89 l 251 478 l 93 1046 l 579 1046 l 554 997 l 160 997 l 304 478 l 160 -40 z "},"Ω":{"ha":947,"x_min":99,"x_max":850,"o":"m 99 49 l 329 49 q 240 103 282 72 q 167 178 199 135 q 118 281 136 222 q 100 414 100 339 q 122 564 100 490 q 191 696 144 638 q 309 790 238 754 q 478 825 381 825 q 650 786 579 825 q 765 687 721 747 q 830 551 810 626 q 849 404 850 476 q 830 276 847 332 q 783 176 813 219 q 715 102 754 133 q 632 49 676 71 l 844 49 l 844 0 l 556 0 l 556 49 q 647 97 603 67 q 725 172 692 128 q 778 272 758 215 q 799 403 799 329 q 776 560 799 490 q 712 677 754 629 q 610 751 669 725 q 478 776 550 776 q 344 751 404 776 q 242 679 285 726 q 176 563 200 632 q 153 410 153 494 q 173 276 151 335 q 230 174 194 218 q 310 99 265 131 q 403 49 356 68 l 403 0 l 99 0 l 99 49 z "},"√":{"ha":757,"x_min":53,"x_max":719,"o":"m 53 511 l 199 511 l 363 161 l 678 839 l 719 839 l 363 60 l 174 476 l 53 476 l 53 511 z "},"∆":{"ha":579,"x_min":72,"x_max":508,"o":"m 290 1018 l 508 386 l 72 386 l 290 1018 m 125 421 l 454 421 l 290 904 l 125 421 z "},"◊":{"ha":575,"x_min":69,"x_max":506,"o":"m 69 539 l 288 1018 l 506 539 l 288 60 l 69 539 m 111 539 l 288 161 l 464 539 l 288 915 l 111 539 z "},"∞":{"ha":676,"x_min":104,"x_max":572,"o":"m 458 321 q 390 333 422 321 q 339 369 358 346 q 288 333 319 346 q 221 321 257 321 q 170 330 192 321 q 134 353 149 339 q 112 385 119 367 q 104 419 104 403 q 112 455 104 438 q 134 486 119 472 q 170 509 149 500 q 221 518 192 518 q 289 505 257 518 q 340 468 321 492 q 390 505 358 492 q 458 518 422 518 q 509 509 488 518 q 544 486 531 500 q 565 454 558 472 q 572 419 572 436 q 565 385 572 403 q 544 353 558 367 q 509 330 531 339 q 458 321 488 321 m 322 419 q 313 445 322 433 q 290 465 304 457 q 258 478 276 474 q 222 483 240 483 q 163 463 182 483 q 143 419 143 442 q 162 377 143 399 q 222 356 181 356 q 258 360 240 356 q 290 374 275 365 q 313 394 304 382 q 322 419 322 406 m 358 417 q 392 372 361 389 q 458 356 424 356 q 518 377 500 356 q 536 419 536 399 q 517 463 536 442 q 458 483 499 483 q 392 466 422 483 q 358 422 361 449 l 358 419 l 358 417 z "}}}
